<?xml version="1.0" standalone="no"?>
<!DOCTYPE svg PUBLIC "-//W3C//DTD SVG 1.1//EN" "http://www.w3.org/Graphics/SVG/1.1/DTD/svg11.dtd" >
<svg>
<metadata>
Created by FontForge 20090622 at Sun Nov 20 00:35:52 2016
 By deploy user
Copyright 2011 by Timo Gaessner, 123buero. All rights reserved.
</metadata>
<defs>
<font id="MaisonNeue-Book" horiz-adv-x="650" >
  <font-face 
    font-family="Maison Neue"
    font-weight="400"
    font-stretch="normal"
    units-per-em="1000"
    panose-1="2 0 0 0 0 0 0 0 0 0"
    ascent="775"
    descent="-225"
    x-height="530"
    cap-height="700"
    bbox="-105 -300 1283 976"
    underline-thickness="50"
    underline-position="-50"
    unicode-range="U+000D-U+FB02"
  />
<missing-glyph horiz-adv-x="716" 
d="M65 0v423q0 117 86 204.5t206 87.5q121 0 207.5 -87.5t86.5 -204.5v-423h-28l-65 65l-68 -65l-63 65l-71 -65l-69 65l-63 -65l-67 65l-66 -65h-26zM425 305l63 63l64 -63l14 14l-64 63l64 64l-14 14l-64 -64l-63 64l-14 -14l63 -64l-63 -63zM165 305l63 63l64 -63l14 14
l-64 63l64 64l-14 14l-64 -64l-63 64l-14 -14l63 -64l-63 -63z" />
    <glyph glyph-name="fi" unicode="fi" horiz-adv-x="560" 
d="M104 0v457h-74v73h75v81q0 67 30 93t86 26h73v-73h-58q-30 0 -40.5 -12t-10.5 -50v-65h284v-530h-81v457h-202v-457h-82zM382 637v93h93v-93h-93z" />
    <glyph glyph-name="fl" unicode="fl" horiz-adv-x="549" 
d="M104 0v457h-74v73h75v81q0 67 30 93t86 26h73v-73h-58q-30 0 -40.5 -12t-10.5 -50v-65h197v200h82v-730h-82v457h-196v-457h-82z" />
    <glyph glyph-name=".notdef" horiz-adv-x="716" 
d="M65 0v423q0 117 86 204.5t206 87.5q121 0 207.5 -87.5t86.5 -204.5v-423h-28l-65 65l-68 -65l-63 65l-71 -65l-69 65l-63 -65l-67 65l-66 -65h-26zM425 305l63 63l64 -63l14 14l-64 63l64 64l-14 14l-64 -64l-63 64l-14 -14l63 -64l-63 -63zM165 305l63 63l64 -63l14 14
l-64 63l64 64l-14 14l-64 -64l-63 64l-14 -14l63 -64l-63 -63z" />
    <glyph glyph-name=".null" horiz-adv-x="0" 
 />
    <glyph glyph-name=".null" horiz-adv-x="0" 
 />
    <glyph glyph-name="nonmarkingreturn" horiz-adv-x="333" 
 />
    <glyph glyph-name="CR" unicode="&#xd;" horiz-adv-x="250" 
 />
    <glyph glyph-name="space" unicode=" " horiz-adv-x="250" 
 />
    <glyph glyph-name="exclam" unicode="!" horiz-adv-x="327" 
d="M123 208v492h82v-492h-82zM105 0v115h117v-115h-117z" />
    <glyph glyph-name="quotedbl" unicode="&#x22;" horiz-adv-x="376" 
d="M80 476v224h63v-224h-63zM203 476v224h63v-224h-63z" />
    <glyph glyph-name="numbersign" unicode="#" horiz-adv-x="685" 
d="M195 155l9 144h-129v60h133l10 136h-111v59h114l11 146h64l-10 -146h133l10 146h65l-10 -146h126v-59h-130l-9 -136h107v-60h-111l-9 -144h-65l9 144h-133l-9 -144h-65zM273 359h133l9 136h-133z" />
    <glyph glyph-name="dollar" unicode="$" horiz-adv-x="666" 
d="M60 241l86 17q15 -91 51 -137t115 -55q0 44 0.5 134t0.5 134q-113 30 -167 77t-54 118q0 75 59.5 128.5t162.5 57.5v60h44v-62q89 -8 146.5 -56t71.5 -135l-82 -18q-13 58 -43.5 91t-93.5 39v-230q142 -41 195.5 -88t53.5 -128q0 -89 -65 -145.5t-185 -57.5v-83h-44v85
q-223 21 -252 254zM357 322q0 -43 -0.5 -129.5t-0.5 -129.5q85 0 126 35t41 91q0 47 -33.5 75.5t-132.5 57.5zM176 529q0 -39 30.5 -65.5t106.5 -47.5v220q-68 -2 -102.5 -32t-34.5 -75z" />
    <glyph glyph-name="percent" unicode="%" horiz-adv-x="957" 
d="M240 370q47 0 72 39t25 106q0 66 -25.5 99.5t-71.5 33.5q-45 0 -70.5 -33.5t-25.5 -99.5q0 -67 24.5 -106t71.5 -39zM240 307q-77 0 -121 55.5t-44 153.5q0 93 49.5 144.5t115.5 51.5q67 0 116.5 -51.5t49.5 -144.5q0 -95 -45 -152t-121 -57zM716 51q47 0 72 39t25 106
q0 66 -25.5 99.5t-71.5 33.5q-45 0 -70.5 -33.5t-25.5 -99.5q0 -67 24.5 -106t71.5 -39zM716 -12q-77 0 -121 55.5t-44 153.5q0 93 49.5 144.5t115.5 51.5q67 0 116.5 -51.5t49.5 -144.5q0 -95 -45 -152t-121 -57zM199 -39l489 815l51 -32l-488 -814z" />
    <glyph glyph-name="ampersand" unicode="&#x26;" horiz-adv-x="710" 
d="M635 33l-98 85q-20 -56 -78 -94.5t-149 -38.5q-102 0 -173.5 51.5t-71.5 150.5q0 135 136 221q-66 66 -66 140q0 70 51 118.5t132 48.5q76 0 126.5 -40t63.5 -115l-74 -16q-22 97 -115 97q-48 0 -75 -26t-27 -66q0 -31 14 -53t44 -48l209 -183v127h74v-190l127 -109z
M473 170l-217 190q-111 -61 -111 -168q0 -64 49.5 -96.5t125.5 -32.5q60 0 101 29.5t52 77.5z" />
    <glyph glyph-name="quotesingle" unicode="'" horiz-adv-x="253" 
d="M95 476v224h63v-224h-63z" />
    <glyph glyph-name="parenleft" unicode="(" horiz-adv-x="386" 
d="M329 -160l-45 -37q-17 16 -44 53.5t-65 102.5t-64 156t-26 183q0 81 18.5 159t42.5 129.5t56.5 99.5t49.5 66.5l32 33.5l47 -38q-82 -90 -128 -193t-46 -256q0 -133 49 -250.5t123 -208.5z" />
    <glyph glyph-name="parenright" unicode=")" horiz-adv-x="386" 
d="M87 -197l-45 37q74 91 123 208.5t49 250.5q0 153 -46 256t-128 193l47 38l32 -33.5t49.5 -66.5t56.5 -99.5t42.5 -129.5t18.5 -159q0 -92 -26 -183t-64 -156t-65 -102.5t-44 -53.5z" />
    <glyph glyph-name="asterisk" unicode="*" horiz-adv-x="500" 
d="M95 384l92 111l-122 73l35 56l117 -68v144h66v-144l118 68l34 -57l-122 -72l93 -111l-51 -45l-105 130l-104 -130z" />
    <glyph glyph-name="plus" unicode="+" horiz-adv-x="580" 
d="M254 120v227h-199v66h199v202h72v-202h199v-66h-199v-227h-72z" />
    <glyph glyph-name="comma" unicode="," horiz-adv-x="308" 
d="M95 -106v45q48 9 48 61h-48v118h118v-103q0 -113 -118 -121z" />
    <glyph glyph-name="hyphen" unicode="-" horiz-adv-x="439" 
d="M55 304v74h329v-74h-329z" />
    <glyph glyph-name="period" unicode="." horiz-adv-x="308" 
d="M95 0v118h118v-118h-118z" />
    <glyph glyph-name="slash" unicode="/" horiz-adv-x="457" 
d="M20 -15l360 760l57 -26l-360 -758z" />
    <glyph glyph-name="zero" unicode="0" horiz-adv-x="621" 
d="M311 -15q-123 0 -192 97t-69 277q0 172 72 264t189 92t188.5 -92t71.5 -264q0 -180 -69 -277t-191 -97zM311 61q86 0 131 78.5t45 220.5q0 134 -46 206.5t-130 72.5t-130 -72t-46 -207q0 -142 45 -220.5t131 -78.5z" />
    <glyph glyph-name="one" unicode="1" horiz-adv-x="453" 
d="M221 0v605l-151 -95v90l161 100h67v-700h-77z" />
    <glyph glyph-name="two" unicode="2" horiz-adv-x="580" 
d="M64 0v63q0 97 36 150q33 52 156 117l56.5 31t43 26t38 28t23 27t17.5 34.5t4 39.5q0 51 -35.5 87.5t-106.5 36.5q-69 0 -110.5 -42.5t-45.5 -119.5l-80 8q4 108 69.5 168.5t168.5 60.5q104 0 162 -58.5t58 -144.5q0 -46 -13 -80.5t-47 -64t-52.5 -41t-68.5 -38.5l-14 -8
l-32.5 -17.5l-29.5 -16l-23.5 -13.5t-22 -14l-16.5 -13t-16 -15t-11 -15q-20 -31 -20 -93h368v-83h-456z" />
    <glyph glyph-name="three" unicode="3" horiz-adv-x="587" 
d="M45 230l81 16q12 -96 52 -141t119 -45q76 0 115.5 39.5t39.5 97.5q0 142 -153 142h-50v72h21q22 0 42 3t50 12.5t48 34.5t18 62q0 55 -35 86t-95 31t-95.5 -35t-43.5 -98l-78 14q9 88 68.5 141t149.5 53q91 0 150 -49.5t59 -137.5q0 -59 -33.5 -96.5t-75.5 -48.5v-2
q56 -13 94.5 -61t38.5 -125q0 -91 -65 -150.5t-169 -59.5q-105 0 -172 60t-81 185z" />
    <glyph glyph-name="four" unicode="4" horiz-adv-x="564" 
d="M35 162v75l281 463h126v-462h87v-76h-87v-162h-80v162h-327zM118 238h244v399h-2z" />
    <glyph glyph-name="five" unicode="5" horiz-adv-x="594" 
d="M55 179l79 28q40 -146 171 -146q75 0 119 46.5t44 127.5q0 77 -43.5 121t-115.5 44q-102 0 -156 -84l-74 32l63 352h345v-76h-282l-40 -221l1 -1q21 28 62.5 47t97.5 19q93 0 158 -64.5t65 -169.5q0 -113 -69 -181t-175 -68q-97 0 -161.5 53.5t-88.5 140.5z" />
    <glyph glyph-name="six" unicode="6" horiz-adv-x="636" 
d="M339 61q77 0 119.5 45.5t42.5 122.5q0 75 -44.5 120.5t-120.5 45.5q-71 0 -119 -47t-48 -109q0 -77 48 -127.5t122 -50.5zM547 537l-76 -20q-32 123 -141 123q-75 0 -129 -74.5t-55 -215.5l1 -1q6 14 19 31t36.5 37.5t61.5 34t82 13.5q98 0 166.5 -64t68.5 -171
q0 -114 -68 -179.5t-174 -65.5q-54 0 -102.5 20t-89 60t-64 110.5t-23.5 163.5q0 166 77 271t195 105q92 0 146 -51t69 -127z" />
    <glyph glyph-name="seven" unicode="7" horiz-adv-x="496" 
d="M35 0l343 621v2h-358v77h441v-86l-331 -614h-95z" />
    <glyph glyph-name="eight" unicode="8" horiz-adv-x="576" 
d="M289 642q-64 0 -97 -33.5t-33 -81.5q0 -50 36 -83.5t94 -33.5t93.5 33.5t35.5 83.5q0 49 -32.5 82t-96.5 33zM289 -15q-111 0 -179.5 56t-68.5 157q0 66 39 115t92 66v2q-40 17 -66.5 56.5t-26.5 97.5q0 72 57.5 126t152.5 54t152.5 -54t57.5 -126q0 -58 -27 -97.5
t-66 -56.5v-2q54 -19 91.5 -67t37.5 -114q0 -101 -67.5 -157t-178.5 -56zM289 63q75 0 118.5 38.5t43.5 99.5q0 63 -45 102t-117 39t-117.5 -39t-45.5 -102q0 -61 43.5 -99.5t119.5 -38.5z" />
    <glyph glyph-name="nine" unicode="9" horiz-adv-x="612" 
d="M78 161l77 24q31 -125 146 -125q166 0 167 287h-2q-4 -12 -15 -27.5t-32 -34.5t-56.5 -32t-79.5 -13q-100 0 -166.5 65.5t-66.5 172.5q0 106 68 171.5t164 65.5q122 0 193.5 -91.5t71.5 -274.5q0 -190 -68 -277t-179 -87q-87 0 -145 48t-77 128zM288 314q70 0 113.5 45
t43.5 115q0 71 -45.5 118.5t-117.5 47.5q-66 0 -109 -44t-43 -118q0 -75 43 -119.5t115 -44.5z" />
    <glyph glyph-name="colon" unicode=":" horiz-adv-x="308" 
d="M95 0v118h118v-118h-118zM95 412v118h118v-118h-118z" />
    <glyph glyph-name="semicolon" unicode=";" horiz-adv-x="308" 
d="M95 -106v45q48 9 48 61h-48v118h118v-103q0 -113 -118 -121zM95 412v118h118v-118h-118z" />
    <glyph glyph-name="less" unicode="&#x3c;" horiz-adv-x="538" 
d="M55 317l1 70l390 233l37 -60l-349 -208l349 -211l-38 -59z" />
    <glyph glyph-name="equal" unicode="=" horiz-adv-x="593" 
d="M65 249v70h463v-70h-463zM65 417v70h463v-70h-463z" />
    <glyph glyph-name="greater" unicode="&#x3e;" horiz-adv-x="538" 
d="M467 387l1 -70l-390 -235l-38 59l349 211l-349 208l37 60z" />
    <glyph glyph-name="question" unicode="?" horiz-adv-x="515" 
d="M186 190v55q0 36 17.5 62t65.5 62q35 25 47.5 35t34 31.5t29 42.5t7.5 48q0 44 -31 78.5t-96 34.5q-134 0 -144 -152l-81 8q2 98 61 159t166 61q91 0 149.5 -52.5t58.5 -133.5q0 -46 -16 -80.5t-34 -51.5t-59 -48l-29.5 -23t-25.5 -20t-17 -15.5t-14.5 -16.5t-6.5 -16
t-3 -21v-47h-79zM170 0v115h117v-115h-117z" />
    <glyph glyph-name="at" unicode="@" horiz-adv-x="737" 
d="M446 274v94h-2q-5 -15 -45 -26l-57 -16q-33 -9 -47 -23t-14 -42q0 -61 84 -61q32 0 56.5 19t24.5 55zM508 78l27 -45q-25 -18 -70.5 -33t-96.5 -15q-152 0 -232.5 99.5t-80.5 261.5q0 160 86 264t233 104q146 0 227 -101t81 -257q0 -115 -36 -163.5t-103 -48.5
q-61 0 -86 45h-2q-29 -45 -100 -45q-59 0 -97 31.5t-38 84.5q0 46 25.5 73t79.5 42l53 15q38 10 53 19.5t15 30.5q0 25 -18.5 41.5t-55.5 16.5q-66 0 -82 -72l-54 13q6 52 43.5 83t90.5 31q60 0 97 -31.5t37 -92.5v-190q0 -22 9.5 -32t31.5 -10q43 0 63 38.5t20 118.5
q0 137 -64.5 223t-189.5 86t-194.5 -88.5t-69.5 -228.5q0 -139 65 -224t193 -85q78 0 140 41z" />
    <glyph glyph-name="A" unicode="A" horiz-adv-x="625" 
d="M20 0l252 700h81l252 -700h-84l-52 137h-314l-51 -137h-84zM180 209h265l-132 380h-2z" />
    <glyph glyph-name="B" unicode="B" horiz-adv-x="649" 
d="M95 0v700h269q93 0 148.5 -51t55.5 -130q0 -102 -87 -140v-3q47 -15 80 -59t33 -110q0 -98 -60.5 -152.5t-186.5 -54.5h-252zM178 404h171q137 0 137 110q0 53 -36.5 81.5t-101.5 28.5h-170v-220zM178 76h158q88 0 132 31t44 100q0 67 -42 95t-132 28h-160v-254z" />
    <glyph glyph-name="C" unicode="C" horiz-adv-x="667" 
d="M352 636q-90 0 -149.5 -71t-59.5 -209q0 -144 58 -218.5t151 -74.5q158 0 178 197l87 -11q-10 -123 -79 -193.5t-186 -70.5q-59 0 -110.5 21t-94 63.5t-67.5 116t-25 170.5q0 171 87 265t210 94q110 0 179 -67t84 -177l-84 -15q-30 180 -179 180z" />
    <glyph glyph-name="D" unicode="D" horiz-adv-x="667" 
d="M178 76h123q228 0 228 275q0 132 -59.5 202.5t-162.5 70.5h-129v-548zM95 0v700h219q60 0 113 -21t96 -62t68.5 -109.5t25.5 -156.5q0 -96 -26 -167t-71 -109.5t-97.5 -56.5t-114.5 -18h-213z" />
    <glyph glyph-name="E" unicode="E" horiz-adv-x="586" 
d="M95 0v700h421v-76h-338v-227h310v-74h-310v-247h338v-76h-421z" />
    <glyph glyph-name="F" unicode="F" horiz-adv-x="567" 
d="M95 0v700h422v-76h-339v-253h311v-73h-311v-298h-83z" />
    <glyph glyph-name="G" unicode="G" horiz-adv-x="674" 
d="M351 -15q-60 0 -111.5 21t-94 64t-66.5 116.5t-24 170.5q0 170 86.5 264t209.5 94q103 0 174 -64t88 -167l-83 -15q-35 167 -179 167q-90 0 -149.5 -71t-59.5 -208q0 -143 58.5 -218.5t150.5 -75.5q87 0 137 54.5t48 149.5h-176v76h259v-68q0 -136 -74 -213t-194 -77z
" />
    <glyph glyph-name="H" unicode="H" horiz-adv-x="668" 
d="M95 0v700h83v-301h313v301h82v-700h-82v325h-313v-325h-83z" />
    <glyph glyph-name="I" unicode="I" horiz-adv-x="283" 
d="M100 0v700h83v-700h-83z" />
    <glyph glyph-name="J" unicode="J" horiz-adv-x="452" 
d="M25 150l80 22q9 -50 30 -80t63 -29q47 1 64.5 27.5t17.5 92.5v517h82v-521q0 -99 -40.5 -145.5t-124.5 -48.5q-74 -1 -117 44.5t-55 120.5z" />
    <glyph glyph-name="K" unicode="K" horiz-adv-x="591" 
d="M85 0v700h83v-342h2l284 342h104l-256 -306l284 -394h-100l-239 332h-2l-77 -90v-242h-83z" />
    <glyph glyph-name="L" unicode="L" horiz-adv-x="512" 
d="M95 0v700h83v-624h304v-76h-387z" />
    <glyph glyph-name="M" unicode="M" horiz-adv-x="864" 
d="M95 0v700h117l219 -537h2l219 537h117v-700h-81v584h-2l-241 -584h-26l-241 584h-2v-584h-81z" />
    <glyph glyph-name="N" unicode="N" horiz-adv-x="683" 
d="M95 0v700h90l319 -563h2v563h82v-700h-87l-321 563h-2v-563h-83z" />
    <glyph glyph-name="O" unicode="O" horiz-adv-x="700" 
d="M352 63q91 0 148 73t57 216q0 138 -58.5 211t-146.5 73q-90 0 -149.5 -71t-59.5 -209q0 -144 58 -218.5t151 -74.5zM352 -15q-59 0 -110.5 21t-94 63.5t-67.5 116t-25 170.5q0 171 87 265t210 94q120 0 206.5 -96t86.5 -267q0 -97 -24.5 -170t-66.5 -114.5t-93 -62
t-109 -20.5z" />
    <glyph glyph-name="P" unicode="P" horiz-adv-x="618" 
d="M95 0v700h269q106 0 170 -56.5t64 -159.5q0 -102 -63 -158t-169 -56h-188v-270h-83zM178 346h183q66 0 109.5 35t43.5 103q0 71 -44 105.5t-111 34.5h-181v-278z" />
    <glyph glyph-name="Q" unicode="Q" horiz-adv-x="700" 
d="M591 -16l-64 63q-74 -62 -175 -62q-59 0 -110.5 21t-94 63.5t-67.5 116t-25 170.5q0 171 87 265t210 94q120 0 206.5 -96t86.5 -267q0 -158 -72 -257l66 -65zM298 276l48 46l169 -169q42 70 42 199q0 138 -58.5 211t-146.5 73q-90 0 -149.5 -71t-59.5 -209
q0 -144 58 -218.5t151 -74.5q72 0 120 39z" />
    <glyph glyph-name="R" unicode="R" horiz-adv-x="643" 
d="M95 0v700h269q109 0 171.5 -52.5t62.5 -155.5q0 -84 -46.5 -135t-125.5 -65l156 -292h-93l-152 286h-159v-286h-83zM178 360h181q70 0 113 31.5t43 100.5q0 132 -158 132h-179v-264z" />
    <glyph glyph-name="S" unicode="S" horiz-adv-x="615" 
d="M50 241l87 17q15 -102 57.5 -148.5t139.5 -46.5q78 0 118 35t40 86q0 50 -36 79t-157 69q-116 37 -166.5 81.5t-50.5 117.5q0 76 59.5 130t160.5 54q99 0 165 -49t79 -144l-84 -18q-12 64 -48.5 98t-111.5 34q-66 0 -101 -30t-35 -75q0 -40 32 -65t142 -61
q139 -45 187 -91t48 -126q0 -86 -65 -144.5t-179 -58.5q-249 0 -281 256z" />
    <glyph glyph-name="T" unicode="T" horiz-adv-x="565" 
d="M242 0v624h-217v76h515v-76h-216v-624h-82z" />
    <glyph glyph-name="U" unicode="U" horiz-adv-x="657" 
d="M80 228v472h83v-466q0 -171 165 -171q82 0 124.5 43.5t42.5 125.5v468h82v-472q0 -120 -65.5 -181.5t-183.5 -61.5t-183 61.5t-65 181.5z" />
    <glyph glyph-name="V" unicode="V" horiz-adv-x="627" 
d="M267 0l-247 700h89l206 -599h2l202 599h88l-242 -700h-98z" />
    <glyph glyph-name="W" unicode="W" horiz-adv-x="908" 
d="M174 0l-129 700h85l105 -578h2l174 578h87l175 -578h2l103 578h85l-129 -700h-102l-177 580h-2l-176 -580h-103z" />
    <glyph glyph-name="X" unicode="X" horiz-adv-x="579" 
d="M25 0l216 365l-198 335h93l156 -276h2l150 276h91l-194 -342l213 -358h-92l-172 299h-2l-171 -299h-92z" />
    <glyph glyph-name="Y" unicode="Y" horiz-adv-x="572" 
d="M246 0v295l-231 405h92l178 -325h2l178 325h92l-231 -405v-295h-80z" />
    <glyph glyph-name="Z" unicode="Z" horiz-adv-x="606" 
d="M55 0v68l392 554v2h-374v76h478v-68l-393 -553v-2h385v-77h-488z" />
    <glyph glyph-name="bracketleft" unicode="[" horiz-adv-x="372" 
d="M85 -182v912h242v-59h-178v-794h178v-59h-242z" />
    <glyph glyph-name="backslash" unicode="\" horiz-adv-x="457" 
d="M380 -39l-360 758l57 26l360 -760z" />
    <glyph glyph-name="bracketright" unicode="]" horiz-adv-x="372" 
d="M297 730v-912h-242v59h178v794h-178v59h242z" />
    <glyph glyph-name="asciicircum" unicode="^" horiz-adv-x="545" 
d="M75 325l173 375h49l173 -375h-75l-122 279l-123 -279h-75z" />
    <glyph glyph-name="underscore" unicode="_" horiz-adv-x="632" 
d="M65 -138v68h502v-68h-502z" />
    <glyph glyph-name="grave" unicode="`" horiz-adv-x="289" 
d="M163 595l-108 121h101l78 -121h-71z" />
    <glyph glyph-name="a" unicode="a" horiz-adv-x="540" 
d="M393 0v58h-2q-15 -26 -57 -49.5t-105 -23.5q-88 0 -133.5 43t-45.5 108q0 66 40.5 103.5t137.5 62.5q36 9 53.5 14t40.5 13.5t33 16.5t17.5 20t7.5 27q0 34 -27.5 56.5t-83.5 22.5q-106 0 -129 -105l-74 21q13 70 65 113.5t135 43.5q92 0 145.5 -45.5t53.5 -142.5v-357
h-72zM247 239q-68 -19 -92.5 -41t-24.5 -57q0 -83 105 -83q72 0 111 32.5t39 79.5v132h-2q-14 -29 -136 -63z" />
    <glyph glyph-name="b" unicode="b" horiz-adv-x="596" 
d="M167 340v-164q0 -47 39 -82t97 -35q79 0 120 54t41 152t-41 152t-120 54q-62 0 -99 -40.5t-37 -90.5zM85 0v730h82v-251h2q56 66 147 66q100 0 165 -77t65 -203q0 -128 -62.5 -204t-167.5 -76q-53 0 -93.5 20.5t-61.5 45.5h-2v-51h-74z" />
    <glyph glyph-name="c" unicode="c" horiz-adv-x="557" 
d="M433 203l79 -16q-13 -92 -73 -147t-148 -55q-107 0 -174 74.5t-67 205.5q0 129 69 204.5t172 75.5q85 0 144.5 -54t72.5 -140l-77 -16q-12 59 -46 97.5t-94 38.5q-72 0 -116 -54.5t-44 -151.5q0 -96 43 -151t118 -55q59 0 96 42.5t45 101.5z" />
    <glyph glyph-name="d" unicode="d" horiz-adv-x="596" 
d="M429 176v164q0 50 -37 90.5t-99 40.5q-79 0 -120 -54t-41 -152t41 -152t120 -54q58 0 97 35t39 82zM437 0v51h-2q-21 -25 -61.5 -45.5t-93.5 -20.5q-105 0 -167.5 76t-62.5 204q0 127 65.5 203.5t164.5 76.5q91 0 147 -66h2v251h82v-730h-74z" />
    <glyph glyph-name="e" unicode="e" horiz-adv-x="580" 
d="M452 163l66 -43q-30 -58 -85.5 -96.5t-136.5 -38.5q-108 0 -177 76.5t-69 203.5t67.5 203.5t174.5 76.5q106 0 172 -75t66 -205v-24h-398q1 -76 42.5 -129t119.5 -53q30 0 56 8.5t40 17t29.5 28t19 25.5t13.5 25zM134 306h315q-2 67 -40 116t-117 49q-77 0 -117 -52.5
t-41 -112.5z" />
    <glyph glyph-name="f" unicode="f" horiz-adv-x="330" 
d="M104 0v457h-74v73h75v81q0 67 30 93t86 26h85v-73h-70q-31 0 -41.5 -12t-10.5 -50v-65h131v-73h-130v-457h-81z" />
    <glyph glyph-name="g" unicode="g" horiz-adv-x="593" 
d="M90 -96l69 35q18 -49 49.5 -77.5t89.5 -28.5q64 0 99 37.5t35 104.5v71h-2q-52 -61 -147 -61q-105 0 -169 76t-64 204q0 127 66.5 203.5t165.5 76.5q96 0 149 -66h2v51h80v-538q0 -113 -56.5 -172.5t-156.5 -59.5q-81 0 -134.5 39.5t-75.5 104.5zM432 174v168
q0 49 -37.5 89t-99.5 40q-78 0 -120.5 -54.5t-42.5 -151.5q0 -98 42 -152t121 -54q59 0 98 34.5t39 80.5z" />
    <glyph glyph-name="h" unicode="h" horiz-adv-x="594" 
d="M85 0v730h82v-253h2q22 30 64.5 49t90.5 19q85 0 137.5 -51.5t52.5 -147.5v-346h-82v324q0 146 -123 146q-65 0 -103.5 -38t-38.5 -99v-333h-82z" />
    <glyph glyph-name="i" unicode="i" horiz-adv-x="264" 
d="M91 0v530h82v-530h-82zM85 637v93h94v-93h-94z" />
    <glyph glyph-name="j" unicode="j" horiz-adv-x="258" 
d="M25 -195v78h17q23 0 34 11.5t11 44.5v591h82v-593q0 -72 -28 -102t-83 -30h-33zM80 637v93h93v-93h-93z" />
    <glyph glyph-name="k" unicode="k" horiz-adv-x="540" 
d="M85 0v730h82v-443h2l223 243h109l-194 -210l218 -320h-95l-182 269h-2l-79 -85v-184h-82z" />
    <glyph glyph-name="l" unicode="l" horiz-adv-x="253" 
d="M85 0v730h83v-730h-83z" />
    <glyph glyph-name="m" unicode="m" horiz-adv-x="850" 
d="M85 0v530h74v-51h2q19 29 56 47.5t79 18.5q50 0 85.5 -22.5t54.5 -55.5h2q19 32 58.5 55t90.5 23q84 0 133.5 -49.5t49.5 -134.5v-361h-79v336q0 134 -108 134q-55 0 -85.5 -33.5t-30.5 -93.5v-343h-79v336q0 134 -108 134q-58 0 -86 -35.5t-28 -91.5v-343h-81z" />
    <glyph glyph-name="n" unicode="n" horiz-adv-x="587" 
d="M85 0v530h80v-51h2q22 29 63 47.5t86 18.5q86 0 138.5 -53t52.5 -144v-348h-81v322q0 148 -122 148q-62 0 -99.5 -35t-37.5 -97v-338h-82z" />
    <glyph glyph-name="o" unicode="o" horiz-adv-x="578" 
d="M291 59q67 0 111.5 54.5t44.5 151.5t-44 151.5t-112 54.5q-70 0 -115 -53.5t-45 -152.5t45 -152.5t115 -53.5zM291 -15q-105 0 -173 74t-68 206q0 130 70 205t171 75q100 0 168.5 -75t68.5 -205q0 -132 -67 -206t-170 -74z" />
    <glyph glyph-name="p" unicode="p" horiz-adv-x="598" 
d="M167 342v-168q0 -46 39 -80.5t97 -34.5q79 0 121.5 54t42.5 152q0 97 -43 151.5t-121 54.5q-61 0 -98.5 -40t-37.5 -89zM85 -225v755h78v-51h2q20 25 60 45.5t92 20.5q99 0 165 -76.5t66 -203.5q0 -128 -64 -204t-167 -76q-49 0 -90 21t-58 45h-2v-276h-82z" />
    <glyph glyph-name="q" unicode="q" horiz-adv-x="598" 
d="M432 174v168q0 49 -37.5 89t-99.5 40q-78 0 -120.5 -54.5t-42.5 -151.5q0 -98 42 -152t121 -54q59 0 98 34.5t39 80.5zM432 -225v276h-2q-51 -66 -149 -66q-103 0 -167 76t-64 204q0 127 66.5 203.5t165.5 76.5q51 0 91 -20t61 -46h2v51h77v-755h-81z" />
    <glyph glyph-name="r" unicode="r" horiz-adv-x="351" 
d="M85 0v530h78v-57h2q16 32 47 49t63 17q12 0 23.5 -2.5t17.5 -4.5l5 -3l-15 -81q-15 8 -42 8q-51 0 -74 -33.5t-23 -107.5v-315h-82z" />
    <glyph glyph-name="s" unicode="s" horiz-adv-x="517" 
d="M45 180l77 15q15 -139 147 -139q63 0 94.5 23t31.5 61q0 40 -29.5 60t-123.5 46q-98 27 -138 61t-40 92q0 59 49 102.5t135 43.5q87 0 138 -41.5t68 -110.5l-71 -19q-31 101 -135 101q-52 0 -80 -22t-28 -52q0 -33 27 -49t124 -44q103 -29 141.5 -66.5t39.5 -101.5
q0 -63 -50.5 -109t-151.5 -46q-105 0 -160.5 54.5t-64.5 140.5z" />
    <glyph glyph-name="t" unicode="t" horiz-adv-x="360" 
d="M104 154v303h-74v73h76v130h78v-130h131v-73h-130v-293q0 -47 13 -66t52 -19h40v-79h-44q-75 0 -108.5 38.5t-33.5 115.5z" />
    <glyph glyph-name="u" unicode="u" horiz-adv-x="575" 
d="M80 185v345h82v-333q0 -74 28.5 -105t94.5 -31q60 0 92 37t32 103v329h81v-530h-80v51h-2q-5 -7 -15 -18t-46.5 -29.5t-79.5 -18.5q-88 0 -137.5 50t-49.5 150z" />
    <glyph glyph-name="v" unicode="v" horiz-adv-x="544" 
d="M239 0l-214 530h84l162 -415h2l162 415h84l-214 -530h-66z" />
    <glyph glyph-name="w" unicode="w" horiz-adv-x="787" 
d="M162 0l-117 530h81l85 -399h2l140 399h74l138 -399h2l95 399h80l-127 -530h-75l-150 433h-2l-150 -433h-76z" />
    <glyph glyph-name="x" unicode="x" horiz-adv-x="512" 
d="M25 0l179 272l-168 258h90l129 -204h2l129 204h89l-167 -258l179 -272h-91l-140 218h-2l-138 -218h-91z" />
    <glyph glyph-name="y" unicode="y" horiz-adv-x="497" 
d="M113 -225l106 281l-199 474h86l150 -366h2l135 366h84l-285 -755h-79z" />
    <glyph glyph-name="z" unicode="z" horiz-adv-x="550" 
d="M55 0v64l333 389v2h-314v75h420v-62l-330 -390v-2h331v-76h-440z" />
    <glyph glyph-name="braceleft" unicode="{" horiz-adv-x="387" 
d="M136 -41v223q0 32 -12 45t-41 13h-28v89h28q29 0 41 14.5t12 46.5v200q0 80 33.5 110t98.5 30h54v-60h-53q-37 0 -53 -19.5t-16 -67.5v-196q0 -29 -9.5 -50.5t-23 -31.5t-23 -14.5t-14.5 -5.5q70 -28 70 -100v-219q0 -49 16 -68t54 -19h52v-60h-54q-65 0 -98.5 29.5
t-33.5 110.5z" />
    <glyph glyph-name="bar" unicode="|" horiz-adv-x="273" 
d="M105 -300v1075h63v-1075h-63z" />
    <glyph glyph-name="braceright" unicode="}" horiz-adv-x="387" 
d="M211 182v-223q0 -81 -33.5 -110.5t-98.5 -29.5h-54v60h52q38 0 54 19t16 68v219q0 72 70 100q-5 1 -14.5 5.5t-23 14.5t-23 31.5t-9.5 50.5v196q0 48 -16 67.5t-53 19.5h-53v60h54q65 0 98.5 -30t33.5 -110v-200q0 -32 12 -46.5t41 -14.5h28v-89h-28q-29 0 -41 -13
t-12 -45z" />
    <glyph glyph-name="asciitilde" unicode="~" horiz-adv-x="597" 
d="M192 391q-19 0 -33 -7t-24.5 -25t-13.5 -25.5t-11 -31.5l-55 17q13 61 47 102t90 41q42 0 81 -22t72 -43.5t60 -21.5q19 0 33 7t24.5 25t13.5 25.5t11 31.5l55 -17q-13 -61 -47 -102t-90 -41q-42 0 -81.5 22t-72 43.5t-59.5 21.5z" />
    <glyph glyph-name="nbspace" unicode="&#xa0;" horiz-adv-x="200" 
 />
    <glyph glyph-name="exclamdown" unicode="&#xa1;" horiz-adv-x="327" 
d="M108 -170v492h82v-492h-82zM90 415v115h117v-115h-117z" />
    <glyph glyph-name="cent" unicode="&#xa2;" horiz-adv-x="572" 
d="M443 203l79 -16q-12 -87 -67.5 -141.5t-136.5 -59.5v-96h-35v96q-100 6 -161.5 80t-61.5 199q0 123 63 197.5t160 81.5v87h35v-87q79 -5 133.5 -58t66.5 -135l-77 -16q-25 124 -123 135v-410q53 6 85 47t40 96zM141 265q0 -90 38 -144t104 -61v410q-65 -7 -103.5 -60.5
t-38.5 -144.5z" />
    <glyph glyph-name="sterling" unicode="&#xa3;" horiz-adv-x="660" 
d="M95 0v76h37q33 0 47 13.5t14 47.5v181h-98v63h98v123q0 102 52 156.5t141 54.5q84 0 134 -49t62 -142l-76 -16q-12 68 -38.5 100t-80.5 32q-112 0 -112 -142v-117h201v-63h-201v-242h310v-76h-490z" />
    <glyph glyph-name="currency" unicode="&#xa4;" horiz-adv-x="679" 
d="M85 114l65 65q-47 64 -47 150q0 83 47 149l-65 65l40 40l63 -64q67 57 151 57q88 0 153 -55l62 62l40 -40l-64 -64q46 -67 46 -150q0 -87 -47 -151l65 -64l-40 -40l-64 63q-64 -51 -151 -51q-89 0 -150 52l-64 -64zM340 161q60 0 103 40.5t43 126.5q0 88 -43 129.5
t-103 41.5q-61 0 -104 -41.5t-43 -129.5q0 -86 43 -126.5t104 -40.5z" />
    <glyph glyph-name="yen" unicode="&#xa5;" horiz-adv-x="652" 
d="M78 139v67h206v89h-206v68h169l-192 337h91l179 -323h2l179 323h91l-192 -337h169v-68h-206v-89h206v-67h-207v-139h-81v139h-208z" />
    <glyph glyph-name="brokenbar" unicode="&#xa6;" horiz-adv-x="285" 
d="M105 321v327h75v-327h-75zM105 -131v327h75v-327h-75z" />
    <glyph glyph-name="section" unicode="&#xa7;" horiz-adv-x="626" 
d="M237 212l145 -56q16 -6 36 -18q60 41 60 94q0 56 -89 90l-144 56q-20 7 -37 17q-59 -40 -59 -93q0 -56 88 -90zM430 -11q0 37 -21 61t-67 43l-145 58q-70 27 -100 62t-31 84q-1 86 86 142q-38 41 -38 104q0 75 53.5 123.5t133.5 48.5q84 0 141 -47t68 -134l-80 -15
q-11 64 -42 92.5t-84 28.5q-55 0 -81.5 -28t-26.5 -67q0 -68 88 -104l146 -58q69 -27 99 -62t31 -84q1 -84 -87 -142q39 -41 39 -104q0 -75 -53.5 -123.5t-133.5 -48.5q-84 0 -141 47t-68 134l80 15q11 -64 42 -92.5t84 -28.5q55 0 81.5 28t26.5 67z" />
    <glyph glyph-name="dieresis" unicode="&#xa8;" horiz-adv-x="413" 
d="M65 611v91h91v-91h-91zM257 611v91h91v-91h-91z" />
    <glyph glyph-name="copyright" unicode="&#xa9;" horiz-adv-x="725" 
d="M362 45q-130 0 -218.5 89t-88.5 220q0 130 88.5 218.5t218.5 88.5q131 0 220 -88.5t89 -218.5q0 -131 -89 -220t-220 -89zM362 97q109 0 182 73.5t73 183.5q0 108 -73 181.5t-182 73.5q-108 0 -181 -73.5t-73 -181.5q0 -109 73 -183t181 -74zM443 310l61 -14
q-9 -62 -45 -98.5t-93 -36.5q-67 0 -110.5 50t-43.5 138q0 91 44.5 142.5t110.5 51.5q56 0 91.5 -36.5t42.5 -94.5l-60 -11q-14 84 -74 84q-40 0 -65.5 -35t-25.5 -101q0 -65 25.5 -97.5t64.5 -32.5q65 0 77 91z" />
    <glyph glyph-name="ordfeminine" unicode="&#xaa;" horiz-adv-x="361" 
d="M250 384v32h-1q-6 -13 -30 -27t-62 -14q-53 0 -80 25t-27 64t24 61t81 37q50 13 68 22.5t18 28.5q0 42 -60 42q-62 0 -73 -59l-50 19q8 39 39.5 64.5t82.5 25.5q54 0 87.5 -28t33.5 -86v-207h-51zM167 519q-37 -9 -48.5 -20.5t-11.5 -30.5q0 -43 55 -43q40 0 61 17.5
t21 42.5v69h-1q-8 -17 -76 -35z" />
    <glyph glyph-name="guillemotleft" unicode="&#xab;" horiz-adv-x="559" 
d="M203 98l-108 183l108 186h82l-109 -186l109 -183h-82zM392 98l-108 183l108 186h82l-109 -186l109 -183h-82z" />
    <glyph glyph-name="logicalnot" unicode="&#xac;" horiz-adv-x="627" 
d="M65 376v75h477v-248h-80v173h-397z" />
    <glyph glyph-name="registered" unicode="&#xae;" horiz-adv-x="462" 
d="M231 384q62 0 103.5 42t41.5 104t-41.5 104t-103.5 42t-103.5 -42t-41.5 -104t41.5 -104t103.5 -42zM231 354q-74 0 -125 51t-51 125t51 125t125 51t125 -51t51 -125t-51 -125t-125 -51zM169 424v211h65q76 0 76 -63q0 -48 -52 -61l47 -87h-32l-45 86h-31v-86h-28z
M197 536h38q47 0 47 36q0 38 -47 38h-38v-74z" />
    <glyph glyph-name="macron" unicode="&#xaf;" horiz-adv-x="418" 
d="M65 620v61h288v-61h-288z" />
    <glyph glyph-name="degree" unicode="&#xb0;" horiz-adv-x="393" 
d="M196 487q-59 0 -97.5 40.5t-38.5 100.5q0 59 39.5 101t96.5 42q59 0 98 -41t39 -102t-38.5 -101t-98.5 -40zM196 547q69 0 69 81q0 83 -69 83t-69 -83q0 -81 69 -81z" />
    <glyph glyph-name="plusminus" unicode="&#xb1;" horiz-adv-x="613" 
d="M55 418v70h214v167h75v-167h214v-70h-214v-188h-75v188h-214zM83 96v70h456v-70h-456z" />
    <glyph glyph-name="twosuperior" unicode="&#xb2;" horiz-adv-x="362" 
d="M39 473v52q0 53 26 90q19 25 94 64l17.5 10t17 9t14.5 8t13.5 9t11.5 8.5t10.5 9.5t7 9.5t6 11t3 12.5t1.5 14q0 26 -19.5 46t-55.5 20q-79 0 -87 -92l-64 8q4 68 44 105.5t107 37.5q62 0 100 -35.5t38 -93.5q0 -50 -30 -79.5t-84 -56.5q-77 -41 -88 -58q-10 -13 -10 -43
h215v-66h-288z" />
    <glyph glyph-name="threesuperior" unicode="&#xb3;" horiz-adv-x="355" 
d="M20 614l65 14q6 -51 28.5 -75.5t64.5 -24.5q41 0 62.5 19.5t21.5 51.5q0 35 -23 54t-65 19h-26v53h20q29 0 52.5 13.5t23.5 43.5q0 29 -18 46t-51 17q-62 0 -72 -71l-62 12q5 55 42 87t94 32q56 0 93 -31t37 -83q0 -35 -18.5 -56.5t-39.5 -28.5v-2q29 -9 52.5 -36
t23.5 -73q0 -55 -39.5 -91t-107.5 -36q-65 0 -107 36.5t-51 109.5z" />
    <glyph glyph-name="acute" unicode="&#xb4;" horiz-adv-x="288" 
d="M55 595l78 121h100l-107 -121h-71z" />
    <glyph glyph-name="mu" unicode="&#xb5;" horiz-adv-x="601" 
d="M90 -225v755h82v-321q0 -73 37 -110.5t100 -37.5q60 0 95.5 37.5t35.5 100.5v331h81v-530h-80v51h-2q-4 -8 -18.5 -21.5t-47.5 -29t-70 -15.5q-87 0 -133 50v-260h-80z" />
    <glyph glyph-name="paragraph" unicode="&#xb6;" horiz-adv-x="552" 
d="M176 -136v444q-68 2 -114.5 48t-46.5 118q0 77 47 121.5t118 44.5h287v-776h-69v703h-148v-703h-74z" />
    <glyph glyph-name="periodcentered" unicode="&#xb7;" horiz-adv-x="308" 
d="M95 322v118h118v-118h-118z" />
    <glyph glyph-name="cedilla" unicode="&#xb8;" horiz-adv-x="282" 
d="M29 -172l30 41q34 -31 74 -31q58 0 58 41q0 20 -15 30t-37 10q-14 0 -28 -4.5t-21 -8.5l-6 -4l-34 18l47 80h47l-38 -58l1 -1q21 15 54 15q36 0 61 -21t25 -59q0 -40 -31 -64.5t-78 -24.5q-68 0 -109 41z" />
    <glyph glyph-name="onesuperior" unicode="&#xb9;" horiz-adv-x="267" 
d="M122 473v350l-92 -57v73l98 61h59v-427h-65z" />
    <glyph glyph-name="ordmasculine" unicode="&#xba;" horiz-adv-x="362" 
d="M182 429q36 0 58.5 29.5t22.5 82.5t-22.5 82t-58.5 29q-37 0 -60 -29t-23 -82q0 -54 23 -83t60 -29zM182 375q-62 0 -102 44t-40 122q0 77 41 121t101 44q59 0 99.5 -44t40.5 -121q0 -78 -39.5 -122t-100.5 -44z" />
    <glyph glyph-name="guillemotright" unicode="&#xbb;" horiz-adv-x="559" 
d="M449 281l-108 -183h-82l109 183l-109 186h82zM260 281l-108 -183h-82l109 183l-109 186h82z" />
    <glyph glyph-name="onequarter" unicode="&#xbc;" horiz-adv-x="839" 
d="M131 -39l489 815l51 -32l-488 -814zM127 273v350l-92 -57v73l98 61h59v-427h-65zM475 99v61l162 267h95v-267h52v-61h-52v-99h-65v99h-192zM536 160h131v211h-2z" />
    <glyph glyph-name="onehalf" unicode="&#xbd;" horiz-adv-x="885" 
d="M131 -40l489 815l51 -32l-488 -814zM127 272v350l-92 -57v73l98 61h59v-427h-65zM527 0v52q0 53 26 90q19 25 94 64l17.5 10t17 9t14.5 8t13.5 9t11.5 8.5t10.5 9.5t7 9.5t6 11t3 12.5t1.5 14q0 26 -19.5 46t-55.5 20q-79 0 -87 -92l-64 8q4 68 44 105.5t107 37.5
q62 0 100 -35.5t38 -93.5q0 -50 -30 -79.5t-84 -56.5q-77 -41 -88 -58q-10 -13 -10 -43h215v-66h-288z" />
    <glyph glyph-name="threequarters" unicode="&#xbe;" horiz-adv-x="893" 
d="M213 -39l489 815l51 -32l-488 -814zM40 414l65 14q6 -51 28.5 -75.5t64.5 -24.5q41 0 62.5 19.5t21.5 51.5q0 35 -23 54t-65 19h-26v53h20q29 0 52.5 13.5t23.5 43.5q0 29 -18 46t-51 17q-62 0 -72 -71l-62 12q5 55 42 87t94 32q56 0 93 -31t37 -83q0 -35 -18.5 -56.5
t-39.5 -28.5v-2q29 -9 52.5 -36t23.5 -73q0 -55 -39.5 -91t-107.5 -36q-65 0 -107 36.5t-51 109.5zM544 99v61l162 267h95v-267h52v-61h-52v-99h-65v99h-192zM605 160h131v211h-2z" />
    <glyph glyph-name="questiondown" unicode="&#xbf;" horiz-adv-x="515" 
d="M314 340v-55q0 -36 -17.5 -62t-65.5 -62q-35 -25 -47.5 -35t-34 -31.5t-29 -42.5t-7.5 -48q0 -44 31 -78.5t96 -34.5q134 0 144 152l81 -8q-2 -98 -61 -159t-166 -61q-91 0 -149.5 52.5t-58.5 133.5q0 46 16 80.5t34 51.5t59 48l29.5 23t25.5 20t17 15.5t14.5 16.5
t6.5 16t3 21v47h79zM330 530v-115h-117v115h117z" />
    <glyph glyph-name="Agrave" unicode="&#xc0;" horiz-adv-x="625" 
d="M20 0l252 700h81l252 -700h-84l-52 137h-314l-51 -137h-84zM180 209h265l-132 380h-2zM277 765l-108 121h101l78 -121h-71z" />
    <glyph glyph-name="Aacute" unicode="&#xc1;" horiz-adv-x="625" 
d="M20 0l252 700h81l252 -700h-84l-52 137h-314l-51 -137h-84zM180 209h265l-132 380h-2zM287 765l79 121h100l-108 -121h-71z" />
    <glyph glyph-name="Acircumflex" unicode="&#xc2;" horiz-adv-x="625" 
d="M20 0l252 700h81l252 -700h-84l-52 137h-314l-51 -137h-84zM180 209h265l-132 380h-2zM194 785l66 85h109l66 -85l-48 -38l-73 92l-73 -92z" />
    <glyph glyph-name="Atilde" unicode="&#xc3;" horiz-adv-x="625" 
d="M20 0l252 700h81l252 -700h-84l-52 137h-314l-51 -137h-84zM180 209h265l-132 380h-2zM217 765h-44q17 93 89 93q27 0 62 -18.5t52 -18.5q28 0 36 32h44q-17 -93 -88 -93q-28 0 -63.5 18.5t-51.5 18.5q-28 0 -36 -32z" />
    <glyph glyph-name="Adieresis" unicode="&#xc4;" horiz-adv-x="625" 
d="M20 0l252 700h81l252 -700h-84l-52 137h-314l-51 -137h-84zM180 209h265l-132 380h-2zM173 765v91h91v-91h-91zM365 765v91h91v-91h-91z" />
    <glyph glyph-name="Aring" unicode="&#xc5;" horiz-adv-x="625" 
d="M20 0l249 693q-54 26 -54 93q0 42 28 72t70 30q43 0 70.5 -29.5t27.5 -72.5q0 -68 -56 -94l250 -692h-84l-52 137h-314l-51 -137h-84zM180 209h265l-132 380h-2zM313 729q20 0 34 15t14 43t-14 42.5t-34 14.5t-33.5 -14.5t-13.5 -42.5t14 -43t33 -15z" />
    <glyph glyph-name="AE" unicode="&#xc6;" horiz-adv-x="864" 
d="M20 0l263 700h511v-76h-306v-227h278v-73h-278v-248h306v-76h-388v149h-246l-55 -149h-85zM185 221h221v403h-72z" />
    <glyph glyph-name="Ccedilla" unicode="&#xc7;" horiz-adv-x="667" 
d="M283 -172l30 41q34 -31 74 -31q58 0 58 41q0 20 -15 30t-37 10q-14 0 -28 -4.5t-21 -8.5l-6 -4l-34 18l38 65q-58 2 -108 24t-91 64.5t-64.5 115t-23.5 167.5q0 171 87 265t210 94q110 0 179 -67t84 -177l-84 -15q-30 180 -179 180q-90 0 -149.5 -71t-59.5 -209
q0 -144 58 -218.5t151 -74.5q158 0 178 197l87 -11q-9 -112 -68 -181.5t-160 -80.5l-29 -45l1 -1q21 15 54 15q36 0 61 -21t25 -59q0 -40 -31 -64.5t-78 -24.5q-68 0 -109 41z" />
    <glyph glyph-name="Egrave" unicode="&#xc8;" horiz-adv-x="586" 
d="M95 0v700h421v-76h-338v-227h310v-74h-310v-247h338v-76h-421zM295 765l-108 121h101l78 -121h-71z" />
    <glyph glyph-name="Eacute" unicode="&#xc9;" horiz-adv-x="586" 
d="M95 0v700h421v-76h-338v-227h310v-74h-310v-247h338v-76h-421zM267 765l79 121h100l-108 -121h-71z" />
    <glyph glyph-name="Ecircumflex" unicode="&#xca;" horiz-adv-x="586" 
d="M95 0v700h421v-76h-338v-227h310v-74h-310v-247h338v-76h-421zM196 785l66 85h109l66 -85l-48 -38l-73 92l-73 -92z" />
    <glyph glyph-name="Edieresis" unicode="&#xcb;" horiz-adv-x="586" 
d="M95 0v700h421v-76h-338v-227h310v-74h-310v-247h338v-76h-421zM169 765v91h91v-91h-91zM361 765v91h91v-91h-91z" />
    <glyph glyph-name="Igrave" unicode="&#xcc;" horiz-adv-x="283" 
d="M100 0v700h83v-700h-83zM97 765l-108 121h101l78 -121h-71z" />
    <glyph glyph-name="Iacute" unicode="&#xcd;" horiz-adv-x="283" 
d="M100 0v700h83v-700h-83zM96 765l79 121h100l-108 -121h-71z" />
    <glyph glyph-name="Icircumflex" unicode="&#xce;" horiz-adv-x="283" 
d="M100 0v700h83v-700h-83zM15 785l66 85h109l66 -85l-48 -38l-73 92l-73 -92z" />
    <glyph glyph-name="Idieresis" unicode="&#xcf;" horiz-adv-x="283" 
d="M100 0v700h83v-700h-83zM-8 765v91h91v-91h-91zM184 765v91h91v-91h-91z" />
    <glyph glyph-name="Eth" unicode="&#xd0;" horiz-adv-x="696" 
d="M109 0v322h-69v78h69v300h234q128 0 215.5 -89t87.5 -260q0 -97 -25.5 -167.5t-70.5 -109t-98 -56.5t-115 -18h-228zM191 76h138q228 0 228 275q0 136 -59 204.5t-163 68.5h-144v-224h186v-78h-186v-246z" />
    <glyph glyph-name="Ntilde" unicode="&#xd1;" horiz-adv-x="683" 
d="M95 0v700h90l319 -563h2v563h82v-700h-87l-321 563h-2v-563h-83zM247 765h-44q17 93 89 93q27 0 62 -18.5t52 -18.5q28 0 36 32h44q-17 -93 -88 -93q-28 0 -63.5 18.5t-51.5 18.5q-28 0 -36 -32z" />
    <glyph glyph-name="Ograve" unicode="&#xd2;" horiz-adv-x="700" 
d="M352 63q91 0 148 73t57 216q0 138 -58.5 211t-146.5 73q-90 0 -149.5 -71t-59.5 -209q0 -144 58 -218.5t151 -74.5zM352 -15q-59 0 -110.5 21t-94 63.5t-67.5 116t-25 170.5q0 171 87 265t210 94q120 0 206.5 -96t86.5 -267q0 -97 -24.5 -170t-66.5 -114.5t-93 -62
t-109 -20.5zM321 765l-108 121h101l78 -121h-71z" />
    <glyph glyph-name="Oacute" unicode="&#xd3;" horiz-adv-x="700" 
d="M352 63q91 0 148 73t57 216q0 138 -58.5 211t-146.5 73q-90 0 -149.5 -71t-59.5 -209q0 -144 58 -218.5t151 -74.5zM352 -15q-59 0 -110.5 21t-94 63.5t-67.5 116t-25 170.5q0 171 87 265t210 94q120 0 206.5 -96t86.5 -267q0 -97 -24.5 -170t-66.5 -114.5t-93 -62
t-109 -20.5zM315 765l79 121h100l-108 -121h-71z" />
    <glyph glyph-name="Ocircumflex" unicode="&#xd4;" horiz-adv-x="700" 
d="M352 63q91 0 148 73t57 216q0 138 -58.5 211t-146.5 73q-90 0 -149.5 -71t-59.5 -209q0 -144 58 -218.5t151 -74.5zM352 -15q-59 0 -110.5 21t-94 63.5t-67.5 116t-25 170.5q0 171 87 265t210 94q120 0 206.5 -96t86.5 -267q0 -97 -24.5 -170t-66.5 -114.5t-93 -62
t-109 -20.5zM240 785l66 85h109l66 -85l-48 -38l-73 92l-73 -92z" />
    <glyph glyph-name="Otilde" unicode="&#xd5;" horiz-adv-x="700" 
d="M352 63q91 0 148 73t57 216q0 138 -58.5 211t-146.5 73q-90 0 -149.5 -71t-59.5 -209q0 -144 58 -218.5t151 -74.5zM352 -15q-59 0 -110.5 21t-94 63.5t-67.5 116t-25 170.5q0 171 87 265t210 94q120 0 206.5 -96t86.5 -267q0 -97 -24.5 -170t-66.5 -114.5t-93 -62
t-109 -20.5zM262 765h-44q17 93 89 93q27 0 62 -18.5t52 -18.5q28 0 36 32h44q-17 -93 -88 -93q-28 0 -63.5 18.5t-51.5 18.5q-28 0 -36 -32z" />
    <glyph glyph-name="Odieresis" unicode="&#xd6;" horiz-adv-x="700" 
d="M352 63q91 0 148 73t57 216q0 138 -58.5 211t-146.5 73q-90 0 -149.5 -71t-59.5 -209q0 -144 58 -218.5t151 -74.5zM352 -15q-59 0 -110.5 21t-94 63.5t-67.5 116t-25 170.5q0 171 87 265t210 94q120 0 206.5 -96t86.5 -267q0 -97 -24.5 -170t-66.5 -114.5t-93 -62
t-109 -20.5zM215 765v91h91v-91h-91zM407 765v91h91v-91h-91z" />
    <glyph glyph-name="multiply" unicode="&#xd7;" horiz-adv-x="548" 
d="M55 168l169 168l-159 159l51 50l158 -158l159 158l50 -50l-159 -159l169 -168l-50 -50l-169 168l-168 -168z" />
    <glyph glyph-name="Oslash" unicode="&#xd8;" horiz-adv-x="700" 
d="M352 -15q-90 0 -158 45l-26 -45l-41 23l30 52q-102 97 -102 296q0 171 87 265t210 94q82 0 152 -47l27 47l41 -24l-31 -54q104 -102 104 -285q0 -97 -24.5 -170t-66.5 -114.5t-93 -62t-109 -20.5zM352 63q91 0 148 73t57 216q0 135 -58 211l-264 -461q48 -39 117 -39z
M143 356q0 -140 58 -219l263 461q-50 38 -112 38q-90 0 -149.5 -71t-59.5 -209z" />
    <glyph glyph-name="Ugrave" unicode="&#xd9;" horiz-adv-x="657" 
d="M80 228v472h83v-466q0 -171 165 -171q82 0 124.5 43.5t42.5 125.5v468h82v-472q0 -120 -65.5 -181.5t-183.5 -61.5t-183 61.5t-65 181.5zM312 765l-108 121h101l78 -121h-71z" />
    <glyph glyph-name="Uacute" unicode="&#xda;" horiz-adv-x="657" 
d="M80 228v472h83v-466q0 -171 165 -171q82 0 124.5 43.5t42.5 125.5v468h82v-472q0 -120 -65.5 -181.5t-183.5 -61.5t-183 61.5t-65 181.5zM308 765l79 121h100l-108 -121h-71z" />
    <glyph glyph-name="Ucircumflex" unicode="&#xdb;" horiz-adv-x="657" 
d="M80 228v472h83v-466q0 -171 165 -171q82 0 124.5 43.5t42.5 125.5v468h82v-472q0 -120 -65.5 -181.5t-183.5 -61.5t-183 61.5t-65 181.5zM219 785l66 85h109l66 -85l-48 -38l-73 92l-73 -92z" />
    <glyph glyph-name="Udieresis" unicode="&#xdc;" horiz-adv-x="657" 
d="M80 228v472h83v-466q0 -171 165 -171q82 0 124.5 43.5t42.5 125.5v468h82v-472q0 -120 -65.5 -181.5t-183.5 -61.5t-183 61.5t-65 181.5zM194 765v91h91v-91h-91zM386 765v91h91v-91h-91z" />
    <glyph glyph-name="Yacute" unicode="&#xdd;" horiz-adv-x="572" 
d="M246 0v295l-231 405h92l178 -325h2l178 325h92l-231 -405v-295h-80zM259 765l79 121h100l-108 -121h-71z" />
    <glyph glyph-name="Thorn" unicode="&#xde;" horiz-adv-x="655" 
d="M95 0v700h83v-116h197q111 0 178 -58t67 -165q0 -109 -64 -165.5t-181 -56.5h-197v-139h-83zM178 215h193q76 0 121.5 35.5t45.5 110.5t-45 111t-122 36h-193v-293z" />
    <glyph glyph-name="germandbls" unicode="&#xdf;" horiz-adv-x="577" 
d="M75 0v492q0 108 60 165.5t153 57.5q88 0 145.5 -52t57.5 -136q0 -32 -10.5 -58.5t-25.5 -41.5t-26.5 -23t-19.5 -11v-2q14 -4 29 -13.5t36 -29t34.5 -54.5t13.5 -80q0 -214 -233 -214h-32v72h32q77 0 116 37t39 107q0 133 -139 133h-48v68h29q57 0 92.5 26.5t35.5 80.5
q0 53 -32 85t-91 32q-133 0 -133 -168v-473h-83z" />
    <glyph glyph-name="agrave" unicode="&#xe0;" horiz-adv-x="540" 
d="M393 0v58h-2q-15 -26 -57 -49.5t-105 -23.5q-88 0 -133.5 43t-45.5 108q0 66 40.5 103.5t137.5 62.5q36 9 53.5 14t40.5 13.5t33 16.5t17.5 20t7.5 27q0 34 -27.5 56.5t-83.5 22.5q-106 0 -129 -105l-74 21q13 70 65 113.5t135 43.5q92 0 145.5 -45.5t53.5 -142.5v-357
h-72zM247 239q-68 -19 -92.5 -41t-24.5 -57q0 -83 105 -83q72 0 111 32.5t39 79.5v132h-2q-14 -29 -136 -63zM252 595l-108 121h101l78 -121h-71z" />
    <glyph glyph-name="aacute" unicode="&#xe1;" horiz-adv-x="540" 
d="M393 0v58h-2q-15 -26 -57 -49.5t-105 -23.5q-88 0 -133.5 43t-45.5 108q0 66 40.5 103.5t137.5 62.5q36 9 53.5 14t40.5 13.5t33 16.5t17.5 20t7.5 27q0 34 -27.5 56.5t-83.5 22.5q-106 0 -129 -105l-74 21q13 70 65 113.5t135 43.5q92 0 145.5 -45.5t53.5 -142.5v-357
h-72zM247 239q-68 -19 -92.5 -41t-24.5 -57q0 -83 105 -83q72 0 111 32.5t39 79.5v132h-2q-14 -29 -136 -63zM225 595l78 121h100l-107 -121h-71z" />
    <glyph glyph-name="acircumflex" unicode="&#xe2;" horiz-adv-x="540" 
d="M393 0v58h-2q-15 -26 -57 -49.5t-105 -23.5q-88 0 -133.5 43t-45.5 108q0 66 40.5 103.5t137.5 62.5q36 9 53.5 14t40.5 13.5t33 16.5t17.5 20t7.5 27q0 34 -27.5 56.5t-83.5 22.5q-106 0 -129 -105l-74 21q13 70 65 113.5t135 43.5q92 0 145.5 -45.5t53.5 -142.5v-357
h-72zM247 239q-68 -19 -92.5 -41t-24.5 -57q0 -83 105 -83q72 0 111 32.5t39 79.5v132h-2q-14 -29 -136 -63zM157 620l66 85h109l66 -85l-48 -38l-73 92l-73 -92z" />
    <glyph glyph-name="atilde" unicode="&#xe3;" horiz-adv-x="540" 
d="M393 0v58h-2q-15 -26 -57 -49.5t-105 -23.5q-88 0 -133.5 43t-45.5 108q0 66 40.5 103.5t137.5 62.5q36 9 53.5 14t40.5 13.5t33 16.5t17.5 20t7.5 27q0 34 -27.5 56.5t-83.5 22.5q-106 0 -129 -105l-74 21q13 70 65 113.5t135 43.5q92 0 145.5 -45.5t53.5 -142.5v-357
h-72zM247 239q-68 -19 -92.5 -41t-24.5 -57q0 -83 105 -83q72 0 111 32.5t39 79.5v132h-2q-14 -29 -136 -63zM179 602h-44q18 94 89 94q27 0 62 -19t52 -19q28 0 36 33h44q-18 -94 -88 -94q-28 0 -63.5 19t-51.5 19q-28 0 -36 -33z" />
    <glyph glyph-name="adieresis" unicode="&#xe4;" horiz-adv-x="540" 
d="M393 0v58h-2q-15 -26 -57 -49.5t-105 -23.5q-88 0 -133.5 43t-45.5 108q0 66 40.5 103.5t137.5 62.5q36 9 53.5 14t40.5 13.5t33 16.5t17.5 20t7.5 27q0 34 -27.5 56.5t-83.5 22.5q-106 0 -129 -105l-74 21q13 70 65 113.5t135 43.5q92 0 145.5 -45.5t53.5 -142.5v-357
h-72zM247 239q-68 -19 -92.5 -41t-24.5 -57q0 -83 105 -83q72 0 111 32.5t39 79.5v132h-2q-14 -29 -136 -63zM135 611v91h91v-91h-91zM327 611v91h91v-91h-91z" />
    <glyph glyph-name="aring" unicode="&#xe5;" horiz-adv-x="540" 
d="M393 0v58h-2q-15 -26 -57 -49.5t-105 -23.5q-88 0 -133.5 43t-45.5 108q0 66 40.5 103.5t137.5 62.5q36 9 53.5 14t40.5 13.5t33 16.5t17.5 20t7.5 27q0 34 -27.5 56.5t-83.5 22.5q-106 0 -129 -105l-74 21q10 58 49 99t100 53q-41 28 -41 85q0 42 28 72t70 30
q43 0 70.5 -29.5t27.5 -72.5q0 -59 -42 -86q137 -28 137 -182v-357h-72zM247 239q-68 -19 -92.5 -41t-24.5 -57q0 -83 105 -83q72 0 111 32.5t39 79.5v132h-2q-14 -29 -136 -63zM272 567q20 0 34 15.5t14 43.5q0 27 -14 41.5t-34 14.5t-33.5 -14t-13.5 -42t14 -43.5
t33 -15.5z" />
    <glyph glyph-name="ae" unicode="&#xe6;" horiz-adv-x="914" 
d="M229 302q91 22 121 42.5t30 48.5q0 34 -28 57t-87 23q-60 0 -89 -27.5t-40 -77.5l-69 23q11 67 64.5 110.5t132.5 43.5q136 0 181 -92q63 92 182 92q108 0 172.5 -74.5t64.5 -205.5v-24h-392q1 -77 41.5 -129.5t118.5 -52.5q39 0 68.5 11t48 31.5t27 35t18.5 36.5l64 -36
q-24 -64 -82.5 -108t-141.5 -44q-135 0 -200 113q-56 -113 -202 -113q-86 0 -134 42.5t-48 109.5q0 66 41 104t138 61zM474 307h310q0 66 -38.5 115.5t-117.5 49.5q-78 0 -116 -52.5t-38 -112.5zM247 239q-68 -19 -92.5 -41t-24.5 -57q0 -83 105 -83q72 0 111 32.5t39 79.5
v132h-2q-14 -29 -136 -63z" />
    <glyph glyph-name="ccedilla" unicode="&#xe7;" horiz-adv-x="557" 
d="M214 -172l30 41q34 -31 74 -31q58 0 58 41q0 20 -15 30t-37 10q-14 0 -28 -4.5t-20 -8.5l-7 -4l-34 18l38 66q-100 6 -161.5 80t-61.5 199q0 129 69 204.5t172 75.5q85 0 144.5 -54t72.5 -140l-77 -16q-12 59 -46 97.5t-94 38.5q-72 0 -116 -54.5t-44 -151.5
q0 -96 43 -151t118 -55q59 0 96 42.5t45 101.5l79 -16q-12 -84 -63.5 -137.5t-128.5 -62.5l-29 -45l1 -1q21 15 54 15q36 0 61 -21t25 -59q0 -40 -31 -64.5t-78 -24.5q-68 0 -109 41z" />
    <glyph glyph-name="egrave" unicode="&#xe8;" horiz-adv-x="580" 
d="M452 163l66 -43q-30 -58 -85.5 -96.5t-136.5 -38.5q-108 0 -177 76.5t-69 203.5t67.5 203.5t174.5 76.5q106 0 172 -75t66 -205v-24h-398q1 -76 42.5 -129t119.5 -53q30 0 56 8.5t40 17t29.5 28t19 25.5t13.5 25zM134 306h315q-2 67 -40 116t-117 49q-77 0 -117 -52.5
t-41 -112.5zM271 595l-108 121h101l78 -121h-71z" />
    <glyph glyph-name="eacute" unicode="&#xe9;" horiz-adv-x="580" 
d="M452 163l66 -43q-30 -58 -85.5 -96.5t-136.5 -38.5q-108 0 -177 76.5t-69 203.5t67.5 203.5t174.5 76.5q106 0 172 -75t66 -205v-24h-398q1 -76 42.5 -129t119.5 -53q30 0 56 8.5t40 17t29.5 28t19 25.5t13.5 25zM134 306h315q-2 67 -40 116t-117 49q-77 0 -117 -52.5
t-41 -112.5zM271 595l78 121h100l-107 -121h-71z" />
    <glyph glyph-name="ecircumflex" unicode="&#xea;" horiz-adv-x="580" 
d="M452 163l66 -43q-30 -58 -85.5 -96.5t-136.5 -38.5q-108 0 -177 76.5t-69 203.5t67.5 203.5t174.5 76.5q106 0 172 -75t66 -205v-24h-398q1 -76 42.5 -129t119.5 -53q30 0 56 8.5t40 17t29.5 28t19 25.5t13.5 25zM134 306h315q-2 67 -40 116t-117 49q-77 0 -117 -52.5
t-41 -112.5zM186 620l66 85h109l66 -85l-48 -38l-73 92l-73 -92z" />
    <glyph glyph-name="edieresis" unicode="&#xeb;" horiz-adv-x="580" 
d="M452 163l66 -43q-30 -58 -85.5 -96.5t-136.5 -38.5q-108 0 -177 76.5t-69 203.5t67.5 203.5t174.5 76.5q106 0 172 -75t66 -205v-24h-398q1 -76 42.5 -129t119.5 -53q30 0 56 8.5t40 17t29.5 28t19 25.5t13.5 25zM134 306h315q-2 67 -40 116t-117 49q-77 0 -117 -52.5
t-41 -112.5zM166 611v91h91v-91h-91zM358 611v91h91v-91h-91z" />
    <glyph glyph-name="igrave" unicode="&#xec;" horiz-adv-x="251" 
d="M95 595l-108 121h101l78 -121h-71zM88 0v530h78v-530h-78z" />
    <glyph glyph-name="iacute" unicode="&#xed;" horiz-adv-x="278" 
d="M92 595l78 121h100l-107 -121h-71zM85 0v530h78v-530h-78z" />
    <glyph glyph-name="icircumflex" unicode="&#xee;" horiz-adv-x="248" 
d="M85 0v530h78v-530h-78zM13 620l66 85h109l66 -85l-48 -38l-73 92l-73 -92z" />
    <glyph glyph-name="idieresis" unicode="&#xef;" horiz-adv-x="262" 
d="M-25 611v91h91v-91h-91zM167 611v91h91v-91h-91zM65 0v530h78v-530h-78z" />
    <glyph glyph-name="eth" unicode="&#xf0;" horiz-adv-x="574" 
d="M316 775q23 -26 52 -63l132 37l13 -43l-118 -33q129 -196 129 -406q0 -137 -63.5 -209.5t-170.5 -72.5q-110 0 -175 73t-65 208q0 132 64 205.5t160 73.5q89 0 137 -52l2 1q-27 83 -84 161l-148 -41l-13 43l131 36q-31 37 -75 80v2h92zM290 58q154 0 154 206
q0 101 -40.5 155.5t-122.5 54.5q-71 0 -112 -52t-41 -158q0 -104 42.5 -155t119.5 -51z" />
    <glyph glyph-name="ntilde" unicode="&#xf1;" horiz-adv-x="587" 
d="M85 0v530h80v-51h2q22 29 63 47.5t86 18.5q86 0 138.5 -53t52.5 -144v-348h-81v322q0 148 -122 148q-62 0 -99.5 -35t-37.5 -97v-338h-82zM208 602h-44q18 94 89 94q27 0 62 -19t52 -19q28 0 36 33h44q-18 -94 -88 -94q-28 0 -63.5 19t-51.5 19q-28 0 -36 -33z" />
    <glyph glyph-name="ograve" unicode="&#xf2;" horiz-adv-x="578" 
d="M291 59q67 0 111.5 54.5t44.5 151.5t-44 151.5t-112 54.5q-70 0 -115 -53.5t-45 -152.5t45 -152.5t115 -53.5zM291 -15q-105 0 -173 74t-68 206q0 130 70 205t171 75q100 0 168.5 -75t68.5 -205q0 -132 -67 -206t-170 -74zM250 595l-108 121h101l78 -121h-71z" />
    <glyph glyph-name="oacute" unicode="&#xf3;" horiz-adv-x="578" 
d="M291 59q67 0 111.5 54.5t44.5 151.5t-44 151.5t-112 54.5q-70 0 -115 -53.5t-45 -152.5t45 -152.5t115 -53.5zM291 -15q-105 0 -173 74t-68 206q0 130 70 205t171 75q100 0 168.5 -75t68.5 -205q0 -132 -67 -206t-170 -74zM262 595l78 121h100l-107 -121h-71z" />
    <glyph glyph-name="ocircumflex" unicode="&#xf4;" horiz-adv-x="578" 
d="M291 59q67 0 111.5 54.5t44.5 151.5t-44 151.5t-112 54.5q-70 0 -115 -53.5t-45 -152.5t45 -152.5t115 -53.5zM291 -15q-105 0 -173 74t-68 206q0 130 70 205t171 75q100 0 168.5 -75t68.5 -205q0 -132 -67 -206t-170 -74zM177 620l66 85h109l66 -85l-48 -38l-73 92
l-73 -92z" />
    <glyph glyph-name="otilde" unicode="&#xf5;" horiz-adv-x="578" 
d="M291 59q67 0 111.5 54.5t44.5 151.5t-44 151.5t-112 54.5q-70 0 -115 -53.5t-45 -152.5t45 -152.5t115 -53.5zM291 -15q-105 0 -173 74t-68 206q0 130 70 205t171 75q100 0 168.5 -75t68.5 -205q0 -132 -67 -206t-170 -74zM202 602h-44q18 94 89 94q27 0 62 -19t52 -19
q28 0 36 33h44q-18 -94 -88 -94q-28 0 -63.5 19t-51.5 19q-28 0 -36 -33z" />
    <glyph glyph-name="odieresis" unicode="&#xf6;" horiz-adv-x="578" 
d="M291 59q67 0 111.5 54.5t44.5 151.5t-44 151.5t-112 54.5q-70 0 -115 -53.5t-45 -152.5t45 -152.5t115 -53.5zM291 -15q-105 0 -173 74t-68 206q0 130 70 205t171 75q100 0 168.5 -75t68.5 -205q0 -132 -67 -206t-170 -74zM157 611v91h91v-91h-91zM349 611v91h91v-91h-91
z" />
    <glyph glyph-name="divide" unicode="&#xf7;" horiz-adv-x="494" 
d="M176 566q0 30 20.5 51t49.5 21q31 0 51.5 -21t20.5 -51q0 -29 -20.5 -49.5t-51.5 -20.5q-29 0 -49.5 20.5t-20.5 49.5zM176 141q0 30 20.5 50.5t49.5 20.5q31 0 51.5 -20.5t20.5 -50.5t-20.5 -50.5t-51.5 -20.5q-29 0 -49.5 20.5t-20.5 50.5zM55 319v70h384v-70h-384z
" />
    <glyph glyph-name="oslash" unicode="&#xf8;" horiz-adv-x="578" 
d="M291 -15q-91 0 -152 54l-39 -50l-33 25l43 55q-60 74 -60 196q0 130 70 205t171 75q84 0 147 -54l39 50l33 -26l-43 -55q61 -75 61 -195q0 -132 -67 -206t-170 -74zM291 59q67 0 111.5 54.5t44.5 151.5q0 79 -30 131l-230 -296q43 -41 104 -41zM131 265q0 -79 30 -131
l230 296q-41 41 -100 41q-70 0 -115 -53.5t-45 -152.5z" />
    <glyph glyph-name="ugrave" unicode="&#xf9;" horiz-adv-x="575" 
d="M80 185v345h82v-333q0 -74 28.5 -105t94.5 -31q60 0 92 37t32 103v329h81v-530h-80v51h-2q-5 -7 -15 -18t-46.5 -29.5t-79.5 -18.5q-88 0 -137.5 50t-49.5 150zM262 595l-108 121h101l78 -121h-71z" />
    <glyph glyph-name="uacute" unicode="&#xfa;" horiz-adv-x="575" 
d="M80 185v345h82v-333q0 -74 28.5 -105t94.5 -31q60 0 92 37t32 103v329h81v-530h-80v51h-2q-5 -7 -15 -18t-46.5 -29.5t-79.5 -18.5q-88 0 -137.5 50t-49.5 150zM252 595l78 121h100l-107 -121h-71z" />
    <glyph glyph-name="ucircumflex" unicode="&#xfb;" horiz-adv-x="575" 
d="M80 185v345h82v-333q0 -74 28.5 -105t94.5 -31q60 0 92 37t32 103v329h81v-530h-80v51h-2q-5 -7 -15 -18t-46.5 -29.5t-79.5 -18.5q-88 0 -137.5 50t-49.5 150zM173 620l66 85h109l66 -85l-48 -38l-73 92l-73 -92z" />
    <glyph glyph-name="udieresis" unicode="&#xfc;" horiz-adv-x="575" 
d="M80 185v345h82v-333q0 -74 28.5 -105t94.5 -31q60 0 92 37t32 103v329h81v-530h-80v51h-2q-5 -7 -15 -18t-46.5 -29.5t-79.5 -18.5q-88 0 -137.5 50t-49.5 150zM150 611v91h91v-91h-91zM342 611v91h91v-91h-91z" />
    <glyph glyph-name="yacute" unicode="&#xfd;" horiz-adv-x="497" 
d="M113 -225l106 281l-199 474h86l150 -366h2l135 366h84l-285 -755h-79zM226 595l78 121h100l-107 -121h-71z" />
    <glyph glyph-name="thorn" unicode="&#xfe;" horiz-adv-x="598" 
d="M85 -225v955h80v-250h2q52 65 149 65q100 0 166 -76.5t66 -203.5q0 -128 -64.5 -204t-169.5 -76q-43 0 -84.5 18.5t-60.5 44.5h-2v-273h-82zM167 342v-168q0 -46 38.5 -80t97.5 -34q79 0 121.5 54t42.5 151t-43 151t-121 54q-61 0 -98.5 -39.5t-37.5 -88.5z" />
    <glyph glyph-name="ydieresis" unicode="&#xff;" horiz-adv-x="497" 
d="M113 -225l106 281l-199 474h86l150 -366h2l135 366h84l-285 -755h-79zM116 611v91h91v-91h-91zM308 611v91h91v-91h-91z" />
    <glyph glyph-name="Amacron" unicode="&#x100;" horiz-adv-x="625" 
d="M20 0l252 700h81l252 -700h-84l-52 137h-314l-51 -137h-84zM180 209h265l-132 380h-2zM170 765v61h288v-61h-288z" />
    <glyph glyph-name="amacron" unicode="&#x101;" horiz-adv-x="540" 
d="M393 0v58h-2q-15 -26 -57 -49.5t-105 -23.5q-88 0 -133.5 43t-45.5 108q0 66 40.5 103.5t137.5 62.5q36 9 53.5 14t40.5 13.5t33 16.5t17.5 20t7.5 27q0 34 -27.5 56.5t-83.5 22.5q-106 0 -129 -105l-74 21q13 70 65 113.5t135 43.5q92 0 145.5 -45.5t53.5 -142.5v-357
h-72zM247 239q-68 -19 -92.5 -41t-24.5 -57q0 -83 105 -83q72 0 111 32.5t39 79.5v132h-2q-14 -29 -136 -63zM132 620v61h288v-61h-288z" />
    <glyph glyph-name="Abreve" unicode="&#x102;" horiz-adv-x="625" 
d="M20 0l252 700h81l252 -700h-84l-52 137h-314l-51 -137h-84zM180 209h265l-132 380h-2zM190 874h44q11 -58 80 -58q36 0 56 16t23 42h46q0 -56 -35 -87.5t-90 -31.5q-56 0 -90 31.5t-34 87.5z" />
    <glyph glyph-name="abreve" unicode="&#x103;" horiz-adv-x="540" 
d="M393 0v58h-2q-15 -26 -57 -49.5t-105 -23.5q-88 0 -133.5 43t-45.5 108q0 66 40.5 103.5t137.5 62.5q36 9 53.5 14t40.5 13.5t33 16.5t17.5 20t7.5 27q0 34 -27.5 56.5t-83.5 22.5q-106 0 -129 -105l-74 21q13 70 65 113.5t135 43.5q92 0 145.5 -45.5t53.5 -142.5v-357
h-72zM247 239q-68 -19 -92.5 -41t-24.5 -57q0 -83 105 -83q72 0 111 32.5t39 79.5v132h-2q-14 -29 -136 -63zM151 704h44q11 -58 80 -58q36 0 56 16t23 42h46q0 -56 -35 -87.5t-90 -31.5q-56 0 -90 31.5t-34 87.5z" />
    <glyph glyph-name="Aogonek" unicode="&#x104;" horiz-adv-x="625" 
d="M637 -119l32 -28q-51 -64 -123 -64q-40 0 -68 17t-28 57q0 75 99 137h-28l-52 137h-314l-51 -137h-84l252 700h81l252 -700q-80 -72 -80 -117q0 -39 46 -39q34 0 66 37zM180 209h265l-132 380h-2z" />
    <glyph glyph-name="aogonek" unicode="&#x105;" horiz-adv-x="540" 
d="M393 0v58h-2q-15 -26 -57 -49.5t-105 -23.5q-88 0 -133.5 43t-45.5 108q0 66 40.5 103.5t137.5 62.5q36 9 53.5 14t40.5 13.5t33 16.5t17.5 20t7.5 27q0 34 -27.5 56.5t-83.5 22.5q-106 0 -129 -105l-74 21q13 70 65 113.5t135 43.5q92 0 145.5 -45.5t53.5 -142.5v-357
q-80 -72 -80 -117q0 -39 46 -39q34 0 66 37l32 -28q-51 -64 -123 -64q-40 0 -68 17t-28 57q0 75 99 137h-16zM247 239q-68 -19 -92.5 -41t-24.5 -57q0 -83 105 -83q72 0 111 32.5t39 79.5v132h-2q-14 -29 -136 -63z" />
    <glyph glyph-name="Cacute" unicode="&#x106;" horiz-adv-x="667" 
d="M352 636q-90 0 -149.5 -71t-59.5 -209q0 -144 58 -218.5t151 -74.5q158 0 178 197l87 -11q-10 -123 -79 -193.5t-186 -70.5q-59 0 -110.5 21t-94 63.5t-67.5 116t-25 170.5q0 171 87 265t210 94q110 0 179 -67t84 -177l-84 -15q-30 180 -179 180zM319 765l79 121h100
l-108 -121h-71z" />
    <glyph glyph-name="cacute" unicode="&#x107;" horiz-adv-x="557" 
d="M433 203l79 -16q-13 -92 -73 -147t-148 -55q-107 0 -174 74.5t-67 205.5q0 129 69 204.5t172 75.5q85 0 144.5 -54t72.5 -140l-77 -16q-12 59 -46 97.5t-94 38.5q-72 0 -116 -54.5t-44 -151.5q0 -96 43 -151t118 -55q59 0 96 42.5t45 101.5zM254 595l78 121h100
l-107 -121h-71z" />
    <glyph glyph-name="Ccircumflex" unicode="&#x108;" horiz-adv-x="667" 
d="M352 636q-90 0 -149.5 -71t-59.5 -209q0 -144 58 -218.5t151 -74.5q158 0 178 197l87 -11q-10 -123 -79 -193.5t-186 -70.5q-59 0 -110.5 21t-94 63.5t-67.5 116t-25 170.5q0 171 87 265t210 94q110 0 179 -67t84 -177l-84 -15q-30 180 -179 180zM229 785l66 85h109
l66 -85l-48 -38l-73 92l-73 -92z" />
    <glyph glyph-name="ccircumflex" unicode="&#x109;" horiz-adv-x="557" 
d="M433 203l79 -16q-13 -92 -73 -147t-148 -55q-107 0 -174 74.5t-67 205.5q0 129 69 204.5t172 75.5q85 0 144.5 -54t72.5 -140l-77 -16q-12 59 -46 97.5t-94 38.5q-72 0 -116 -54.5t-44 -151.5q0 -96 43 -151t118 -55q59 0 96 42.5t45 101.5zM168 620l66 85h109l66 -85
l-48 -38l-73 92l-73 -92z" />
    <glyph glyph-name="Cdotaccent" unicode="&#x10a;" horiz-adv-x="667" 
d="M352 636q-90 0 -149.5 -71t-59.5 -209q0 -144 58 -218.5t151 -74.5q158 0 178 197l87 -11q-10 -123 -79 -193.5t-186 -70.5q-59 0 -110.5 21t-94 63.5t-67.5 116t-25 170.5q0 171 87 265t210 94q110 0 179 -67t84 -177l-84 -15q-30 180 -179 180zM302 765v97h97v-97h-97z
" />
    <glyph glyph-name="cdotaccent" unicode="&#x10b;" horiz-adv-x="557" 
d="M433 203l79 -16q-13 -92 -73 -147t-148 -55q-107 0 -174 74.5t-67 205.5q0 129 69 204.5t172 75.5q85 0 144.5 -54t72.5 -140l-77 -16q-12 59 -46 97.5t-94 38.5q-72 0 -116 -54.5t-44 -151.5q0 -96 43 -151t118 -55q59 0 96 42.5t45 101.5zM242 608v96h97v-96h-97z" />
    <glyph glyph-name="Ccaron" unicode="&#x10c;" horiz-adv-x="667" 
d="M352 636q-90 0 -149.5 -71t-59.5 -209q0 -144 58 -218.5t151 -74.5q158 0 178 197l87 -11q-10 -123 -79 -193.5t-186 -70.5q-59 0 -110.5 21t-94 63.5t-67.5 116t-25 170.5q0 171 87 265t210 94q110 0 179 -67t84 -177l-84 -15q-30 180 -179 180zM298 765l-66 85l47 38
l74 -92l73 92l47 -38l-66 -85h-109z" />
    <glyph glyph-name="ccaron" unicode="&#x10d;" horiz-adv-x="557" 
d="M433 203l79 -16q-13 -92 -73 -147t-148 -55q-107 0 -174 74.5t-67 205.5q0 129 69 204.5t172 75.5q85 0 144.5 -54t72.5 -140l-77 -16q-12 59 -46 97.5t-94 38.5q-72 0 -116 -54.5t-44 -151.5q0 -96 43 -151t118 -55q59 0 96 42.5t45 101.5zM235 594l-66 85l47 38l74 -92
l73 92l47 -38l-66 -85h-109z" />
    <glyph glyph-name="Dcaron" unicode="&#x10e;" horiz-adv-x="667" 
d="M178 76h123q228 0 228 275q0 132 -59.5 202.5t-162.5 70.5h-129v-548zM95 0v700h219q60 0 113 -21t96 -62t68.5 -109.5t25.5 -156.5q0 -96 -26 -167t-71 -109.5t-97.5 -56.5t-114.5 -18h-213zM237 765l-66 85l47 38l74 -92l73 92l47 -38l-66 -85h-109z" />
    <glyph glyph-name="dcaron" unicode="&#x10f;" horiz-adv-x="612" 
d="M429 176v164q0 50 -37 90.5t-99 40.5q-79 0 -120 -54t-41 -152t41 -152t120 -54q58 0 97 35t39 82zM437 0v51h-2q-21 -25 -61.5 -45.5t-93.5 -20.5q-105 0 -167.5 76t-62.5 204q0 127 65.5 203.5t164.5 76.5q91 0 147 -66h2v251h82v-730h-74zM549 579l29 151h79l-52 -151
h-56z" />
    <glyph glyph-name="Dcroat" unicode="&#x110;" horiz-adv-x="686" 
d="M104 0v322h-69v78h69v300h234q128 0 215.5 -89t87.5 -260q0 -97 -25.5 -167.5t-70.5 -109t-98 -56.5t-115 -18h-228zM186 76h138q228 0 228 275q0 136 -59 204.5t-163 68.5h-144v-224h186v-78h-186v-246z" />
    <glyph glyph-name="dcroat" unicode="&#x111;" horiz-adv-x="605" 
d="M437 0v51h-2q-22 -25 -62 -45.5t-93 -20.5q-105 0 -167.5 76t-62.5 204q0 126 64.5 203t165.5 77q91 0 147 -66h2v168h-138v53h138v30h81v-30h65v-53h-65v-647h-73zM429 176v164q0 50 -37.5 90t-99.5 40q-78 0 -119.5 -53.5t-41.5 -151.5t41 -151.5t120 -53.5
q59 0 98 34.5t39 81.5z" />
    <glyph glyph-name="Emacron" unicode="&#x112;" horiz-adv-x="586" 
d="M95 0v700h421v-76h-338v-227h310v-74h-310v-247h338v-76h-421zM165 765v61h288v-61h-288z" />
    <glyph glyph-name="emacron" unicode="&#x113;" horiz-adv-x="580" 
d="M452 163l66 -43q-30 -58 -85.5 -96.5t-136.5 -38.5q-108 0 -177 76.5t-69 203.5t67.5 203.5t174.5 76.5q106 0 172 -75t66 -205v-24h-398q1 -76 42.5 -129t119.5 -53q30 0 56 8.5t40 17t29.5 28t19 25.5t13.5 25zM134 306h315q-2 67 -40 116t-117 49q-77 0 -117 -52.5
t-41 -112.5zM161 620v61h288v-61h-288z" />
    <glyph glyph-name="Ebreve" unicode="&#x114;" horiz-adv-x="586" 
d="M95 0v700h421v-76h-338v-227h310v-74h-310v-247h338v-76h-421zM195 874h44q11 -58 80 -58q36 0 56 16t23 42h46q0 -56 -35 -87.5t-90 -31.5q-56 0 -90 31.5t-34 87.5z" />
    <glyph glyph-name="ebreve" unicode="&#x115;" horiz-adv-x="580" 
d="M452 163l66 -43q-30 -58 -85.5 -96.5t-136.5 -38.5q-108 0 -177 76.5t-69 203.5t67.5 203.5t174.5 76.5q106 0 172 -75t66 -205v-24h-398q1 -76 42.5 -129t119.5 -53q30 0 56 8.5t40 17t29.5 28t19 25.5t13.5 25zM134 306h315q-2 67 -40 116t-117 49q-77 0 -117 -52.5
t-41 -112.5zM178 704h44q11 -58 80 -58q36 0 56 16t23 42h46q0 -56 -35 -87.5t-90 -31.5q-56 0 -90 31.5t-34 87.5z" />
    <glyph glyph-name="Edotaccent" unicode="&#x116;" horiz-adv-x="586" 
d="M95 0v700h421v-76h-338v-227h310v-74h-310v-247h338v-76h-421zM267 765v97h97v-97h-97z" />
    <glyph glyph-name="edotaccent" unicode="&#x117;" horiz-adv-x="580" 
d="M452 163l66 -43q-30 -58 -85.5 -96.5t-136.5 -38.5q-108 0 -177 76.5t-69 203.5t67.5 203.5t174.5 76.5q106 0 172 -75t66 -205v-24h-398q1 -76 42.5 -129t119.5 -53q30 0 56 8.5t40 17t29.5 28t19 25.5t13.5 25zM134 306h315q-2 67 -40 116t-117 49q-77 0 -117 -52.5
t-41 -112.5zM257 608v96h97v-96h-97z" />
    <glyph glyph-name="Eogonek" unicode="&#x118;" horiz-adv-x="586" 
d="M95 0v700h421v-76h-338v-227h310v-74h-310v-247h338v-76h-68q-80 -72 -80 -117q0 -39 46 -39q34 0 66 37l32 -28q-51 -64 -123 -64q-40 0 -68 17t-28 57q0 75 99 137h-297z" />
    <glyph glyph-name="eogonek" unicode="&#x119;" horiz-adv-x="580" 
d="M401 -119l32 -28q-51 -64 -123 -64q-40 0 -68 17t-28 57q0 66 76 122q-106 2 -173 78t-67 202q0 127 67.5 203.5t174.5 76.5q106 0 172 -75t66 -205v-24h-398q1 -76 42.5 -129t119.5 -53q30 0 56 8.5t40 17t29.5 28t19 25.5t13.5 25l66 -43q-52 -103 -157 -127
q-72 -67 -72 -110q0 -39 46 -39q34 0 66 37zM134 306h315q-2 67 -40 116t-117 49q-77 0 -117 -52.5t-41 -112.5z" />
    <glyph glyph-name="Ecaron" unicode="&#x11a;" horiz-adv-x="586" 
d="M95 0v700h421v-76h-338v-227h310v-74h-310v-247h338v-76h-421zM260 765l-66 85l47 38l74 -92l73 92l47 -38l-66 -85h-109z" />
    <glyph glyph-name="ecaron" unicode="&#x11b;" horiz-adv-x="580" 
d="M452 163l66 -43q-30 -58 -85.5 -96.5t-136.5 -38.5q-108 0 -177 76.5t-69 203.5t67.5 203.5t174.5 76.5q106 0 172 -75t66 -205v-24h-398q1 -76 42.5 -129t119.5 -53q30 0 56 8.5t40 17t29.5 28t19 25.5t13.5 25zM134 306h315q-2 67 -40 116t-117 49q-77 0 -117 -52.5
t-41 -112.5zM253 594l-66 85l47 38l74 -92l73 92l47 -38l-66 -85h-109z" />
    <glyph glyph-name="Gcircumflex" unicode="&#x11c;" horiz-adv-x="674" 
d="M351 -15q-60 0 -111.5 21t-94 64t-66.5 116.5t-24 170.5q0 170 86.5 264t209.5 94q103 0 174 -64t88 -167l-83 -15q-35 167 -179 167q-90 0 -149.5 -71t-59.5 -208q0 -143 58.5 -218.5t150.5 -75.5q87 0 137 54.5t48 149.5h-176v76h259v-68q0 -136 -74 -213t-194 -77z
M225 785l66 85h109l66 -85l-48 -38l-73 92l-73 -92z" />
    <glyph glyph-name="gcircumflex" unicode="&#x11d;" horiz-adv-x="593" 
d="M90 -96l69 35q18 -49 49.5 -77.5t89.5 -28.5q64 0 99 37.5t35 104.5v71h-2q-52 -61 -147 -61q-105 0 -169 76t-64 204q0 127 66.5 203.5t165.5 76.5q96 0 149 -66h2v51h80v-538q0 -113 -56.5 -172.5t-156.5 -59.5q-81 0 -134.5 39.5t-75.5 104.5zM432 174v168
q0 49 -37.5 89t-99.5 40q-78 0 -120.5 -54.5t-42.5 -151.5q0 -98 42 -152t121 -54q59 0 98 34.5t39 80.5zM187 620l66 85h109l66 -85l-48 -38l-73 92l-73 -92z" />
    <glyph glyph-name="Gbreve" unicode="&#x11e;" horiz-adv-x="674" 
d="M351 -15q-60 0 -111.5 21t-94 64t-66.5 116.5t-24 170.5q0 170 86.5 264t209.5 94q103 0 174 -64t88 -167l-83 -15q-35 167 -179 167q-90 0 -149.5 -71t-59.5 -208q0 -143 58.5 -218.5t150.5 -75.5q87 0 137 54.5t48 149.5h-176v76h259v-68q0 -136 -74 -213t-194 -77z
M217 874h44q11 -58 80 -58q36 0 56 16t23 42h46q0 -56 -35 -87.5t-90 -31.5q-56 0 -90 31.5t-34 87.5z" />
    <glyph glyph-name="gbreve" unicode="&#x11f;" horiz-adv-x="593" 
d="M90 -96l69 35q18 -49 49.5 -77.5t89.5 -28.5q64 0 99 37.5t35 104.5v71h-2q-52 -61 -147 -61q-105 0 -169 76t-64 204q0 127 66.5 203.5t165.5 76.5q96 0 149 -66h2v51h80v-538q0 -113 -56.5 -172.5t-156.5 -59.5q-81 0 -134.5 39.5t-75.5 104.5zM432 174v168
q0 49 -37.5 89t-99.5 40q-78 0 -120.5 -54.5t-42.5 -151.5q0 -98 42 -152t121 -54q59 0 98 34.5t39 80.5zM181 704h44q11 -58 80 -58q36 0 56 16t23 42h46q0 -56 -35 -87.5t-90 -31.5q-56 0 -90 31.5t-34 87.5z" />
    <glyph glyph-name="Gdotaccent" unicode="&#x120;" horiz-adv-x="674" 
d="M351 -15q-60 0 -111.5 21t-94 64t-66.5 116.5t-24 170.5q0 170 86.5 264t209.5 94q103 0 174 -64t88 -167l-83 -15q-35 167 -179 167q-90 0 -149.5 -71t-59.5 -208q0 -143 58.5 -218.5t150.5 -75.5q87 0 137 54.5t48 149.5h-176v76h259v-68q0 -136 -74 -213t-194 -77z
M296 765v97h97v-97h-97z" />
    <glyph glyph-name="gdotaccent" unicode="&#x121;" horiz-adv-x="593" 
d="M90 -96l69 35q18 -49 49.5 -77.5t89.5 -28.5q64 0 99 37.5t35 104.5v71h-2q-52 -61 -147 -61q-105 0 -169 76t-64 204q0 127 66.5 203.5t165.5 76.5q96 0 149 -66h2v51h80v-538q0 -113 -56.5 -172.5t-156.5 -59.5q-81 0 -134.5 39.5t-75.5 104.5zM432 174v168
q0 49 -37.5 89t-99.5 40q-78 0 -120.5 -54.5t-42.5 -151.5q0 -98 42 -152t121 -54q59 0 98 34.5t39 80.5zM257 608v96h97v-96h-97z" />
    <glyph glyph-name="Gcommaaccent" unicode="&#x122;" horiz-adv-x="674" 
d="M351 -15q-60 0 -111.5 21t-94 64t-66.5 116.5t-24 170.5q0 170 86.5 264t209.5 94q103 0 174 -64t88 -167l-83 -15q-35 167 -179 167q-90 0 -149.5 -71t-59.5 -208q0 -143 58.5 -218.5t150.5 -75.5q87 0 137 54.5t48 149.5h-176v76h259v-68q0 -136 -74 -213t-194 -77z
M310 -229v35q28 4 38.5 16t10.5 35h-50v89h102v-75q0 -48 -23.5 -72.5t-77.5 -27.5z" />
    <glyph glyph-name="gcommaaccent" unicode="&#x123;" horiz-adv-x="593" 
d="M90 -96l69 35q18 -49 49.5 -77.5t89.5 -28.5q64 0 99 37.5t35 104.5v71h-2q-52 -61 -147 -61q-105 0 -169 76t-64 204q0 127 66.5 203.5t165.5 76.5q96 0 149 -66h2v51h80v-538q0 -113 -56.5 -172.5t-156.5 -59.5q-81 0 -134.5 39.5t-75.5 104.5zM432 174v168
q0 49 -37.5 89t-99.5 40q-78 0 -120.5 -54.5t-42.5 -151.5q0 -98 42 -152t121 -54q59 0 98 34.5t39 80.5zM349 777v-32q-36 -5 -36 -45h41v-91h-93v78q0 83 88 90z" />
    <glyph glyph-name="Hcircumflex" unicode="&#x124;" horiz-adv-x="668" 
d="M95 0v700h83v-301h313v301h82v-700h-82v325h-313v-325h-83zM213 785l66 85h109l66 -85l-48 -38l-73 92l-73 -92z" />
    <glyph glyph-name="hcircumflex" unicode="&#x125;" horiz-adv-x="594" 
d="M85 0v730h82v-253h2q22 30 64.5 49t90.5 19q85 0 137.5 -51.5t52.5 -147.5v-346h-82v324q0 146 -123 146q-65 0 -103.5 -38t-38.5 -99v-333h-82zM211 620l66 85h109l66 -85l-48 -38l-73 92l-73 -92z" />
    <glyph glyph-name="Hbar" unicode="&#x126;" horiz-adv-x="688" 
d="M110 0v513h-50v63h50v124h65v-124h337v124h65v-124h50v-63h-50v-513h-65v333h-337v-333h-65zM175 393h337v120h-337v-120z" />
    <glyph glyph-name="hbar" unicode="&#x127;" horiz-adv-x="580" 
d="M97 0v647h-67v53h67v30h82v-30h137v-53h-137v-168h2q22 30 59.5 48t80.5 18q83 0 136 -53.5t53 -145.5v-346h-82v324q0 146 -122 146q-60 0 -93.5 -37.5t-33.5 -99.5v-333h-82z" />
    <glyph glyph-name="Itilde" unicode="&#x128;" horiz-adv-x="283" 
d="M100 0v700h83v-700h-83zM36 765h-44q17 93 89 93q27 0 62 -18.5t52 -18.5q28 0 36 32h44q-17 -93 -88 -93q-28 0 -63.5 18.5t-51.5 18.5q-28 0 -36 -32z" />
    <glyph glyph-name="itilde" unicode="&#x129;" horiz-adv-x="255" 
d="M15 602h-44q18 94 89 94q27 0 62 -19t52 -19q28 0 36 33h44q-18 -94 -88 -94q-28 0 -63.5 19t-51.5 19q-28 0 -36 -33zM66 0v530h78v-530h-78z" />
    <glyph glyph-name="Imacron" unicode="&#x12a;" horiz-adv-x="283" 
d="M100 0v700h83v-700h-83zM-11 765v61h288v-61h-288z" />
    <glyph glyph-name="imacron" unicode="&#x12b;" horiz-adv-x="300" 
d="M-9 620v61h288v-61h-288zM84 0v530h78v-530h-78z" />
    <glyph glyph-name="Ibreve" unicode="&#x12c;" horiz-adv-x="283" 
d="M100 0v700h83v-700h-83zM9 874h44q11 -58 80 -58q36 0 56 16t23 42h46q0 -56 -35 -87.5t-90 -31.5q-56 0 -90 31.5t-34 87.5z" />
    <glyph glyph-name="ibreve" unicode="&#x12d;" horiz-adv-x="280" 
d="M16 704h44q11 -58 80 -58q36 0 56 16t23 42h46q0 -56 -35 -87.5t-90 -31.5q-56 0 -90 31.5t-34 87.5zM89 0v530h78v-530h-78z" />
    <glyph glyph-name="Iogonek" unicode="&#x12e;" horiz-adv-x="283" 
d="M100 0v700h83v-700q-80 -72 -80 -117q0 -39 46 -39q34 0 66 37l32 -28q-51 -64 -123 -64q-40 0 -68 17t-28 57q0 75 99 137h-27z" />
    <glyph glyph-name="iogonek" unicode="&#x12f;" horiz-adv-x="274" 
d="M118 0v530h82v-530q-80 -72 -80 -117q0 -39 46 -39q34 0 66 37l32 -28q-51 -64 -123 -64q-40 0 -68 17t-28 57q0 75 99 137h-26zM112 637v93h94v-93h-94z" />
    <glyph glyph-name="Idotaccent" unicode="&#x130;" horiz-adv-x="283" 
d="M100 0v700h83v-700h-83zM87 765v97h97v-97h-97z" />
    <glyph glyph-name="dotlessi" unicode="&#x131;" horiz-adv-x="248" 
d="M85 0v530h78v-530h-78z" />
    <glyph glyph-name="IJ" unicode="&#x132;" horiz-adv-x="675" 
d="M100 0v700h83v-700h-83zM248 150l80 22q9 -50 30 -80t63 -29q47 1 64.5 27.5t17.5 92.5v517h82v-521q0 -99 -40.5 -145.5t-124.5 -48.5q-74 -1 -117 44.5t-55 120.5z" />
    <glyph glyph-name="ij" unicode="&#x133;" horiz-adv-x="481" 
d="M76 0v530h82v-530h-82zM70 637v93h94v-93h-94zM233 -195v78h17q23 0 34 11.5t11 44.5v591h82v-593q0 -72 -28 -102t-83 -30h-33zM288 637v93h93v-93h-93z" />
    <glyph glyph-name="Jcircumflex" unicode="&#x134;" horiz-adv-x="452" 
d="M25 150l80 22q9 -50 30 -80t63 -29q47 1 64.5 27.5t17.5 92.5v517h82v-521q0 -99 -40.5 -145.5t-124.5 -48.5q-74 -1 -117 44.5t-55 120.5zM192 785l66 85h109l66 -85l-48 -38l-73 92l-73 -92z" />
    <glyph glyph-name="jcircumflex" unicode="&#x135;" horiz-adv-x="248" 
d="M25 -195v75h16q23 0 34.5 11t11.5 45v594h81v-593q0 -72 -28 -102t-83 -30h-32zM7 620l66 85h109l66 -85l-48 -38l-73 92l-73 -92z" />
    <glyph glyph-name="Kcommaaccent" unicode="&#x136;" horiz-adv-x="591" 
d="M85 0v700h83v-342h2l284 342h104l-256 -306l284 -394h-100l-239 332h-2l-77 -90v-242h-83zM257 -229v35q28 4 38.5 16t10.5 35h-50v89h102v-75q0 -48 -23.5 -72.5t-77.5 -27.5z" />
    <glyph glyph-name="kcommaaccent" unicode="&#x137;" horiz-adv-x="540" 
d="M85 0v730h82v-443h2l223 243h109l-194 -210l218 -320h-95l-182 269h-2l-79 -85v-184h-82zM232 -229v35q28 4 38.5 16t10.5 35h-50v89h102v-75q0 -48 -23.5 -72.5t-77.5 -27.5z" />
    <glyph glyph-name="kgreenlandic" unicode="&#x138;" horiz-adv-x="540" 
d="M85 0v530h82v-243l225 243h109l-194 -210l218 -320h-95l-184 269l-79 -85v-184h-82z" />
    <glyph glyph-name="Lacute" unicode="&#x139;" horiz-adv-x="512" 
d="M95 0v700h83v-624h304v-76h-387zM127 765l79 121h100l-108 -121h-71z" />
    <glyph glyph-name="lacute" unicode="&#x13a;" horiz-adv-x="253" 
d="M85 0v730h83v-730h-83zM89 770l79 121h100l-108 -121h-71z" />
    <glyph glyph-name="Lcommaaccent" unicode="&#x13b;" horiz-adv-x="512" 
d="M95 0v700h83v-624h304v-76h-387zM236 -229v35q28 4 38.5 16t10.5 35h-50v89h102v-75q0 -48 -23.5 -72.5t-77.5 -27.5z" />
    <glyph glyph-name="lcommaaccent" unicode="&#x13c;" horiz-adv-x="253" 
d="M85 0v730h83v-730h-83zM71 -229v35q28 4 38.5 16t10.5 35h-50v89h102v-75q0 -48 -23.5 -72.5t-77.5 -27.5z" />
    <glyph glyph-name="Lcaron" unicode="&#x13d;" horiz-adv-x="512" 
d="M95 0v700h83v-624h304v-76h-387zM335 579l29 151h79l-52 -151h-56z" />
    <glyph glyph-name="lcaron" unicode="&#x13e;" horiz-adv-x="276" 
d="M85 0v730h83v-730h-83zM218 579l29 151h79l-52 -151h-56z" />
    <glyph glyph-name="Ldot" unicode="&#x13f;" horiz-adv-x="512" 
d="M95 0v700h83v-624h304v-76h-387zM296 322v118h118v-118h-118z" />
    <glyph glyph-name="ldot" unicode="&#x140;" horiz-adv-x="360" 
d="M85 0v730h83v-730h-83zM242 322v118h118v-118h-118z" />
    <glyph glyph-name="Lslash" unicode="&#x141;" horiz-adv-x="571" 
d="M117 0v328l-72 -72l-35 35l107 107v302h83v-229l111 111l34 -35l-145 -146v-325h341v-76h-424z" />
    <glyph glyph-name="lslash" unicode="&#x142;" horiz-adv-x="278" 
d="M99 0v381l-79 -78l-35 35l114 113v279h81v-211l79 78l34 -35l-113 -114v-448h-81z" />
    <glyph glyph-name="Nacute" unicode="&#x143;" horiz-adv-x="683" 
d="M95 0v700h90l319 -563h2v563h82v-700h-87l-321 563h-2v-563h-83zM313 765l79 121h100l-108 -121h-71z" />
    <glyph glyph-name="nacute" unicode="&#x144;" horiz-adv-x="587" 
d="M85 0v530h80v-51h2q22 29 63 47.5t86 18.5q86 0 138.5 -53t52.5 -144v-348h-81v322q0 148 -122 148q-62 0 -99.5 -35t-37.5 -97v-338h-82zM294 595l78 121h100l-107 -121h-71z" />
    <glyph glyph-name="Ncommaaccent" unicode="&#x145;" horiz-adv-x="683" 
d="M95 0v700h90l319 -563h2v563h82v-700h-87l-321 563h-2v-563h-83zM296 -229v35q28 4 38.5 16t10.5 35h-50v89h102v-75q0 -48 -23.5 -72.5t-77.5 -27.5z" />
    <glyph glyph-name="ncommaaccent" unicode="&#x146;" horiz-adv-x="587" 
d="M85 0v530h80v-51h2q22 29 63 47.5t86 18.5q86 0 138.5 -53t52.5 -144v-348h-81v322q0 148 -122 148q-62 0 -99.5 -35t-37.5 -97v-338h-82zM248 -229v35q28 4 38.5 16t10.5 35h-50v89h102v-75q0 -48 -23.5 -72.5t-77.5 -27.5z" />
    <glyph glyph-name="Ncaron" unicode="&#x147;" horiz-adv-x="683" 
d="M95 0v700h90l319 -563h2v563h82v-700h-87l-321 563h-2v-563h-83zM290 765l-66 85l47 38l74 -92l73 92l47 -38l-66 -85h-109z" />
    <glyph glyph-name="ncaron" unicode="&#x148;" horiz-adv-x="587" 
d="M85 0v530h80v-51h2q22 29 63 47.5t86 18.5q86 0 138.5 -53t52.5 -144v-348h-81v322q0 148 -122 148q-62 0 -99.5 -35t-37.5 -97v-338h-82zM261 594l-66 85l47 38l74 -92l73 92l47 -38l-66 -85h-109z" />
    <glyph glyph-name="Eng" unicode="&#x14a;" horiz-adv-x="686" 
d="M95 0v700h78l334 -543h2v543h82v-772q0 -67 -29.5 -97.5t-92.5 -30.5h-41v81h37q27 0 38.5 13t11.5 49v62l-335 538h-2v-543h-83z" />
    <glyph glyph-name="eng" unicode="&#x14b;" horiz-adv-x="580" 
d="M85 0v530h80v-51h2q50 66 140 66q87 0 140 -57.5t53 -155.5v-402q0 -73 -28 -103t-83 -30h-37v77h22q23 0 34 11t11 45v392q0 70 -31.5 109t-92.5 39q-60 0 -94 -38t-34 -101v-331h-82z" />
    <glyph glyph-name="Omacron" unicode="&#x14c;" horiz-adv-x="700" 
d="M352 63q91 0 148 73t57 216q0 138 -58.5 211t-146.5 73q-90 0 -149.5 -71t-59.5 -209q0 -144 58 -218.5t151 -74.5zM352 -15q-59 0 -110.5 21t-94 63.5t-67.5 116t-25 170.5q0 171 87 265t210 94q120 0 206.5 -96t86.5 -267q0 -97 -24.5 -170t-66.5 -114.5t-93 -62
t-109 -20.5zM213 765v61h288v-61h-288z" />
    <glyph glyph-name="omacron" unicode="&#x14d;" horiz-adv-x="578" 
d="M291 59q67 0 111.5 54.5t44.5 151.5t-44 151.5t-112 54.5q-70 0 -115 -53.5t-45 -152.5t45 -152.5t115 -53.5zM291 -15q-105 0 -173 74t-68 206q0 130 70 205t171 75q100 0 168.5 -75t68.5 -205q0 -132 -67 -206t-170 -74zM152 620v61h288v-61h-288z" />
    <glyph glyph-name="Obreve" unicode="&#x14e;" horiz-adv-x="700" 
d="M352 63q91 0 148 73t57 216q0 138 -58.5 211t-146.5 73q-90 0 -149.5 -71t-59.5 -209q0 -144 58 -218.5t151 -74.5zM352 -15q-59 0 -110.5 21t-94 63.5t-67.5 116t-25 170.5q0 171 87 265t210 94q120 0 206.5 -96t86.5 -267q0 -97 -24.5 -170t-66.5 -114.5t-93 -62
t-109 -20.5zM232 874h44q11 -58 80 -58q36 0 56 16t23 42h46q0 -56 -35 -87.5t-90 -31.5q-56 0 -90 31.5t-34 87.5z" />
    <glyph glyph-name="obreve" unicode="&#x14f;" horiz-adv-x="578" 
d="M291 59q67 0 111.5 54.5t44.5 151.5t-44 151.5t-112 54.5q-70 0 -115 -53.5t-45 -152.5t45 -152.5t115 -53.5zM291 -15q-105 0 -173 74t-68 206q0 130 70 205t171 75q100 0 168.5 -75t68.5 -205q0 -132 -67 -206t-170 -74zM172 704h44q11 -58 80 -58q36 0 56 16t23 42h46
q0 -56 -35 -87.5t-90 -31.5q-56 0 -90 31.5t-34 87.5z" />
    <glyph glyph-name="Ohungarumlaut" unicode="&#x150;" horiz-adv-x="700" 
d="M352 63q91 0 148 73t57 216q0 138 -58.5 211t-146.5 73q-90 0 -149.5 -71t-59.5 -209q0 -144 58 -218.5t151 -74.5zM352 -15q-59 0 -110.5 21t-94 63.5t-67.5 116t-25 170.5q0 171 87 265t210 94q120 0 206.5 -96t86.5 -267q0 -97 -24.5 -170t-66.5 -114.5t-93 -62
t-109 -20.5zM255 765l75 115h92l-104 -115h-63zM391 765l75 115h92l-104 -115h-63z" />
    <glyph glyph-name="ohungarumlaut" unicode="&#x151;" horiz-adv-x="578" 
d="M291 59q67 0 111.5 54.5t44.5 151.5t-44 151.5t-112 54.5q-70 0 -115 -53.5t-45 -152.5t45 -152.5t115 -53.5zM291 -15q-105 0 -173 74t-68 206q0 130 70 205t171 75q100 0 168.5 -75t68.5 -205q0 -132 -67 -206t-170 -74zM196 599l75 115h92l-104 -115h-63zM332 599
l75 115h92l-104 -115h-63z" />
    <glyph glyph-name="OE" unicode="&#x152;" horiz-adv-x="1007" 
d="M524 0v47q-67 -62 -170 -62q-59 0 -111 21t-95 63.5t-68 116t-25 170.5q0 87 25.5 157t68 113.5t95 66t110.5 22.5q95 0 170 -62v47h413v-76h-326v-219h298v-73h-298v-256h326v-76h-413zM524 146v407q-57 83 -167 83q-93 0 -153 -70.5t-60 -209.5q0 -145 59 -219t154 -74
q112 0 167 83z" />
    <glyph glyph-name="oe" unicode="&#x153;" horiz-adv-x="976" 
d="M855 173l64 -36q-24 -64 -82.5 -108t-141.5 -44q-66 0 -120.5 31t-85.5 88q-63 -119 -198 -119q-105 0 -173 74t-68 206q0 130 70 205t171 75q61 0 112.5 -31t83.5 -89q31 58 83 89t118 31q107 0 172.5 -74t65.5 -206v-24h-397q1 -76 43.5 -129t120.5 -53q39 0 68.5 11
t48 31.5t27 35t18.5 36.5zM291 59q67 0 111.5 54.5t44.5 151.5t-44 151.5t-112 54.5q-70 0 -115 -54t-45 -152q0 -99 45 -152.5t115 -53.5zM530 307h315q0 65 -38.5 115t-118.5 50q-41 0 -73 -16.5t-49.5 -42.5t-26.5 -53t-9 -53z" />
    <glyph glyph-name="Racute" unicode="&#x154;" horiz-adv-x="643" 
d="M95 0v700h269q109 0 171.5 -52.5t62.5 -155.5q0 -84 -46.5 -135t-125.5 -65l156 -292h-93l-152 286h-159v-286h-83zM178 360h181q70 0 113 31.5t43 100.5q0 132 -158 132h-179v-264zM258 765l79 121h100l-108 -121h-71z" />
    <glyph glyph-name="racute" unicode="&#x155;" horiz-adv-x="351" 
d="M85 0v530h78v-57h2q16 32 47 49t63 17q12 0 23.5 -2.5t17.5 -4.5l5 -3l-15 -81q-15 8 -42 8q-51 0 -74 -33.5t-23 -107.5v-315h-82zM152 595l78 121h100l-107 -121h-71z" />
    <glyph glyph-name="Rcommaaccent" unicode="&#x156;" horiz-adv-x="643" 
d="M95 0v700h269q109 0 171.5 -52.5t62.5 -155.5q0 -84 -46.5 -135t-125.5 -65l156 -292h-93l-152 286h-159v-286h-83zM178 360h181q70 0 113 31.5t43 100.5q0 132 -158 132h-179v-264zM271 -229v35q28 4 38.5 16t10.5 35h-50v89h102v-75q0 -48 -23.5 -72.5t-77.5 -27.5z
" />
    <glyph glyph-name="rcommaaccent" unicode="&#x157;" horiz-adv-x="351" 
d="M85 0v530h78v-57h2q16 32 47 49t63 17q12 0 23.5 -2.5t17.5 -4.5l5 -3l-15 -81q-15 8 -42 8q-51 0 -74 -33.5t-23 -107.5v-315h-82zM83 -229v35q28 4 38.5 16t10.5 35h-50v89h102v-75q0 -48 -23.5 -72.5t-77.5 -27.5z" />
    <glyph glyph-name="Rcaron" unicode="&#x158;" horiz-adv-x="643" 
d="M95 0v700h269q109 0 171.5 -52.5t62.5 -155.5q0 -84 -46.5 -135t-125.5 -65l156 -292h-93l-152 286h-159v-286h-83zM178 360h181q70 0 113 31.5t43 100.5q0 132 -158 132h-179v-264zM258 765l-66 85l47 38l74 -92l73 92l47 -38l-66 -85h-109z" />
    <glyph glyph-name="rcaron" unicode="&#x159;" horiz-adv-x="351" 
d="M85 0v530h78v-57h2q16 32 47 49t63 17q12 0 23.5 -2.5t17.5 -4.5l5 -3l-15 -81q-15 8 -42 8q-51 0 -74 -33.5t-23 -107.5v-315h-82zM139 594l-66 85l47 38l74 -92l73 92l47 -38l-66 -85h-109z" />
    <glyph glyph-name="Sacute" unicode="&#x15a;" horiz-adv-x="615" 
d="M50 241l87 17q15 -102 57.5 -148.5t139.5 -46.5q78 0 118 35t40 86q0 50 -36 79t-157 69q-116 37 -166.5 81.5t-50.5 117.5q0 76 59.5 130t160.5 54q99 0 165 -49t79 -144l-84 -18q-12 64 -48.5 98t-111.5 34q-66 0 -101 -30t-35 -75q0 -40 32 -65t142 -61
q139 -45 187 -91t48 -126q0 -86 -65 -144.5t-179 -58.5q-249 0 -281 256zM292 765l79 121h100l-108 -121h-71z" />
    <glyph glyph-name="sacute" unicode="&#x15b;" horiz-adv-x="517" 
d="M45 180l77 15q15 -139 147 -139q63 0 94.5 23t31.5 61q0 40 -29.5 60t-123.5 46q-98 27 -138 61t-40 92q0 59 49 102.5t135 43.5q87 0 138 -41.5t68 -110.5l-71 -19q-31 101 -135 101q-52 0 -80 -22t-28 -52q0 -33 27 -49t124 -44q103 -29 141.5 -66.5t39.5 -101.5
q0 -63 -50.5 -109t-151.5 -46q-105 0 -160.5 54.5t-64.5 140.5zM224 595l78 121h100l-107 -121h-71z" />
    <glyph glyph-name="Scircumflex" unicode="&#x15c;" horiz-adv-x="615" 
d="M50 241l87 17q15 -102 57.5 -148.5t139.5 -46.5q78 0 118 35t40 86q0 50 -36 79t-157 69q-116 37 -166.5 81.5t-50.5 117.5q0 76 59.5 130t160.5 54q99 0 165 -49t79 -144l-84 -18q-12 64 -48.5 98t-111.5 34q-66 0 -101 -30t-35 -75q0 -40 32 -65t142 -61
q139 -45 187 -91t48 -126q0 -86 -65 -144.5t-179 -58.5q-249 0 -281 256zM206 785l66 85h109l66 -85l-48 -38l-73 92l-73 -92z" />
    <glyph glyph-name="scircumflex" unicode="&#x15d;" horiz-adv-x="517" 
d="M45 180l77 15q15 -139 147 -139q63 0 94.5 23t31.5 61q0 40 -29.5 60t-123.5 46q-98 27 -138 61t-40 92q0 59 49 102.5t135 43.5q87 0 138 -41.5t68 -110.5l-71 -19q-31 101 -135 101q-52 0 -80 -22t-28 -52q0 -33 27 -49t124 -44q103 -29 141.5 -66.5t39.5 -101.5
q0 -63 -50.5 -109t-151.5 -46q-105 0 -160.5 54.5t-64.5 140.5zM143 620l66 85h109l66 -85l-48 -38l-73 92l-73 -92z" />
    <glyph glyph-name="Scedilla" unicode="&#x15e;" horiz-adv-x="615" 
d="M245 -172l30 41q34 -31 74 -31q58 0 58 41q0 20 -15 30t-37 10q-14 0 -28 -4.5t-21 -8.5l-6 -4l-34 18l38 66q-223 13 -254 255l87 17q15 -102 57.5 -148.5t139.5 -46.5q78 0 118 35t40 86q0 50 -36 79t-157 69q-116 37 -166.5 81.5t-50.5 117.5q0 76 59.5 130t160.5 54
q99 0 165 -49t79 -144l-84 -18q-12 64 -48.5 98t-111.5 34q-66 0 -101 -30t-35 -75q0 -40 32 -65t142 -61q139 -45 187 -91t48 -126q0 -82 -59.5 -139.5t-165.5 -62.5l-28 -44l1 -1q21 15 54 15q36 0 61 -21t25 -59q0 -40 -31 -64.5t-78 -24.5q-68 0 -109 41z" />
    <glyph glyph-name="scedilla" unicode="&#x15f;" horiz-adv-x="517" 
d="M180 -172l30 41q34 -31 74 -31q58 0 58 41q0 20 -15 30t-37 10q-14 0 -28 -4.5t-20 -8.5l-7 -4l-34 18l39 67q-90 8 -138.5 61t-56.5 132l77 15q15 -139 147 -139q63 0 94.5 23t31.5 61q0 40 -29.5 60t-123.5 46q-98 27 -138 61t-40 92q0 59 49 102.5t135 43.5
q87 0 138 -41.5t68 -110.5l-71 -19q-31 101 -135 101q-52 0 -80 -22t-28 -52q0 -33 27 -49t124 -44q103 -29 141.5 -66.5t39.5 -101.5q0 -61 -46.5 -106t-140.5 -49l-28 -43l1 -1q21 15 54 15q36 0 61 -21t25 -59q0 -40 -31 -64.5t-78 -24.5q-68 0 -109 41z" />
    <glyph glyph-name="Scaron" unicode="&#x160;" horiz-adv-x="615" 
d="M50 241l87 17q15 -102 57.5 -148.5t139.5 -46.5q78 0 118 35t40 86q0 50 -36 79t-157 69q-116 37 -166.5 81.5t-50.5 117.5q0 76 59.5 130t160.5 54q99 0 165 -49t79 -144l-84 -18q-12 64 -48.5 98t-111.5 34q-66 0 -101 -30t-35 -75q0 -40 32 -65t142 -61
q139 -45 187 -91t48 -126q0 -86 -65 -144.5t-179 -58.5q-249 0 -281 256zM269 765l-66 85l47 38l74 -92l73 92l47 -38l-66 -85h-109z" />
    <glyph glyph-name="scaron" unicode="&#x161;" horiz-adv-x="517" 
d="M45 180l77 15q15 -139 147 -139q63 0 94.5 23t31.5 61q0 40 -29.5 60t-123.5 46q-98 27 -138 61t-40 92q0 59 49 102.5t135 43.5q87 0 138 -41.5t68 -110.5l-71 -19q-31 101 -135 101q-52 0 -80 -22t-28 -52q0 -33 27 -49t124 -44q103 -29 141.5 -66.5t39.5 -101.5
q0 -63 -50.5 -109t-151.5 -46q-105 0 -160.5 54.5t-64.5 140.5zM206 594l-66 85l47 38l74 -92l73 92l47 -38l-66 -85h-109z" />
    <glyph glyph-name="Tcommaaccent" unicode="&#x162;" horiz-adv-x="565" 
d="M242 0v624h-217v76h515v-76h-216v-624h-82zM240 -229v35q28 4 38.5 16t10.5 35h-50v89h102v-75q0 -48 -23.5 -72.5t-77.5 -27.5z" />
    <glyph glyph-name="tcommaaccent" unicode="&#x163;" horiz-adv-x="360" 
d="M104 154v303h-74v73h76v130h78v-130h131v-73h-130v-293q0 -47 13 -66t52 -19h40v-79h-44q-75 0 -108.5 38.5t-33.5 115.5zM139 -229v35q28 4 38.5 16t10.5 35h-50v89h102v-75q0 -48 -23.5 -72.5t-77.5 -27.5z" />
    <glyph glyph-name="Tcaron" unicode="&#x164;" horiz-adv-x="565" 
d="M242 0v624h-217v76h515v-76h-216v-624h-82zM237 765l-66 85l47 38l74 -92l73 92l47 -38l-66 -85h-109z" />
    <glyph glyph-name="tcaron" unicode="&#x165;" horiz-adv-x="360" 
d="M104 154v303h-74v73h76v130h78v-130h131v-73h-130v-293q0 -47 13 -66t52 -19h40v-79h-44q-75 0 -108.5 38.5t-33.5 115.5zM259 579l29 151h79l-52 -151h-56z" />
    <glyph glyph-name="Tbar" unicode="&#x166;" horiz-adv-x="565" 
d="M242 0v328h-137v68h137v228h-217v76h515v-76h-216v-228h137v-68h-137v-328h-82z" />
    <glyph glyph-name="tbar" unicode="&#x167;" horiz-adv-x="360" 
d="M104 154v95h-74v63h74v145h-74v73h76v130h78v-130h131v-73h-130v-145h130v-63h-130v-85q0 -47 13 -66t52 -19h40v-79h-44q-75 0 -108.5 38.5t-33.5 115.5z" />
    <glyph glyph-name="Utilde" unicode="&#x168;" horiz-adv-x="657" 
d="M80 228v472h83v-466q0 -171 165 -171q82 0 124.5 43.5t42.5 125.5v468h82v-472q0 -120 -65.5 -181.5t-183.5 -61.5t-183 61.5t-65 181.5zM240 765h-44q17 93 89 93q27 0 62 -18.5t52 -18.5q28 0 36 32h44q-17 -93 -88 -93q-28 0 -63.5 18.5t-51.5 18.5q-28 0 -36 -32z
" />
    <glyph glyph-name="utilde" unicode="&#x169;" horiz-adv-x="575" 
d="M80 185v345h82v-333q0 -74 28.5 -105t94.5 -31q60 0 92 37t32 103v329h81v-530h-80v51h-2q-5 -7 -15 -18t-46.5 -29.5t-79.5 -18.5q-88 0 -137.5 50t-49.5 150zM194 602h-44q18 94 89 94q27 0 62 -19t52 -19q28 0 36 33h44q-18 -94 -88 -94q-28 0 -63.5 19t-51.5 19
q-28 0 -36 -33z" />
    <glyph glyph-name="Umacron" unicode="&#x16a;" horiz-adv-x="657" 
d="M80 228v472h83v-466q0 -171 165 -171q82 0 124.5 43.5t42.5 125.5v468h82v-472q0 -120 -65.5 -181.5t-183.5 -61.5t-183 61.5t-65 181.5zM191 765v61h288v-61h-288z" />
    <glyph glyph-name="umacron" unicode="&#x16b;" horiz-adv-x="575" 
d="M80 185v345h82v-333q0 -74 28.5 -105t94.5 -31q60 0 92 37t32 103v329h81v-530h-80v51h-2q-5 -7 -15 -18t-46.5 -29.5t-79.5 -18.5q-88 0 -137.5 50t-49.5 150zM146 620v61h288v-61h-288z" />
    <glyph glyph-name="Ubreve" unicode="&#x16c;" horiz-adv-x="657" 
d="M80 228v472h83v-466q0 -171 165 -171q82 0 124.5 43.5t42.5 125.5v468h82v-472q0 -120 -65.5 -181.5t-183.5 -61.5t-183 61.5t-65 181.5zM211 874h44q11 -58 80 -58q36 0 56 16t23 42h46q0 -56 -35 -87.5t-90 -31.5q-56 0 -90 31.5t-34 87.5z" />
    <glyph glyph-name="ubreve" unicode="&#x16d;" horiz-adv-x="575" 
d="M80 185v345h82v-333q0 -74 28.5 -105t94.5 -31q60 0 92 37t32 103v329h81v-530h-80v51h-2q-5 -7 -15 -18t-46.5 -29.5t-79.5 -18.5q-88 0 -137.5 50t-49.5 150zM167 704h44q11 -58 80 -58q36 0 56 16t23 42h46q0 -56 -35 -87.5t-90 -31.5q-56 0 -90 31.5t-34 87.5z" />
    <glyph glyph-name="Uring" unicode="&#x16e;" horiz-adv-x="657" 
d="M80 228v472h83v-466q0 -171 165 -171q82 0 124.5 43.5t42.5 125.5v468h82v-472q0 -120 -65.5 -181.5t-183.5 -61.5t-183 61.5t-65 181.5zM341 684q-43 0 -70.5 29.5t-27.5 72.5q0 42 28 72t70 30q43 0 70.5 -29.5t27.5 -72.5q0 -44 -27.5 -73t-70.5 -29zM341 729
q20 0 34 15t14 43t-14 42.5t-34 14.5t-33.5 -14.5t-13.5 -42.5t14 -43t33 -15z" />
    <glyph glyph-name="uring" unicode="&#x16f;" horiz-adv-x="575" 
d="M80 185v345h82v-333q0 -74 28.5 -105t94.5 -31q60 0 92 37t32 103v329h81v-530h-80v51h-2q-5 -7 -15 -18t-46.5 -29.5t-79.5 -18.5q-88 0 -137.5 50t-49.5 150zM289 523q-43 0 -70.5 29t-27.5 73q0 42 28 72t70 30q43 0 70.5 -29.5t27.5 -72.5q0 -45 -27.5 -73.5
t-70.5 -28.5zM289 567q20 0 34 15.5t14 43.5q0 27 -14 41.5t-34 14.5t-33.5 -14t-13.5 -42t14 -43.5t33 -15.5z" />
    <glyph glyph-name="Uhungarumlaut" unicode="&#x170;" horiz-adv-x="657" 
d="M80 228v472h83v-466q0 -171 165 -171q82 0 124.5 43.5t42.5 125.5v468h82v-472q0 -120 -65.5 -181.5t-183.5 -61.5t-183 61.5t-65 181.5zM238 765l75 115h92l-104 -115h-63zM374 765l75 115h92l-104 -115h-63z" />
    <glyph glyph-name="uhungarumlaut" unicode="&#x171;" horiz-adv-x="575" 
d="M80 185v345h82v-333q0 -74 28.5 -105t94.5 -31q60 0 92 37t32 103v329h81v-530h-80v51h-2q-5 -7 -15 -18t-46.5 -29.5t-79.5 -18.5q-88 0 -137.5 50t-49.5 150zM187 611l75 115h92l-104 -115h-63zM323 611l75 115h92l-104 -115h-63z" />
    <glyph glyph-name="Uogonek" unicode="&#x172;" horiz-adv-x="657" 
d="M431 -119l32 -28q-51 -64 -123 -64q-40 0 -68 17t-28 57q0 66 76 122q-115 2 -177.5 63.5t-62.5 179.5v472h83v-466q0 -171 165 -171q82 0 124.5 43.5t42.5 125.5v468h82v-472q0 -104 -49 -164t-140 -74q-69 -65 -69 -107q0 -39 46 -39q34 0 66 37z" />
    <glyph glyph-name="uogonek" unicode="&#x173;" horiz-adv-x="575" 
d="M522 -119l32 -28q-51 -64 -123 -64q-40 0 -68 17t-28 57q0 75 99 137h-24v51h-2q-5 -7 -15 -18t-46.5 -29.5t-79.5 -18.5q-88 0 -137.5 50t-49.5 150v345h82v-333q0 -74 28.5 -105t94.5 -31q60 0 92 37t32 103v329h81v-530q-80 -72 -80 -117q0 -39 46 -39q34 0 66 37z
" />
    <glyph glyph-name="Wcircumflex" unicode="&#x174;" horiz-adv-x="908" 
d="M174 0l-129 700h85l105 -578h2l174 578h87l175 -578h2l103 578h85l-129 -700h-102l-177 580h-2l-176 -580h-103zM336 785l66 85h109l66 -85l-48 -38l-73 92l-73 -92z" />
    <glyph glyph-name="wcircumflex" unicode="&#x175;" horiz-adv-x="787" 
d="M162 0l-117 530h81l85 -399h2l140 399h74l138 -399h2l95 399h80l-127 -530h-75l-150 433h-2l-150 -433h-76zM268 620l66 85h109l66 -85l-48 -38l-73 92l-73 -92z" />
    <glyph glyph-name="Ycircumflex" unicode="&#x176;" horiz-adv-x="572" 
d="M246 0v295l-231 405h92l178 -325h2l178 325h92l-231 -405v-295h-80zM174 785l66 85h109l66 -85l-48 -38l-73 92l-73 -92z" />
    <glyph glyph-name="ycircumflex" unicode="&#x177;" horiz-adv-x="497" 
d="M113 -225l106 281l-199 474h86l150 -366h2l135 366h84l-285 -755h-79zM143 620l66 85h109l66 -85l-48 -38l-73 92l-73 -92z" />
    <glyph glyph-name="Ydieresis" unicode="&#x178;" horiz-adv-x="572" 
d="M246 0v295l-231 405h92l178 -325h2l178 325h92l-231 -405v-295h-80zM152 765v91h91v-91h-91zM344 765v91h91v-91h-91z" />
    <glyph glyph-name="Zacute" unicode="&#x179;" horiz-adv-x="606" 
d="M55 0v68l392 554v2h-374v76h478v-68l-393 -553v-2h385v-77h-488zM256 765l79 121h100l-108 -121h-71z" />
    <glyph glyph-name="zacute" unicode="&#x17a;" horiz-adv-x="550" 
d="M55 0v64l333 389v2h-314v75h420v-62l-330 -390v-2h331v-76h-440zM229 595l78 121h100l-107 -121h-71z" />
    <glyph glyph-name="Zdotaccent" unicode="&#x17b;" horiz-adv-x="606" 
d="M55 0v68l392 554v2h-374v76h478v-68l-393 -553v-2h385v-77h-488zM245 765v97h97v-97h-97z" />
    <glyph glyph-name="zdotaccent" unicode="&#x17c;" horiz-adv-x="550" 
d="M55 0v64l333 389v2h-314v75h420v-62l-330 -390v-2h331v-76h-440zM224 608v96h97v-96h-97z" />
    <glyph glyph-name="Zcaron" unicode="&#x17d;" horiz-adv-x="606" 
d="M55 0v68l392 554v2h-374v76h478v-68l-393 -553v-2h385v-77h-488zM257 765l-66 85l47 38l74 -92l73 92l47 -38l-66 -85h-109z" />
    <glyph glyph-name="zcaron" unicode="&#x17e;" horiz-adv-x="550" 
d="M55 0v64l333 389v2h-314v75h420v-62l-330 -390v-2h331v-76h-440zM226 594l-66 85l47 38l74 -92l73 92l47 -38l-66 -85h-109z" />
    <glyph glyph-name="longs" unicode="&#x17f;" horiz-adv-x="298" 
d="M91 0v457h-61v73h62v56q0 63 30 88.5t85 25.5h76v-73h-61q-30 0 -40.5 -12t-10.5 -50l1 -565h-81z" />
    <glyph glyph-name="florin" unicode="&#x192;" horiz-adv-x="494" 
d="M75 -173l99 572h-98l12 66h98l25 132q29 148 141 148q65 0 117 -57l-49 -57q-33 38 -62 38q-28 0 -44.5 -18t-25.5 -67l-22 -119h144l-11 -66h-144l-100 -572h-80z" />
    <glyph glyph-name="Aringacute" unicode="&#x1fa;" horiz-adv-x="625" 
d="M20 0l250 694q-54 25 -54 92q0 39 24.5 68t62.5 33l58 89h100l-93 -104q44 -29 44 -86q0 -68 -56 -94l249 -692h-84l-52 137h-314l-51 -137h-84zM180 209h265l-132 380h-2zM314 729q20 0 34 15t14 43t-14 42.5t-34 14.5t-33.5 -14.5t-13.5 -42.5t14 -43t33 -15z" />
    <glyph glyph-name="aringacute" unicode="&#x1fb;" horiz-adv-x="540" 
d="M393 0v58h-2q-15 -26 -57 -49.5t-105 -23.5q-88 0 -133.5 43t-45.5 108q0 66 40.5 103.5t137.5 62.5q36 9 53.5 14t40.5 13.5t33 16.5t17.5 20t7.5 27q0 34 -27.5 56.5t-83.5 22.5q-106 0 -129 -105l-74 21q10 58 49 99t102 53q-41 28 -41 85q0 39 24.5 68t62.5 33l56 87
h100l-90 -102q43 -29 43 -86q0 -59 -43 -86q136 -30 136 -182v-357h-72zM247 239q-68 -19 -92.5 -41t-24.5 -57q0 -83 105 -83q72 0 111 32.5t39 79.5v132h-2q-14 -29 -136 -63zM274 567q20 0 34 15.5t14 43.5q0 27 -14 41.5t-34 14.5t-33.5 -14t-13.5 -42t14 -43.5
t33 -15.5z" />
    <glyph glyph-name="AEacute" unicode="&#x1fc;" horiz-adv-x="864" 
d="M20 0l263 700h511v-76h-306v-227h278v-73h-278v-248h306v-76h-388v149h-246l-55 -149h-85zM185 221h221v403h-72zM363 765l79 121h100l-108 -121h-71z" />
    <glyph glyph-name="aeacute" unicode="&#x1fd;" horiz-adv-x="914" 
d="M229 302q91 22 121 42.5t30 48.5q0 34 -28 57t-87 23q-60 0 -89 -27.5t-40 -77.5l-69 23q11 67 64.5 110.5t132.5 43.5q136 0 181 -92q63 92 182 92q108 0 172.5 -74.5t64.5 -205.5v-24h-392q1 -77 41.5 -129.5t118.5 -52.5q39 0 68.5 11t48 31.5t27 35t18.5 36.5l64 -36
q-24 -64 -82.5 -108t-141.5 -44q-135 0 -200 113q-56 -113 -202 -113q-86 0 -134 42.5t-48 109.5q0 66 41 104t138 61zM474 307h310q0 66 -38.5 115.5t-117.5 49.5q-78 0 -116 -52.5t-38 -112.5zM247 239q-68 -19 -92.5 -41t-24.5 -57q0 -83 105 -83q72 0 111 32.5t39 79.5
v132h-2q-14 -29 -136 -63zM246 595l78 121h100l-107 -121h-71z" />
    <glyph glyph-name="Oslashacute" unicode="&#x1fe;" horiz-adv-x="700" 
d="M337 -15q-90 0 -158 45l-26 -45l-41 23l30 52q-102 97 -102 296q0 171 87 265t210 94q82 0 152 -47l27 47l41 -24l-31 -54q104 -102 104 -285q0 -97 -24.5 -170t-66.5 -114.5t-93 -62t-109 -20.5zM337 63q91 0 148 73t57 216q0 135 -58 211l-264 -461q48 -39 117 -39z
M128 356q0 -140 58 -219l263 461q-50 38 -112 38q-90 0 -149.5 -71t-59.5 -209zM314 765l79 121h100l-108 -121h-71z" />
    <glyph glyph-name="oslashacute" unicode="&#x1ff;" horiz-adv-x="578" 
d="M291 -15q-91 0 -152 54l-39 -50l-33 25l43 55q-60 74 -60 196q0 130 70 205t171 75q84 0 147 -54l39 50l33 -26l-43 -55q61 -75 61 -195q0 -132 -67 -206t-170 -74zM291 59q67 0 111.5 54.5t44.5 151.5q0 79 -30 131l-230 -296q43 -41 104 -41zM131 265q0 -79 30 -131
l230 296q-41 41 -100 41q-70 0 -115 -53.5t-45 -152.5zM269 595l78 121h100l-107 -121h-71z" />
    <glyph glyph-name="Scommaaccent" unicode="&#x218;" horiz-adv-x="615" 
d="M50 241l87 17q15 -102 57.5 -148.5t139.5 -46.5q78 0 118 35t40 86q0 50 -36 79t-157 69q-116 37 -166.5 81.5t-50.5 117.5q0 76 59.5 130t160.5 54q99 0 165 -49t79 -144l-84 -18q-12 64 -48.5 98t-111.5 34q-66 0 -101 -30t-35 -75q0 -40 32 -65t142 -61
q139 -45 187 -91t48 -126q0 -86 -65 -144.5t-179 -58.5q-249 0 -281 256zM289 -229v35q28 4 38.5 16t10.5 35h-50v89h102v-75q0 -48 -23.5 -72.5t-77.5 -27.5z" />
    <glyph glyph-name="scommaaccent" unicode="&#x219;" horiz-adv-x="517" 
d="M45 180l77 15q15 -139 147 -139q63 0 94.5 23t31.5 61q0 40 -29.5 60t-123.5 46q-98 27 -138 61t-40 92q0 59 49 102.5t135 43.5q87 0 138 -41.5t68 -110.5l-71 -19q-31 101 -135 101q-52 0 -80 -22t-28 -52q0 -33 27 -49t124 -44q103 -29 141.5 -66.5t39.5 -101.5
q0 -63 -50.5 -109t-151.5 -46q-105 0 -160.5 54.5t-64.5 140.5zM224 -229v35q28 4 38.5 16t10.5 35h-50v89h102v-75q0 -48 -23.5 -72.5t-77.5 -27.5z" />
    <glyph glyph-name="dotlessj" unicode="&#x237;" horiz-adv-x="248" 
d="M25 -195v75h16q23 0 34.5 11t11.5 45v594h81v-593q0 -72 -28 -102t-83 -30h-32z" />
    <glyph glyph-name="circumflex" unicode="&#x2c6;" horiz-adv-x="311" 
d="M35 620l66 85h109l66 -85l-48 -38l-73 92l-73 -92z" />
    <glyph glyph-name="caron" unicode="&#x2c7;" horiz-adv-x="311" 
d="M101 594l-66 85l47 38l74 -92l73 92l47 -38l-66 -85h-109z" />
    <glyph glyph-name="breve" unicode="&#x2d8;" horiz-adv-x="339" 
d="M45 704h44q11 -58 80 -58q36 0 56 16t23 42h46q0 -56 -35 -87.5t-90 -31.5q-56 0 -90 31.5t-34 87.5z" />
    <glyph glyph-name="dotaccent" unicode="&#x2d9;" horiz-adv-x="267" 
d="M85 608v96h97v-96h-97z" />
    <glyph glyph-name="ring" unicode="&#x2da;" horiz-adv-x="306" 
d="M153 523q-43 0 -70.5 29t-27.5 73q0 42 28 72t70 30q43 0 70.5 -29.5t27.5 -72.5q0 -45 -27.5 -73.5t-70.5 -28.5zM153 567q20 0 34 15.5t14 43.5q0 27 -14 41.5t-34 14.5t-33.5 -14t-13.5 -42t14 -43.5t33 -15.5z" />
    <glyph glyph-name="ogonek" unicode="&#x2db;" horiz-adv-x="289" 
d="M222 -119l32 -28q-51 -64 -123 -64q-40 0 -68 17t-28 57q0 75 99 137h56q-80 -72 -80 -117q0 -39 46 -39q34 0 66 37z" />
    <glyph glyph-name="tilde" unicode="&#x2dc;" horiz-adv-x="393" 
d="M99 602h-44q18 94 89 94q27 0 62 -19t52 -19q28 0 36 33h44q-18 -94 -88 -94q-28 0 -63.5 19t-51.5 19q-28 0 -36 -33z" />
    <glyph glyph-name="hungarumlaut" unicode="&#x2dd;" horiz-adv-x="473" 
d="M85 595l75 115h92l-104 -115h-63zM221 595l75 115h92l-104 -115h-63z" />
    <glyph glyph-name="uni0312" unicode="&#x312;" horiz-adv-x="283" 
d="M183 777v-32q-36 -5 -36 -45h41v-91h-93v78q0 83 88 90z" />
    <glyph glyph-name="pi" unicode="&#x3c0;" horiz-adv-x="734" 
d="M182 0h-85l10.5 35.5t23 92.5t29 140t23 167t10.5 184h-108v81h574v-81h-79v-470q0 -91 13 -149h-81q-17 30 -17 143v476h-217q0 -137 -24 -292t-48 -241z" />
    <glyph glyph-name="Wgrave" unicode="&#x1e80;" horiz-adv-x="908" 
d="M174 0l-129 700h85l105 -578h2l174 578h87l175 -578h2l103 578h85l-129 -700h-102l-177 580h-2l-176 -580h-103zM419 765l-108 121h101l78 -121h-71z" />
    <glyph glyph-name="wgrave" unicode="&#x1e81;" horiz-adv-x="787" 
d="M162 0l-117 530h81l85 -399h2l140 399h74l138 -399h2l95 399h80l-127 -530h-75l-150 433h-2l-150 -433h-76zM349 595l-108 121h101l78 -121h-71z" />
    <glyph glyph-name="Wacute" unicode="&#x1e82;" horiz-adv-x="908" 
d="M174 0l-129 700h85l105 -578h2l174 578h87l175 -578h2l103 578h85l-129 -700h-102l-177 580h-2l-176 -580h-103zM415 765l79 121h100l-108 -121h-71z" />
    <glyph glyph-name="wacute" unicode="&#x1e83;" horiz-adv-x="787" 
d="M162 0l-117 530h81l85 -399h2l140 399h74l138 -399h2l95 399h80l-127 -530h-75l-150 433h-2l-150 -433h-76zM357 595l78 121h100l-107 -121h-71z" />
    <glyph glyph-name="Wdieresis" unicode="&#x1e84;" horiz-adv-x="908" 
d="M174 0l-129 700h85l105 -578h2l174 578h87l175 -578h2l103 578h85l-129 -700h-102l-177 580h-2l-176 -580h-103zM312 765v91h91v-91h-91zM504 765v91h91v-91h-91z" />
    <glyph glyph-name="wdieresis" unicode="&#x1e85;" horiz-adv-x="787" 
d="M162 0l-117 530h81l85 -399h2l140 399h74l138 -399h2l95 399h80l-127 -530h-75l-150 433h-2l-150 -433h-76zM244 611v91h91v-91h-91zM436 611v91h91v-91h-91z" />
    <glyph glyph-name="Ygrave" unicode="&#x1ef2;" horiz-adv-x="572" 
d="M246 0v295l-231 405h92l178 -325h2l178 325h92l-231 -405v-295h-80zM267 765l-108 121h101l78 -121h-71z" />
    <glyph glyph-name="ygrave" unicode="&#x1ef3;" horiz-adv-x="497" 
d="M113 -225l106 281l-199 474h86l150 -366h2l135 366h84l-285 -755h-79zM226 595l-108 121h101l78 -121h-71z" />
    <glyph glyph-name="endash" unicode="&#x2013;" horiz-adv-x="609" 
d="M55 305v73h499v-73h-499z" />
    <glyph glyph-name="emdash" unicode="&#x2014;" horiz-adv-x="999" 
d="M105 305v73h789v-73h-789z" />
    <glyph glyph-name="quoteleft" unicode="&#x2018;" horiz-adv-x="308" 
d="M183 524v-45q-118 8 -118 121v103h118v-118h-48q0 -52 48 -61z" />
    <glyph glyph-name="quoteright" unicode="&#x2019;" horiz-adv-x="308" 
d="M95 479v45q48 9 48 61h-48v118h118v-103q0 -113 -118 -121z" />
    <glyph glyph-name="quotesinglbase" unicode="&#x201a;" horiz-adv-x="308" 
d="M80 -106v45q48 9 48 61h-48v118h118v-103q0 -113 -118 -121z" />
    <glyph glyph-name="quotedblleft" unicode="&#x201c;" horiz-adv-x="489" 
d="M183 524v-45q-118 8 -118 121v103h118v-118h-48q0 -52 48 -61zM364 524v-45q-118 8 -118 121v103h118v-118h-48q0 -52 48 -61z" />
    <glyph glyph-name="quotedblright" unicode="&#x201d;" horiz-adv-x="489" 
d="M80 479v45q48 9 48 61h-48v118h118v-103q0 -113 -118 -121zM261 479v45q48 9 48 61h-48v118h118v-103q0 -113 -118 -121z" />
    <glyph glyph-name="quotedblbase" unicode="&#x201e;" horiz-adv-x="489" 
d="M95 -106v45q48 9 48 61h-48v118h118v-103q0 -113 -118 -121zM276 -106v45q48 9 48 61h-48v118h118v-103q0 -113 -118 -121z" />
    <glyph glyph-name="dagger" unicode="&#x2020;" horiz-adv-x="626" 
d="M274 -225v653h-219v73h219v229h78v-229h219v-73h-219v-653h-78z" />
    <glyph glyph-name="daggerdbl" unicode="&#x2021;" horiz-adv-x="626" 
d="M274 -225v225h-219v69h219v363h-219v69h219v229h78v-229h219v-69h-219v-363h219v-69h-219v-225h-78z" />
    <glyph glyph-name="bullet" unicode="&#x2022;" horiz-adv-x="302" 
d="M151 266q-41 0 -66 26t-25 66q0 41 25 67t66 26t66 -26t25 -67q0 -40 -25 -66t-66 -26z" />
    <glyph glyph-name="ellipsis" unicode="&#x2026;" horiz-adv-x="808" 
d="M95 0v118h118v-118h-118zM348 0v118h118v-118h-118zM595 0v118h118v-118h-118z" />
    <glyph glyph-name="perthousand" unicode="&#x2030;" horiz-adv-x="1358" 
d="M1117 51q48 0 73 39t25 106q0 66 -26 99.5t-72 33.5q-45 0 -70.5 -33.5t-25.5 -99.5q0 -67 24.5 -106t71.5 -39zM1117 -12q-76 0 -120.5 55.5t-44.5 153.5q0 93 49.5 144.5t115.5 51.5q67 0 116.5 -51.5t49.5 -144.5q0 -95 -45 -152t-121 -57zM225 370q47 0 72 39t25 106
q0 66 -25.5 99.5t-71.5 33.5q-45 0 -70.5 -33.5t-25.5 -99.5q0 -67 24.5 -106t71.5 -39zM225 307q-77 0 -121 55.5t-44 153.5q0 93 49.5 144.5t115.5 51.5q67 0 116.5 -51.5t49.5 -144.5q0 -95 -45 -152t-121 -57zM701 51q47 0 72 39t25 106q0 66 -25.5 99.5t-71.5 33.5
q-45 0 -70.5 -33.5t-25.5 -99.5q0 -67 24.5 -106t71.5 -39zM701 -12q-77 0 -121 55.5t-44 153.5q0 93 49.5 144.5t115.5 51.5q67 0 116.5 -51.5t49.5 -144.5q0 -95 -45 -152t-121 -57zM184 -39l489 815l51 -32l-488 -814z" />
    <glyph glyph-name="guilsinglleft" unicode="&#x2039;" horiz-adv-x="371" 
d="M205 95l-110 186l109 186h80l-109 -186l111 -186h-81z" />
    <glyph glyph-name="guilsinglright" unicode="&#x203a;" horiz-adv-x="371" 
d="M261 281l-110 -186h-81l111 186l-109 186h80z" />
    <glyph glyph-name="fraction" unicode="&#x2044;" horiz-adv-x="330" 
d="M-105 -39l489 815l51 -32l-488 -814z" />
    <glyph glyph-name="zerosuperior" unicode="&#x2070;" horiz-adv-x="398" 
d="M199 468q-73 0 -116 56t-43 168q0 104 43.5 158.5t115.5 54.5t115.5 -54.5t43.5 -158.5q0 -112 -43 -168t-116 -56zM199 530q90 0 90 163q0 150 -90 150t-90 -150q0 -163 90 -163z" />
    <glyph glyph-name="foursuperior" unicode="&#x2074;" horiz-adv-x="384" 
d="M30 572v61l162 267h95v-267h52v-61h-52v-99h-65v99h-192zM91 633h131v211h-2z" />
    <glyph glyph-name="fivesuperior" unicode="&#x2075;" horiz-adv-x="390" 
d="M40 582l61 27q22 -80 96 -80q40 0 64.5 23.5t24.5 66.5t-24.5 66t-62.5 23q-57 0 -91 -48l-54 25l38 215h215v-61h-165l-21 -116h2q30 37 92 37q56 0 95.5 -40t39.5 -102q0 -69 -43.5 -109.5t-109.5 -40.5q-61 0 -100.5 31t-56.5 83z" />
    <glyph glyph-name="sixsuperior" unicode="&#x2076;" horiz-adv-x="398" 
d="M212 530q40 0 61.5 23.5t21.5 62.5t-22.5 62.5t-63.5 23.5q-39 0 -63 -24.5t-24 -57.5q0 -41 25 -65.5t65 -24.5zM107 697h2q9 20 38.5 39t76.5 19q53 0 93.5 -38t40.5 -103q0 -68 -42 -107t-104 -39q-75 0 -123.5 53.5t-48.5 159.5q0 96 46.5 160t122.5 64
q57 0 90.5 -30.5t42.5 -76.5l-60 -17q-18 65 -76 65q-43 0 -71 -40.5t-28 -108.5z" />
    <glyph glyph-name="sevensuperior" unicode="&#x2077;" horiz-adv-x="317" 
d="M30 473l200 365v2h-220v60h282v-73l-188 -354h-74z" />
    <glyph glyph-name="eightsuperior" unicode="&#x2078;" horiz-adv-x="357" 
d="M112 788q0 -25 16.5 -42t49.5 -17t49.5 17t16.5 42t-17 43t-49 18t-49 -18t-17 -43zM105 703v2q-56 24 -56 89q0 46 36 78.5t93 32.5t94 -32.5t37 -78.5q0 -63 -56 -89v-2q32 -11 53 -40t21 -67q0 -60 -41 -94t-108 -34t-107.5 34t-40.5 94q0 38 20.5 67t54.5 40zM94 602
q0 -32 21 -52t63 -20t63 20t21 52q0 34 -22 55t-62 21t-62 -21t-22 -55z" />
    <glyph glyph-name="ninesuperior" unicode="&#x2079;" horiz-adv-x="388" 
d="M50 572l60 21q16 -65 83 -65q89 0 88 146h-2q-4 -18 -31.5 -37t-73.5 -19q-56 0 -97.5 39t-41.5 103q0 66 42 105.5t103 39.5q71 0 117 -55t46 -166q0 -110 -41 -163t-112 -53q-112 0 -140 104zM183 675q38 0 61 21.5t23 59.5t-24 63.5t-63 25.5q-36 0 -59 -23t-23 -62
t23 -62t62 -23z" />
    <glyph glyph-name="plussuperior" unicode="&#x207a;" horiz-adv-x="446" 
d="M191 515v155h-136v59h136v138h63v-138h137v-59h-137v-155h-63z" />
    <glyph glyph-name="minussuperior" unicode="&#x207b;" horiz-adv-x="416" 
d="M55 670v59h306v-59h-306z" />
    <glyph glyph-name="zeroinferior" unicode="&#x2080;" horiz-adv-x="398" 
d="M199 -205q-73 0 -116 56t-43 168q0 104 43.5 158.5t115.5 54.5t115.5 -54.5t43.5 -158.5q0 -112 -43 -168t-116 -56zM199 -143q90 0 90 163q0 150 -90 150t-90 -150q0 -163 90 -163z" />
    <glyph glyph-name="oneinferior" unicode="&#x2081;" horiz-adv-x="267" 
d="M122 -200v350l-92 -57v73l98 61h59v-427h-65z" />
    <glyph glyph-name="twoinferior" unicode="&#x2082;" horiz-adv-x="362" 
d="M39 -200v52q0 53 26 90q19 25 94 64l17.5 10t17 9t14.5 8t13.5 9t11.5 8.5t10.5 9.5t7 9.5t6 11t3 12.5t1.5 14q0 26 -19.5 46t-55.5 20q-79 0 -87 -92l-64 8q4 68 44 105.5t107 37.5q62 0 100 -35.5t38 -93.5q0 -50 -30 -79.5t-84 -56.5q-77 -41 -88 -58
q-10 -13 -10 -43h215v-66h-288z" />
    <glyph glyph-name="threeinferior" unicode="&#x2083;" horiz-adv-x="355" 
d="M20 -59l65 14q6 -51 28.5 -75.5t64.5 -24.5q41 0 62.5 19.5t21.5 51.5q0 35 -23 54t-65 19h-26v53h20q29 0 52.5 13.5t23.5 43.5q0 29 -18 46t-51 17q-62 0 -72 -71l-62 12q5 55 42 87t94 32q56 0 93 -31t37 -83q0 -35 -18.5 -56.5t-39.5 -28.5v-2q29 -9 52.5 -36
t23.5 -73q0 -55 -39.5 -91t-107.5 -36q-65 0 -107 36.5t-51 109.5z" />
    <glyph glyph-name="fourinferior" unicode="&#x2084;" horiz-adv-x="384" 
d="M30 -101v61l162 267h95v-267h52v-61h-52v-99h-65v99h-192zM91 -40h131v211h-2z" />
    <glyph glyph-name="fiveinferior" unicode="&#x2085;" horiz-adv-x="390" 
d="M40 -91l61 27q22 -80 96 -80q40 0 64.5 23.5t24.5 66.5t-24.5 66t-62.5 23q-57 0 -91 -48l-54 25l38 215h215v-61h-165l-21 -116h2q30 37 92 37q56 0 95.5 -40t39.5 -102q0 -69 -43.5 -109.5t-109.5 -40.5q-61 0 -100.5 31t-56.5 83z" />
    <glyph glyph-name="sixinferior" unicode="&#x2086;" horiz-adv-x="398" 
d="M212 -144q40 0 61.5 23.5t21.5 62.5t-22.5 62.5t-63.5 23.5q-39 0 -63 -24.5t-24 -57.5q0 -41 25 -65.5t65 -24.5zM107 23h2q9 20 38.5 39t76.5 19q53 0 93.5 -38t40.5 -103q0 -68 -42 -107t-104 -39q-75 0 -123.5 53.5t-48.5 159.5q0 96 46.5 160t122.5 64
q57 0 90.5 -30.5t42.5 -76.5l-60 -17q-18 65 -76 65q-43 0 -71 -40.5t-28 -108.5z" />
    <glyph glyph-name="seveninferior" unicode="&#x2087;" horiz-adv-x="317" 
d="M30 -200l200 365v2h-220v60h282v-73l-188 -354h-74z" />
    <glyph glyph-name="eightinferior" unicode="&#x2088;" horiz-adv-x="357" 
d="M112 115q0 -25 16.5 -42t49.5 -17t49.5 17t16.5 42t-17 43t-49 18t-49 -18t-17 -43zM105 30v2q-56 24 -56 89q0 46 36 78.5t93 32.5t94 -32.5t37 -78.5q0 -63 -56 -89v-2q32 -11 53 -40t21 -67q0 -60 -41 -94t-108 -34t-107.5 34t-40.5 94q0 38 20.5 67t54.5 40zM94 -71
q0 -32 21 -52t63 -20t63 20t21 52q0 34 -22 55t-62 21t-62 -21t-22 -55z" />
    <glyph glyph-name="nineinferior" unicode="&#x2089;" horiz-adv-x="388" 
d="M50 -101l60 21q16 -65 83 -65q89 0 88 146h-2q-4 -17 -31.5 -36.5t-73.5 -19.5q-56 0 -97.5 39t-41.5 103q0 66 42 105.5t103 39.5q71 0 117 -55t46 -166q0 -110 -41 -163t-112 -53q-112 0 -140 104zM183 2q38 0 61 21.5t23 59.5t-24 63.5t-63 25.5q-36 0 -59 -23
t-23 -62t23 -62t62 -23z" />
    <glyph glyph-name="Euro" unicode="&#x20ac;" horiz-adv-x="784" 
d="M454 639q-73 0 -129 -47t-74 -136h209v-67h-218q-1 -11 -1 -33q0 -20 2 -54h217v-67h-206q20 -85 74 -130t126 -45q88 0 131 55t51 144l83 -10q-10 -123 -79 -193.5t-186 -70.5q-102 0 -180.5 61.5t-105.5 188.5h-93v67h84q-2 17 -2 54q0 22 1 33h-83v67h91
q25 124 105.5 191.5t182.5 67.5q110 0 179 -67t84 -177l-81 -14q-27 182 -182 182z" />
    <glyph glyph-name="trademark" unicode="&#x2122;" horiz-adv-x="766" 
d="M159 361v286h-104v53h258v-53h-98v-286h-56zM362 361v339h77l103 -257h2l104 257h78v-339h-56v263h-2l-105 -263h-40l-103 262h-2v-262h-56z" />
    <glyph glyph-name="Omega" unicode="&#x2126;" horiz-adv-x="708" 
d="M68 0v70h122q-54 37 -89.5 116.5t-35.5 174.5q0 172 82.5 263t206.5 91t206.5 -91t82.5 -263q0 -96 -35.5 -175t-90.5 -116h123v-70h-251v67q71 13 119 87t48 193q0 145 -56.5 217.5t-145.5 72.5q-87 0 -144.5 -73.5t-57.5 -216.5q0 -119 48 -193t119 -87v-67h-251z" />
    <glyph glyph-name="onethird" unicode="&#x2153;" horiz-adv-x="863" 
d="M131 -39l489 815l51 -32l-488 -814zM127 273v350l-92 -57v73l98 61h59v-427h-65zM498 141l65 14q6 -51 28.5 -75.5t64.5 -24.5q41 0 62.5 19.5t21.5 51.5q0 35 -23 54t-65 19h-26v53h20q29 0 52.5 13.5t23.5 43.5q0 29 -18 46t-51 17q-62 0 -72 -71l-62 12q5 55 42 87
t94 32q56 0 93 -31t37 -83q0 -35 -18.5 -56.5t-39.5 -28.5v-2q29 -9 52.5 -36t23.5 -73q0 -55 -39.5 -91t-107.5 -36q-65 0 -107 36.5t-51 109.5z" />
    <glyph glyph-name="twothirds" unicode="&#x2154;" horiz-adv-x="988" 
d="M248 -39l489 815l51 -32l-488 -814zM44 273v52q0 53 26 90q19 25 94 64l17.5 10t17 9t14.5 8t13.5 9t11.5 8.5t10.5 9.5t7 9.5t6 11t3 12.5t1.5 14q0 26 -19.5 46t-55.5 20q-79 0 -87 -92l-64 8q4 68 44 105.5t107 37.5q62 0 100 -35.5t38 -93.5q0 -50 -30 -79.5
t-84 -56.5q-77 -41 -88 -58q-10 -13 -10 -43h215v-66h-288zM608 143l65 14q6 -51 28.5 -75.5t64.5 -24.5q41 0 62.5 19.5t21.5 51.5q0 35 -23 54t-65 19h-26v53h20q29 0 52.5 13.5t23.5 43.5q0 29 -18 46t-51 17q-62 0 -72 -71l-62 12q5 55 42 87t94 32q56 0 93 -31t37 -83
q0 -35 -18.5 -56.5t-39.5 -28.5v-2q29 -9 52.5 -36t23.5 -73q0 -55 -39.5 -91t-107.5 -36q-65 0 -107 36.5t-51 109.5z" />
    <glyph glyph-name="onefifth" unicode="&#x2155;" horiz-adv-x="864" 
d="M131 -39l489 815l51 -32l-488 -814zM127 273v350l-92 -57v73l98 61h59v-427h-65zM519 109l61 27q22 -80 96 -80q40 0 64.5 23.5t24.5 66.5t-24.5 66t-62.5 23q-57 0 -91 -48l-54 25l38 215h215v-61h-165l-21 -116h2q30 37 92 37q56 0 95.5 -40t39.5 -102
q0 -69 -43.5 -109.5t-109.5 -40.5q-61 0 -100.5 31t-56.5 83z" />
    <glyph glyph-name="twofifths" unicode="&#x2156;" horiz-adv-x="997" 
d="M248 -39l489 815l51 -32l-488 -814zM44 273v52q0 53 26 90q19 25 94 64l17.5 10t17 9t14.5 8t13.5 9t11.5 8.5t10.5 9.5t7 9.5t6 11t3 12.5t1.5 14q0 26 -19.5 46t-55.5 20q-79 0 -87 -92l-64 8q4 68 44 105.5t107 37.5q62 0 100 -35.5t38 -93.5q0 -50 -30 -79.5
t-84 -56.5q-77 -41 -88 -58q-10 -13 -10 -43h215v-66h-288zM637 109l61 27q22 -80 96 -80q40 0 64.5 23.5t24.5 66.5t-24.5 66t-62.5 23q-57 0 -91 -48l-54 25l38 215h215v-61h-165l-21 -116h2q30 37 92 37q56 0 95.5 -40t39.5 -102q0 -69 -43.5 -109.5t-109.5 -40.5
q-61 0 -100.5 31t-56.5 83z" />
    <glyph glyph-name="threefifths" unicode="&#x2157;" horiz-adv-x="974" 
d="M213 -39l489 815l51 -32l-488 -814zM40 414l65 14q6 -51 28.5 -75.5t64.5 -24.5q41 0 62.5 19.5t21.5 51.5q0 35 -23 54t-65 19h-26v53h20q29 0 52.5 13.5t23.5 43.5q0 29 -18 46t-51 17q-62 0 -72 -71l-62 12q5 55 42 87t94 32q56 0 93 -31t37 -83q0 -35 -18.5 -56.5
t-39.5 -28.5v-2q29 -9 52.5 -36t23.5 -73q0 -55 -39.5 -91t-107.5 -36q-65 0 -107 36.5t-51 109.5zM614 109l61 27q22 -80 96 -80q40 0 64.5 23.5t24.5 66.5t-24.5 66t-62.5 23q-57 0 -91 -48l-54 25l38 215h215v-61h-165l-21 -116h2q30 37 92 37q56 0 95.5 -40t39.5 -102
q0 -69 -43.5 -109.5t-109.5 -40.5q-61 0 -100.5 31t-56.5 83z" />
    <glyph glyph-name="fourfifths" unicode="&#x2158;" horiz-adv-x="964" 
d="M220 -39l489 815l51 -32l-488 -814zM35 372v61l162 267h95v-267h52v-61h-52v-99h-65v99h-192zM96 433h131v211h-2zM619 109l61 27q22 -80 96 -80q40 0 64.5 23.5t24.5 66.5t-24.5 66t-62.5 23q-57 0 -91 -48l-54 25l38 215h215v-61h-165l-21 -116h2q30 37 92 37
q56 0 95.5 -40t39.5 -102q0 -69 -43.5 -109.5t-109.5 -40.5q-61 0 -100.5 31t-56.5 83z" />
    <glyph glyph-name="onesixth" unicode="&#x2159;" horiz-adv-x="878" 
d="M131 -39l489 815l51 -32l-488 -814zM127 273v350l-92 -57v73l98 61h59v-427h-65zM682 57q40 0 61.5 23.5t21.5 62.5t-22.5 62.5t-63.5 23.5q-39 0 -63 -24.5t-24 -57.5q0 -41 25 -65.5t65 -24.5zM577 224h2q9 20 38.5 39t76.5 19q53 0 93.5 -38t40.5 -103q0 -68 -42 -107
t-104 -39q-75 0 -123.5 53.5t-48.5 159.5q0 96 46.5 160t122.5 64q57 0 90.5 -30.5t42.5 -76.5l-60 -17q-18 65 -76 65q-43 0 -71 -40.5t-28 -108.5z" />
    <glyph glyph-name="fivesixths" unicode="&#x215a;" horiz-adv-x="946" 
d="M205 -39l489 815l51 -32l-488 -814zM45 382l61 27q22 -80 96 -80q40 0 64.5 23.5t24.5 66.5t-24.5 66t-62.5 23q-57 0 -91 -48l-54 25l38 215h215v-61h-165l-21 -116h2q30 37 92 37q56 0 95.5 -40t39.5 -102q0 -69 -43.5 -109.5t-109.5 -40.5q-61 0 -100.5 31t-56.5 83z
M760 57q40 0 61.5 23.5t21.5 62.5t-22.5 62.5t-63.5 23.5q-39 0 -63 -24.5t-24 -57.5q0 -41 25 -65.5t65 -24.5zM655 224h2q9 20 38.5 39t76.5 19q53 0 93.5 -38t40.5 -103q0 -68 -42 -107t-104 -39q-75 0 -123.5 53.5t-48.5 159.5q0 96 46.5 160t122.5 64q57 0 90.5 -30.5
t42.5 -76.5l-60 -17q-18 65 -76 65q-43 0 -71 -40.5t-28 -108.5z" />
    <glyph glyph-name="oneeighth" unicode="&#x215b;" horiz-adv-x="862" 
d="M131 -39l489 815l51 -32l-488 -814zM127 273v350l-92 -57v73l98 61h59v-427h-65zM577 315q0 -25 16.5 -42t49.5 -17t49.5 17t16.5 42t-17 43t-49 18t-49 -18t-17 -43zM570 230v2q-56 24 -56 89q0 46 36 78.5t93 32.5t94 -32.5t37 -78.5q0 -63 -56 -89v-2q32 -11 53 -40
t21 -67q0 -60 -41 -94t-108 -34t-107.5 34t-40.5 94q0 38 20.5 67t54.5 40zM559 129q0 -32 21 -52t63 -20t63 20t21 52q0 34 -22 55t-62 21t-62 -21t-22 -55z" />
    <glyph glyph-name="threeeighths" unicode="&#x215c;" horiz-adv-x="969" 
d="M213 -39l489 815l51 -32l-488 -814zM40 414l65 14q6 -51 28.5 -75.5t64.5 -24.5q41 0 62.5 19.5t21.5 51.5q0 35 -23 54t-65 19h-26v53h20q29 0 52.5 13.5t23.5 43.5q0 29 -18 46t-51 17q-62 0 -72 -71l-62 12q5 55 42 87t94 32q56 0 93 -31t37 -83q0 -35 -18.5 -56.5
t-39.5 -28.5v-2q29 -9 52.5 -36t23.5 -73q0 -55 -39.5 -91t-107.5 -36q-65 0 -107 36.5t-51 109.5zM684 315q0 -25 16.5 -42t49.5 -17t49.5 17t16.5 42t-17 43t-49 18t-49 -18t-17 -43zM677 230v2q-56 24 -56 89q0 46 36 78.5t93 32.5t94 -32.5t37 -78.5q0 -63 -56 -89v-2
q32 -11 53 -40t21 -67q0 -60 -41 -94t-108 -34t-107.5 34t-40.5 94q0 38 20.5 67t54.5 40zM666 129q0 -32 21 -52t63 -20t63 20t21 52q0 34 -22 55t-62 21t-62 -21t-22 -55z" />
    <glyph glyph-name="fiveeighths" unicode="&#x215d;" horiz-adv-x="940" 
d="M190 -39l489 815l51 -32l-488 -814zM30 382l61 27q22 -80 96 -80q40 0 64.5 23.5t24.5 66.5t-24.5 66t-62.5 23q-57 0 -91 -48l-54 25l38 215h215v-61h-165l-21 -116h2q30 37 92 37q56 0 95.5 -40t39.5 -102q0 -69 -43.5 -109.5t-109.5 -40.5q-61 0 -100.5 31t-56.5 83z
M655 315q0 -25 16.5 -42t49.5 -17t49.5 17t16.5 42t-17 43t-49 18t-49 -18t-17 -43zM648 230v2q-56 24 -56 89q0 46 36 78.5t93 32.5t94 -32.5t37 -78.5q0 -63 -56 -89v-2q32 -11 53 -40t21 -67q0 -60 -41 -94t-108 -34t-107.5 34t-40.5 94q0 38 20.5 67t54.5 40zM637 129
q0 -32 21 -52t63 -20t63 20t21 52q0 34 -22 55t-62 21t-62 -21t-22 -55z" />
    <glyph glyph-name="seveneighths" unicode="&#x215e;" horiz-adv-x="895" 
d="M142 -39l489 815l51 -32l-488 -814zM45 273l200 365v2h-220v60h282v-73l-188 -354h-74zM610 315q0 -25 16.5 -42t49.5 -17t49.5 17t16.5 42t-17 43t-49 18t-49 -18t-17 -43zM603 230v2q-56 24 -56 89q0 46 36 78.5t93 32.5t94 -32.5t37 -78.5q0 -63 -56 -89v-2
q32 -11 53 -40t21 -67q0 -60 -41 -94t-108 -34t-107.5 34t-40.5 94q0 38 20.5 67t54.5 40zM592 129q0 -32 21 -52t63 -20t63 20t21 52q0 34 -22 55t-62 21t-62 -21t-22 -55z" />
    <glyph glyph-name="leftwardsarrow" unicode="&#x2190;" horiz-adv-x="706" 
d="M611 385v-77h-481l127 -207l-72 -44l-175 289l174 286l72 -43l-126 -204h481z" />
    <glyph glyph-name="upwardsarrow" unicode="&#x2191;" 
d="M364 42h-78q0 82 0.5 244t0.5 243l-205 -129l-42 70l285 172l285 -172l-42 -70l-205 129q0 -81 0.5 -243t0.5 -244z" />
    <glyph glyph-name="rightwordsarrow" unicode="&#x2192;" horiz-adv-x="706" 
d="M65 308v77h481l-126 204l72 43l174 -286l-175 -289l-72 44l127 207h-481z" />
    <glyph glyph-name="downwardsarrow" unicode="&#x2193;" 
d="M349 644q0 -82 -0.5 -244t-0.5 -243l205 129l42 -70l-285 -172l-285 172l42 70l205 -129q0 81 -0.5 243t-0.5 244h78z" />
    <glyph glyph-name="leftrightarrow" unicode="&#x2194;" horiz-adv-x="852" 
d="M699 308h-546l128 -203l-69 -43l-172 284l170 280l70 -43l-126 -199h544l-125 199l70 43l169 -280l-172 -284l-69 43z" />
    <glyph glyph-name="updownarrow" unicode="&#x2195;" horiz-adv-x="653" 
d="M40 129l42 69l204 -129v547l-204 -129l-42 70l287 172l286 -172l-42 -70l-204 129v-547l204 129l42 -69l-286 -173z" />
    <glyph glyph-name="northwestarrow" unicode="&#x2196;" horiz-adv-x="618" 
d="M573 141l-52 -53l-347 347l-55 -237l-74 17l79 324l320 78l17 -75l-234 -54z" />
    <glyph glyph-name="northeastarrow" unicode="&#x2197;" horiz-adv-x="618" 
d="M82 88l-52 53l346 347l-234 54l17 75l320 -78l79 -324l-74 -17l-55 237z" />
    <glyph glyph-name="southeastarrow" unicode="&#x2198;" horiz-adv-x="618" 
d="M30 547l52 53l347 -347l55 237l74 -17l-79 -324l-320 -78l-17 75l234 54z" />
    <glyph glyph-name="southwestarrow" unicode="&#x2199;" horiz-adv-x="618" 
d="M521 600l52 -53l-346 -347l234 -54l-17 -75l-320 78l-79 324l74 17l55 -237z" />
    <glyph glyph-name="downwardsarrowwithtiprightwards" unicode="&#x21b3;" horiz-adv-x="707" 
d="M65 307v393h83v-314h399l-125 203l72 43l173 -286l-176 -289l-72 43l127 207h-481z" />
    <glyph glyph-name="downwardsarrowwithtipleftwards" unicode="&#x21b5;" horiz-adv-x="707" 
d="M637 700v-393h-481l127 -207l-72 -43l-176 289l173 286l72 -43l-125 -203h399v314h83z" />
    <glyph glyph-name="partialdiff" unicode="&#x2202;" horiz-adv-x="597" 
d="M191 669l-38 55l10 7l18.5 13t24.5 14.5t31 14.5t35 10.5t39 4.5q115 0 170.5 -105.5t55.5 -283.5q0 -122 -24.5 -212t-83 -146t-147.5 -56q-107 0 -169 65t-63 180q0 53 12.5 99.5t38 85.5t70 62t102.5 23q76 0 190 -50q-2 121 -41 195t-112 74q-16 0 -32.5 -4
t-31 -11.5t-24.5 -13.5t-20 -14zM282 59q163 0 176 318q-101 52 -180 52t-114.5 -56.5t-35.5 -142.5q0 -75 39.5 -123t114.5 -48z" />
    <glyph glyph-name="Delta" unicode="&#x2206;" 
d="M30 0l251 700h89l250 -700h-590zM145 77h360l-180 522z" />
    <glyph glyph-name="product" unicode="&#x220f;" horiz-adv-x="689" 
d="M170 -141v716h-125v75h599v-75h-122v-716h-78v716h-196v-716h-78z" />
    <glyph glyph-name="summation" unicode="&#x2211;" horiz-adv-x="604" 
d="M65 -100v94l240 316l-230 295v95h474v-78h-383l240 -311l-255 -334h398v-77h-484z" />
    <glyph glyph-name="minus" unicode="&#x2212;" horiz-adv-x="627" 
d="M55 344v70h517v-70h-517z" />
    <glyph glyph-name="radical" unicode="&#x221a;" horiz-adv-x="639" 
d="M270 0l-119 345h-136v72h195l103 -306l202 589h84l-243 -700h-86z" />
    <glyph glyph-name="infinity" unicode="&#x221e;" horiz-adv-x="732" 
d="M231 112q-72 0 -119 54t-47 137t46.5 138t118.5 55q43 0 80 -26t56 -65q19 39 56.5 65t80.5 26q72 0 118 -55t46 -138t-45.5 -137t-117.5 -54q-43 0 -80 25t-56 63q-19 -38 -56 -63t-81 -25zM392 303q42 -116 110 -116q28 0 48 12t29 31.5t12.5 37t3.5 35.5
q0 19 -3.5 36.5t-13 37.5t-29.5 32t-49 12q-65 0 -108 -118zM341 303q-42 118 -109 118q-28 0 -48 -12t-29.5 -32t-13.5 -38t-4 -36q0 -43 21.5 -79.5t75.5 -36.5q12 0 23 3.5t26 14.5t30 35.5t28 62.5z" />
    <glyph glyph-name="integral" unicode="&#x222b;" horiz-adv-x="431" 
d="M45 -240v75q76 0 103 26.5t27 97.5v574q0 117 47.5 164.5t163.5 47.5v-75q-80 0 -105.5 -29t-25.5 -109v-561q0 -117 -47.5 -164t-162.5 -47z" />
    <glyph glyph-name="approxequal" unicode="&#x2248;" horiz-adv-x="598" 
d="M107 408l-52 28q13 53 49.5 92.5t91.5 39.5q42 0 81 -22t72 -43.5t60 -21.5q19 0 33 7t24.5 25t13.5 25.5t11 31.5l52 -27q-14 -56 -46.5 -94.5t-87.5 -38.5q-42 0 -81.5 22t-72 43.5t-59.5 21.5q-61 0 -89 -89zM107 190l-52 27q13 53 49.5 93t91.5 40q42 0 81 -22
t72 -43.5t60 -21.5q19 0 33 7t24.5 25t13.5 25.5t11 31.5l52 -28q-14 -55 -47 -93.5t-87 -38.5q-42 0 -81.5 22t-72 43.5t-59.5 21.5q-61 0 -89 -89z" />
    <glyph glyph-name="notequal" unicode="&#x2260;" horiz-adv-x="593" 
d="M65 417v70h266l68 121l49 -28l-52 -93h132v-70h-172l-55 -98h227v-70h-266l-69 -123l-48 28l53 95h-133v70h172l55 98h-227z" />
    <glyph glyph-name="lessequal" unicode="&#x2264;" horiz-adv-x="543" 
d="M55 0v70h433v-70h-433zM55 379l1 70l390 233l39 -62l-344 -206l343 -207l-39 -63z" />
    <glyph glyph-name="greaterequal" unicode="&#x2265;" horiz-adv-x="543" 
d="M458 70v-70h-433v70h433zM457 449l1 -70l-390 -235l-39 63l343 207l-344 206l39 62z" />
    <glyph glyph-name="lozenge" unicode="&#x25ca;" horiz-adv-x="591" 
d="M238 0l-203 356l205 344h111l205 -344l-204 -356h-114zM295 48l178 308l-178 294l-177 -294z" />
    <glyph glyph-name="commaaccent" unicode="&#xf6c3;" horiz-adv-x="292" 
d="M96 -229v35q28 4 38.5 16t10.5 35h-50v89h102v-75q0 -48 -23.5 -72.5t-77.5 -27.5z" />
    <glyph glyph-name="apple" unicode="&#xf8ff;" horiz-adv-x="776" 
d="M95 0v423q0 117 86 204.5t206 87.5q121 0 207.5 -87.5t86.5 -204.5v-423h-28l-65 65l-68 -65l-63 65l-71 -65l-69 65l-63 -65l-67 65l-66 -65h-26zM445 377q0 -29 20.5 -49.5t49.5 -20.5t50.5 21t21.5 49q0 30 -21.5 51t-50.5 21t-49.5 -21t-20.5 -51zM190 377
q0 -29 21 -49.5t50 -20.5q30 0 50.5 20.5t20.5 49.5q0 30 -20.5 51t-50.5 21q-29 0 -50 -21t-21 -51z" />
    <glyph glyph-name="dieresis.cap" horiz-adv-x="413" 
d="M65 765v91h91v-91h-91zM257 765v91h91v-91h-91z" />
    <glyph glyph-name="tilde.cap" horiz-adv-x="393" 
d="M99 765h-44q17 93 89 93q27 0 62 -18.5t52 -18.5q28 0 36 32h44q-17 -93 -88 -93q-28 0 -63.5 18.5t-51.5 18.5q-28 0 -36 -32z" />
    <glyph glyph-name="macron.cap" horiz-adv-x="418" 
d="M65 765v61h288v-61h-288z" />
    <glyph glyph-name="acute.cap" horiz-adv-x="289" 
d="M55 765l79 121h100l-108 -121h-71z" />
    <glyph glyph-name="circumflex.cap" horiz-adv-x="311" 
d="M35 785l66 85h109l66 -85l-48 -38l-73 92l-73 -92z" />
    <glyph glyph-name="caron.cap" horiz-adv-x="311" 
d="M101 765l-66 85l47 38l74 -92l73 92l47 -38l-66 -85h-109z" />
    <glyph glyph-name="ring.cap" horiz-adv-x="306" 
d="M153 684q-43 0 -70.5 29.5t-27.5 72.5q0 42 28 72t70 30q43 0 70.5 -29.5t27.5 -72.5q0 -44 -27.5 -73t-70.5 -29zM153 729q20 0 34 15t14 43t-14 42.5t-34 14.5t-33.5 -14.5t-13.5 -42.5t14 -43t33 -15z" />
    <glyph glyph-name="breve.cap" horiz-adv-x="339" 
d="M45 874h44q11 -58 80 -58q36 0 56 16t23 42h46q0 -56 -35 -87.5t-90 -31.5q-56 0 -90 31.5t-34 87.5z" />
    <glyph glyph-name="hungarumlaut.cap" horiz-adv-x="458" 
d="M90 765l75 115h92l-104 -115h-63zM226 765l75 115h92l-104 -115h-63z" />
    <glyph glyph-name="dotaccent.cap" horiz-adv-x="267" 
d="M85 765v97h97v-97h-97z" />
    <glyph glyph-name="grave.cap" horiz-adv-x="289" 
d="M163 765l-108 121h101l78 -121h-71z" />
    <glyph glyph-name="a.ss01" horiz-adv-x="593" 
d="M429 175v165q0 50 -37 90t-99 40q-78 0 -119.5 -53.5t-41.5 -151.5t41 -151.5t120 -53.5q59 0 97.5 34t38.5 81zM432 0v53h-2q-45 -68 -150 -68q-103 0 -166.5 76t-63.5 204q0 126 65 203t165 77q96 0 148 -66h2v51h78v-530h-76z" />
    <glyph glyph-name="agrave.ss01" horiz-adv-x="593" 
d="M250 595l-108 121h101l78 -121h-71zM429 175v165q0 50 -37 90t-99 40q-78 0 -119.5 -53.5t-41.5 -151.5t41 -151.5t120 -53.5q59 0 97.5 34t38.5 81zM432 0v53h-2q-45 -68 -150 -68q-103 0 -166.5 76t-63.5 204q0 126 65 203t165 77q96 0 148 -66h2v51h78v-530h-76z" />
    <glyph glyph-name="aacute.ss01" horiz-adv-x="593" 
d="M249 595l78 121h100l-107 -121h-71zM429 175v165q0 50 -37 90t-99 40q-78 0 -119.5 -53.5t-41.5 -151.5t41 -151.5t120 -53.5q59 0 97.5 34t38.5 81zM432 0v53h-2q-45 -68 -150 -68q-103 0 -166.5 76t-63.5 204q0 126 65 203t165 77q96 0 148 -66h2v51h78v-530h-76z" />
    <glyph glyph-name="acircumflex.ss01" horiz-adv-x="593" 
d="M414 175v165q0 50 -37 90t-99 40q-78 0 -119.5 -53.5t-41.5 -151.5t41 -151.5t120 -53.5q59 0 97.5 34t38.5 81zM417 0v53h-2q-45 -68 -150 -68q-103 0 -166.5 76t-63.5 204q0 126 65 203t165 77q96 0 148 -66h2v51h78v-530h-76zM164 620l66 85h109l66 -85l-48 -38
l-73 92l-73 -92z" />
    <glyph glyph-name="atilde.ss01" horiz-adv-x="593" 
d="M200 602h-44q18 94 89 94q27 0 62 -19t52 -19q28 0 36 33h44q-18 -94 -88 -94q-28 0 -63.5 19t-51.5 19q-28 0 -36 -33zM429 175v165q0 50 -37 90t-99 40q-78 0 -119.5 -53.5t-41.5 -151.5t41 -151.5t120 -53.5q59 0 97.5 34t38.5 81zM432 0v53h-2q-45 -68 -150 -68
q-103 0 -166.5 76t-63.5 204q0 126 65 203t165 77q96 0 148 -66h2v51h78v-530h-76z" />
    <glyph glyph-name="adieresis.ss01" horiz-adv-x="593" 
d="M429 175v165q0 50 -37 90t-99 40q-78 0 -119.5 -53.5t-41.5 -151.5t41 -151.5t120 -53.5q59 0 97.5 34t38.5 81zM432 0v53h-2q-45 -68 -150 -68q-103 0 -166.5 76t-63.5 204q0 126 65 203t165 77q96 0 148 -66h2v51h78v-530h-76zM156 611v91h91v-91h-91zM348 611v91h91
v-91h-91z" />
    <glyph glyph-name="amacron.ss01" horiz-adv-x="593" 
d="M414 175v165q0 50 -37 90t-99 40q-78 0 -119.5 -53.5t-41.5 -151.5t41 -151.5t120 -53.5q59 0 97.5 34t38.5 81zM417 0v53h-2q-45 -68 -150 -68q-103 0 -166.5 76t-63.5 204q0 126 65 203t165 77q96 0 148 -66h2v51h78v-530h-76zM138 620v61h288v-61h-288z" />
    <glyph glyph-name="abreve.ss01" horiz-adv-x="593" 
d="M173 704h44q11 -58 80 -58q36 0 56 16t23 42h46q0 -56 -35 -87.5t-90 -31.5q-56 0 -90 31.5t-34 87.5zM429 175v165q0 50 -37 90t-99 40q-78 0 -119.5 -53.5t-41.5 -151.5t41 -151.5t120 -53.5q59 0 97.5 34t38.5 81zM432 0v53h-2q-45 -68 -150 -68q-103 0 -166.5 76
t-63.5 204q0 126 65 203t165 77q96 0 148 -66h2v51h78v-530h-76z" />
    <glyph glyph-name="aring.ss01" horiz-adv-x="593" 
d="M417 0v53h-2q-45 -68 -150 -68q-103 0 -166.5 76t-63.5 204q0 110 50.5 183.5t132.5 91.5q-41 28 -41 85q0 42 28 72t70 30q43 0 70.5 -29.5t27.5 -72.5q0 -61 -46 -89q52 -15 86 -57h2v51h78v-530h-76zM414 175v165q0 50 -37 90t-99 40q-78 0 -119.5 -53.5t-41.5 -151.5
t41 -151.5t120 -53.5q59 0 97.5 34t38.5 81zM275 567q20 0 34 15.5t14 43.5q0 27 -14 41.5t-34 14.5t-33.5 -14t-13.5 -42t14 -43.5t33 -15.5z" />
    <glyph glyph-name="aringacute.ss01" horiz-adv-x="593" 
d="M432 0v53h-2q-45 -68 -150 -68q-103 0 -166.5 76t-63.5 204q0 110 51 184t133 91q-41 28 -41 85q0 39 24.5 68t62.5 33l58 90h100l-93 -105q44 -29 44 -86q0 -61 -47 -89q52 -15 86 -57h2v51h78v-530h-76zM429 175v165q0 50 -37 90t-99 40q-78 0 -119.5 -53.5
t-41.5 -151.5t41 -151.5t120 -53.5q59 0 97.5 34t38.5 81zM291 567q20 0 34 15.5t14 43.5q0 27 -14 41.5t-34 14.5t-33.5 -14t-13.5 -42t14 -43.5t33 -15.5z" />
    <glyph glyph-name="aogonek.ss01" horiz-adv-x="592" 
d="M432 0v53h-2q-45 -68 -150 -68q-103 0 -166.5 76t-63.5 204q0 126 65 203t165 77q96 0 148 -66h2v51h78v-530q-80 -72 -80 -117q0 -39 46 -39q34 0 66 37l32 -28q-51 -64 -123 -64q-40 0 -68 17t-28 57q0 75 99 137h-20zM429 175v165q0 50 -37 90t-99 40
q-78 0 -119.5 -53.5t-41.5 -151.5t41 -151.5t120 -53.5q59 0 97.5 34t38.5 81z" />
    <glyph glyph-name="caron.alt" horiz-adv-x="298" 
d="M95 579l29 151h79l-52 -151h-56z" />
    <glyph glyph-name="parenleft.cap" horiz-adv-x="386" 
d="M329 -110l-45 -37q-17 16 -44 53.5t-65 102.5t-64 156t-26 183q0 81 18.5 159t42.5 129.5t56.5 99.5t49.5 66.5l32 33.5l47 -38q-82 -90 -128 -193t-46 -256q0 -133 49 -250.5t123 -208.5z" />
    <glyph glyph-name="parenright.cap" horiz-adv-x="386" 
d="M87 -147l-45 37q74 91 123 208.5t49 250.5q0 153 -46 256t-128 193l47 38l32 -33.5t49.5 -66.5t56.5 -99.5t42.5 -129.5t18.5 -159q0 -92 -26 -183t-64 -156t-65 -102.5t-44 -53.5z" />
    <glyph glyph-name="bracketleft.cap" horiz-adv-x="372" 
d="M85 -122v952h242v-59h-178v-834h178v-59h-242z" />
    <glyph glyph-name="bracketright.cap" horiz-adv-x="372" 
d="M272 830v-952h-242v59h178v834h-178v59h242z" />
    <glyph glyph-name="braceleft.cap" horiz-adv-x="387" 
d="M136 1v264q0 32 -12 45t-41 13h-28v89h28q29 0 41 14.5t12 46.5v217q0 80 33.5 110t98.5 30h54v-60h-53q-37 0 -53 -19.5t-16 -67.5v-213q0 -29 -9.5 -50.5t-23 -31.5t-23 -14.5t-14.5 -5.5q70 -28 70 -100v-260q0 -49 16 -68t54 -19h52v-60h-54q-65 0 -98.5 29.5
t-33.5 110.5z" />
    <glyph glyph-name="braceright.cap" horiz-adv-x="387" 
d="M211 265v-264q0 -81 -33.5 -110.5t-98.5 -29.5h-54v60h52q38 0 54 19t16 68v260q0 72 70 100q-5 1 -14.5 5.5t-23 14.5t-23 31.5t-9.5 50.5v213q0 48 -16 67.5t-53 19.5h-53v60h54q65 0 98.5 -30t33.5 -110v-217q0 -32 12 -46.5t41 -14.5h28v-89h-28q-29 0 -41 -13
t-12 -45z" />
    <glyph glyph-name="published" horiz-adv-x="725" 
d="M362 97q109 0 182 73.5t73 183.5q0 108 -73 181.5t-182 73.5q-108 0 -181 -73.5t-73 -181.5q0 -109 73 -183t181 -74zM362 45q-130 0 -218.5 89t-88.5 220q0 130 88.5 218.5t218.5 88.5q131 0 220 -88.5t89 -218.5q0 -131 -89 -220t-220 -89zM331 367h58q75 0 75 59
t-75 59h-58v-118zM331 314v-148h-58v372h116q62 0 97.5 -29t35.5 -83t-35.5 -83t-97.5 -29h-58z" />
    <glyph glyph-name="zero.numr" horiz-adv-x="398" 
d="M199 268q-73 0 -116 56t-43 168q0 104 43.5 158.5t115.5 54.5t115.5 -54.5t43.5 -158.5q0 -112 -43 -168t-116 -56zM199 330q90 0 90 163q0 150 -90 150t-90 -150q0 -163 90 -163z" />
    <glyph glyph-name="one.numr" horiz-adv-x="267" 
d="M117 273v350l-92 -57v73l98 61h59v-427h-65z" />
    <glyph glyph-name="two.numr" horiz-adv-x="362" 
d="M39 273v52q0 53 26 90q19 25 94 64l17.5 10t17 9t14.5 8t13.5 9t11.5 8.5t10.5 9.5t7 9.5t6 11t3 12.5t1.5 14q0 26 -19.5 46t-55.5 20q-79 0 -87 -92l-64 8q4 68 44 105.5t107 37.5q62 0 100 -35.5t38 -93.5q0 -50 -30 -79.5t-84 -56.5q-77 -41 -88 -58q-10 -13 -10 -43
h215v-66h-288z" />
    <glyph glyph-name="three.numr" horiz-adv-x="355" 
d="M20 414l65 14q6 -51 28.5 -75.5t64.5 -24.5q41 0 62.5 19.5t21.5 51.5q0 35 -23 54t-65 19h-26v53h20q29 0 52.5 13.5t23.5 43.5q0 29 -18 46t-51 17q-62 0 -72 -71l-62 12q5 55 42 87t94 32q56 0 93 -31t37 -83q0 -35 -18.5 -56.5t-39.5 -28.5v-2q29 -9 52.5 -36
t23.5 -73q0 -55 -39.5 -91t-107.5 -36q-65 0 -107 36.5t-51 109.5z" />
    <glyph glyph-name="four.numr" horiz-adv-x="384" 
d="M30 372v61l162 267h95v-267h52v-61h-52v-99h-65v99h-192zM91 433h131v211h-2z" />
    <glyph glyph-name="five.numr" horiz-adv-x="390" 
d="M40 382l61 27q22 -80 96 -80q40 0 64.5 23.5t24.5 66.5t-24.5 66t-62.5 23q-57 0 -91 -48l-54 25l38 215h215v-61h-165l-21 -116h2q30 37 92 37q56 0 95.5 -40t39.5 -102q0 -69 -43.5 -109.5t-109.5 -40.5q-61 0 -100.5 31t-56.5 83z" />
    <glyph glyph-name="six.numr" horiz-adv-x="398" 
d="M212 330q40 0 61.5 23.5t21.5 62.5t-22.5 62.5t-63.5 23.5q-39 0 -63 -24.5t-24 -57.5q0 -41 25 -65.5t65 -24.5zM107 497h2q9 20 38.5 39t76.5 19q53 0 93.5 -38t40.5 -103q0 -68 -42 -107t-104 -39q-75 0 -123.5 53.5t-48.5 159.5q0 96 46.5 160t122.5 64
q57 0 90.5 -30.5t42.5 -76.5l-60 -17q-18 65 -76 65q-43 0 -71 -40.5t-28 -108.5z" />
    <glyph glyph-name="seven.numr" horiz-adv-x="317" 
d="M30 273l200 365v2h-220v60h282v-73l-188 -354h-74z" />
    <glyph glyph-name="eight.numr" horiz-adv-x="357" 
d="M112 588q0 -25 16.5 -42t49.5 -17t49.5 17t16.5 42t-17 43t-49 18t-49 -18t-17 -43zM105 503v2q-56 24 -56 89q0 46 36 78.5t93 32.5t94 -32.5t37 -78.5q0 -63 -56 -89v-2q32 -11 53 -40t21 -67q0 -60 -41 -94t-108 -34t-107.5 34t-40.5 94q0 38 20.5 67t54.5 40zM94 402
q0 -32 21 -52t63 -20t63 20t21 52q0 34 -22 55t-62 21t-62 -21t-22 -55z" />
    <glyph glyph-name="nine.numr" horiz-adv-x="388" 
d="M50 372l60 21q16 -65 83 -65q89 0 88 146h-2q-4 -18 -31.5 -37t-73.5 -19q-56 0 -97.5 39t-41.5 103q0 66 42 105.5t103 39.5q71 0 117 -55t46 -166q0 -110 -41 -163t-112 -53q-112 0 -140 104zM183 475q38 0 61 21.5t23 59.5t-24 63.5t-63 25.5q-36 0 -59 -23t-23 -62
t23 -62t62 -23z" />
    <glyph glyph-name="zero.dnom" horiz-adv-x="398" 
d="M199 -5q-73 0 -116 56t-43 168q0 104 43.5 158.5t115.5 54.5t115.5 -54.5t43.5 -158.5q0 -112 -43 -168t-116 -56zM199 57q90 0 90 163q0 150 -90 150t-90 -150q0 -163 90 -163z" />
    <glyph glyph-name="one.dnom" horiz-adv-x="267" 
d="M122 0v350l-92 -57v73l98 61h59v-427h-65z" />
    <glyph glyph-name="two.dnom" horiz-adv-x="362" 
d="M39 0v52q0 53 26 90q19 25 94 64l17.5 10t17 9t14.5 8t13.5 9t11.5 8.5t10.5 9.5t7 9.5t6 11t3 12.5t1.5 14q0 26 -19.5 46t-55.5 20q-79 0 -87 -92l-64 8q4 68 44 105.5t107 37.5q62 0 100 -35.5t38 -93.5q0 -50 -30 -79.5t-84 -56.5q-77 -41 -88 -58q-10 -13 -10 -43
h215v-66h-288z" />
    <glyph glyph-name="three.dnom" horiz-adv-x="355" 
d="M20 141l65 14q6 -51 28.5 -75.5t64.5 -24.5q41 0 62.5 19.5t21.5 51.5q0 35 -23 54t-65 19h-26v53h20q29 0 52.5 13.5t23.5 43.5q0 29 -18 46t-51 17q-62 0 -72 -71l-62 12q5 55 42 87t94 32q56 0 93 -31t37 -83q0 -35 -18.5 -56.5t-39.5 -28.5v-2q29 -9 52.5 -36
t23.5 -73q0 -55 -39.5 -91t-107.5 -36q-65 0 -107 36.5t-51 109.5z" />
    <glyph glyph-name="four.dnom" horiz-adv-x="384" 
d="M30 99v61l162 267h95v-267h52v-61h-52v-99h-65v99h-192zM91 160h131v211h-2z" />
    <glyph glyph-name="five.dnom" horiz-adv-x="390" 
d="M40 109l61 27q22 -80 96 -80q40 0 64.5 23.5t24.5 66.5t-24.5 66t-62.5 23q-57 0 -91 -48l-54 25l38 215h215v-61h-165l-21 -116h2q30 37 92 37q56 0 95.5 -40t39.5 -102q0 -69 -43.5 -109.5t-109.5 -40.5q-61 0 -100.5 31t-56.5 83z" />
    <glyph glyph-name="six.dnom" horiz-adv-x="398" 
d="M212 57q40 0 61.5 23.5t21.5 62.5t-22.5 62.5t-63.5 23.5q-39 0 -63 -24.5t-24 -57.5q0 -41 25 -65.5t65 -24.5zM107 224h2q9 20 38.5 39t76.5 19q53 0 93.5 -38t40.5 -103q0 -68 -42 -107t-104 -39q-75 0 -123.5 53.5t-48.5 159.5q0 96 46.5 160t122.5 64
q57 0 90.5 -30.5t42.5 -76.5l-60 -17q-18 65 -76 65q-43 0 -71 -40.5t-28 -108.5z" />
    <glyph glyph-name="seven.dnom" horiz-adv-x="317" 
d="M30 0l200 365v2h-220v60h282v-73l-188 -354h-74z" />
    <glyph glyph-name="eight.dnom" horiz-adv-x="357" 
d="M112 315q0 -25 16.5 -42t49.5 -17t49.5 17t16.5 42t-17 43t-49 18t-49 -18t-17 -43zM105 230v2q-56 24 -56 89q0 46 36 78.5t93 32.5t94 -32.5t37 -78.5q0 -63 -56 -89v-2q32 -11 53 -40t21 -67q0 -60 -41 -94t-108 -34t-107.5 34t-40.5 94q0 38 20.5 67t54.5 40zM94 129
q0 -32 21 -52t63 -20t63 20t21 52q0 34 -22 55t-62 21t-62 -21t-22 -55z" />
    <glyph glyph-name="nine.dnom" horiz-adv-x="388" 
d="M50 99l60 21q16 -65 83 -65q89 0 88 146h-2q-4 -17 -31.5 -36.5t-73.5 -19.5q-56 0 -97.5 39t-41.5 103q0 66 42 105.5t103 39.5q71 0 117 -55t46 -166q0 -110 -41 -163t-112 -53q-112 0 -140 104zM183 202q38 0 61 21.5t23 59.5t-24 63.5t-63 25.5q-36 0 -59 -23
t-23 -62t23 -62t62 -23z" />
    <glyph glyph-name="plusinferior" horiz-adv-x="446" 
d="M191 -157v155h-136v59h136v138h63v-138h137v-59h-137v-155h-63z" />
    <glyph glyph-name="minusinferior" horiz-adv-x="416" 
d="M55 -2v59h306v-59h-306z" />
    <glyph glyph-name="zero.tnum" 
d="M325 -15q-123 0 -192 97t-69 277q0 172 72 264t189 92t188.5 -92t71.5 -264q0 -180 -69 -277t-191 -97zM325 61q86 0 131 78.5t45 220.5q0 134 -46 206.5t-130 72.5t-130 -72t-46 -207q0 -142 45 -220.5t131 -78.5z" />
    <glyph glyph-name="one.tnum" 
d="M120 75h185v530l-151 -95v90l161 100h67v-625h187v-75h-449v75z" />
    <glyph glyph-name="two.tnum" 
d="M99 0v63q0 97 36 150q33 52 156 117l56.5 31t43 26t38 28t23 27t17.5 34.5t4 39.5q0 51 -35.5 87.5t-106.5 36.5q-69 0 -110.5 -42.5t-45.5 -119.5l-80 8q4 108 69.5 168.5t168.5 60.5q104 0 162 -58.5t58 -144.5q0 -46 -13 -80.5t-47 -64t-52.5 -41t-68.5 -38.5l-14 -8
l-32.5 -17.5l-29.5 -16l-23.5 -13.5t-22 -14l-16.5 -13t-16 -15t-11 -15q-20 -31 -20 -93h368v-83h-456z" />
    <glyph glyph-name="three.tnum" 
d="M81 230l81 16q12 -96 52 -141t119 -45q76 0 115.5 39.5t39.5 97.5q0 142 -153 142h-50v72h21q22 0 42 3t50 12.5t48 34.5t18 62q0 55 -35 86t-95 31t-95.5 -35t-43.5 -98l-78 14q9 88 68.5 141t149.5 53q91 0 150 -49.5t59 -137.5q0 -59 -33.5 -96.5t-75.5 -48.5v-2
q56 -13 94.5 -61t38.5 -125q0 -91 -65 -150.5t-169 -59.5q-105 0 -172 60t-81 185z" />
    <glyph glyph-name="four.tnum" 
d="M78 162v75l281 463h126v-462h87v-76h-87v-162h-80v162h-327zM161 238h244v399h-2z" />
    <glyph glyph-name="five.tnum" 
d="M78 179l79 28q40 -146 171 -146q75 0 119 46.5t44 127.5q0 77 -43.5 121t-115.5 44q-102 0 -156 -84l-74 32l63 352h345v-76h-282l-40 -221l1 -1q21 28 62.5 47t97.5 19q93 0 158 -64.5t65 -169.5q0 -113 -69 -181t-175 -68q-97 0 -161.5 53.5t-88.5 140.5z" />
    <glyph glyph-name="six.tnum" 
d="M343 61q77 0 119.5 45.5t42.5 122.5q0 75 -44.5 120.5t-120.5 45.5q-71 0 -119 -47t-48 -109q0 -77 48 -127.5t122 -50.5zM551 537l-76 -20q-32 123 -141 123q-75 0 -129 -74.5t-55 -215.5l1 -1q6 14 19 31t36.5 37.5t61.5 34t82 13.5q98 0 166.5 -64t68.5 -171
q0 -114 -68 -179.5t-174 -65.5q-54 0 -102.5 20t-89 60t-64 110.5t-23.5 163.5q0 166 77 271t195 105q92 0 146 -51t69 -127z" />
    <glyph glyph-name="seven.tnum" 
d="M139 0l343 621v2h-358v77h441v-86l-331 -614h-95z" />
    <glyph glyph-name="eight.tnum" 
d="M326 642q-64 0 -97 -33.5t-33 -81.5q0 -50 36 -83.5t94 -33.5t93.5 33.5t35.5 83.5q0 49 -32.5 82t-96.5 33zM326 -15q-111 0 -179.5 56t-68.5 157q0 66 39 115t92 66v2q-40 17 -66.5 56.5t-26.5 97.5q0 72 57.5 126t152.5 54t152.5 -54t57.5 -126q0 -58 -27 -97.5
t-66 -56.5v-2q54 -19 91.5 -67t37.5 -114q0 -101 -67.5 -157t-178.5 -56zM326 63q75 0 118.5 38.5t43.5 99.5q0 63 -45 102t-117 39t-117.5 -39t-45.5 -102q0 -61 43.5 -99.5t119.5 -38.5z" />
    <glyph glyph-name="nine.tnum" 
d="M104 161l77 24q31 -125 146 -125q166 0 167 287h-2q-4 -12 -15 -27.5t-32 -34.5t-56.5 -32t-79.5 -13q-100 0 -166.5 65.5t-66.5 172.5q0 106 68 171.5t164 65.5q122 0 193.5 -91.5t71.5 -274.5q0 -190 -68 -277t-179 -87q-87 0 -145 48t-77 128zM314 314q70 0 113.5 45
t43.5 115q0 71 -45.5 118.5t-117.5 47.5q-66 0 -109 -44t-43 -118q0 -75 43 -119.5t115 -44.5z" />
    <glyph glyph-name="Euro.tnum" 
d="M382 636q-65 0 -112 -45t-64 -135h168v-67h-175q-1 -11 -1 -33q0 -20 2 -54h174v-67h-165q18 -86 63.5 -129t109.5 -43q137 0 154 197l84 -8q-8 -125 -70.5 -196t-167.5 -71q-95 0 -166 61.5t-95 188.5h-92v67h84q-2 34 -2 54q0 22 1 33h-83v67h90q22 125 95 192t168 67
q99 0 163.5 -67t73.5 -178l-84 -11q-23 177 -153 177z" />
    <glyph glyph-name="dollar.tnum" 
d="M52 241l86 17q15 -91 51 -137t115 -55q0 44 0.5 134t0.5 134q-113 30 -167 77t-54 118q0 75 59.5 128.5t162.5 57.5v60h44v-62q89 -8 146.5 -56t71.5 -135l-82 -18q-13 58 -43.5 91t-93.5 39v-230q142 -41 195.5 -88t53.5 -128q0 -89 -65 -145.5t-185 -57.5v-83h-44v85
q-223 21 -252 254zM349 322q0 -43 -0.5 -129.5t-0.5 -129.5q85 0 126 35t41 91q0 47 -33.5 75.5t-132.5 57.5zM168 529q0 -39 30.5 -65.5t106.5 -47.5v220q-68 -2 -102.5 -32t-34.5 -75z" />
    <glyph glyph-name="sterling.tnum" 
d="M80 0v76h37q33 0 47 13.5t14 47.5v181h-98v63h98v123q0 102 52 156.5t141 54.5q84 0 134 -49t62 -142l-76 -16q-12 68 -38.5 100t-80.5 32q-112 0 -112 -142v-117h201v-63h-201v-242h310v-76h-490z" />
    <glyph glyph-name="yen.tnum" 
d="M77 139v67h206v89h-206v68h169l-192 337h91l179 -323h2l179 323h91l-192 -337h169v-68h-206v-89h206v-67h-207v-139h-81v139h-208z" />
    <glyph glyph-name="cent.tnum" 
d="M477 203l79 -16q-12 -87 -67.5 -141.5t-136.5 -59.5v-96h-35v96q-100 6 -161.5 80t-61.5 199q0 123 63 197.5t160 81.5v87h35v-87q79 -5 133.5 -58t66.5 -135l-77 -16q-25 124 -123 135v-410q53 6 85 47t40 96zM175 265q0 -90 38 -144t104 -61v410q-65 -7 -103.5 -60.5
t-38.5 -144.5z" />
    <glyph glyph-name="florin.tnum" 
d="M128 -173l99 572h-98l12 66h98l25 132q29 148 141 148q65 0 117 -57l-49 -57q-33 38 -62 38q-28 0 -44.5 -18t-25.5 -67l-22 -119h144l-11 -66h-144l-100 -572h-80z" />
    <glyph glyph-name="percent.tnum" 
d="M198 470q47 0 72 39t25 106q0 66 -25.5 99.5t-71.5 33.5q-45 0 -70.5 -33.5t-25.5 -99.5q0 -67 24.5 -106t71.5 -39zM198 407q-77 0 -121 55.5t-44 153.5q0 93 49.5 144.5t115.5 51.5q67 0 116.5 -51.5t49.5 -144.5q0 -95 -45 -152t-121 -57zM458 -39q47 0 72 39t25 106
q0 66 -25.5 99.5t-71.5 33.5q-45 0 -70.5 -33.5t-25.5 -99.5q0 -67 24.5 -106t71.5 -39zM458 -102q-77 0 -121 55.5t-44 153.5q0 93 49.5 144.5t115.5 51.5q67 0 116.5 -51.5t49.5 -144.5q0 -95 -45 -152t-121 -57zM25 191l564 382l33 -51l-563 -381z" />
    <glyph glyph-name="perthousand.tnum" horiz-adv-x="1300" 
d="M999 -39q48 0 73 39t25 106q0 66 -26 99.5t-72 33.5q-45 0 -70.5 -33.5t-25.5 -99.5q0 -67 24.5 -106t71.5 -39zM999 -102q-76 0 -120.5 55.5t-44.5 153.5q0 93 49.5 144.5t115.5 51.5q67 0 116.5 -51.5t49.5 -144.5q0 -95 -45 -152t-121 -57zM300 470q47 0 72 39t25 106
q0 66 -25.5 99.5t-71.5 33.5q-45 0 -70.5 -33.5t-25.5 -99.5q0 -67 24.5 -106t71.5 -39zM300 407q-76 0 -120.5 56t-44.5 153q0 93 49.5 144.5t115.5 51.5q67 0 116.5 -51.5t49.5 -144.5q0 -94 -45.5 -151.5t-120.5 -57.5zM600 -39q47 0 72 39t25 106q0 66 -25.5 99.5
t-71.5 33.5q-45 0 -70.5 -33.5t-25.5 -99.5q0 -67 24.5 -106t71.5 -39zM600 -102q-77 0 -121 55.5t-44 153.5q0 93 49.5 144.5t115.5 51.5q67 0 116.5 -51.5t49.5 -144.5q0 -95 -45 -152t-121 -57zM148 194l564 382l33 -51l-563 -381z" />
    <glyph glyph-name="plus.tnum" 
d="M289 120v227h-199v66h199v202h72v-202h199v-66h-199v-227h-72z" />
    <glyph glyph-name="minus.tnum" 
d="M66 344v70h517v-70h-517z" />
    <glyph glyph-name="plusminus.tnum" 
d="M73 418v70h214v167h75v-167h214v-70h-214v-188h-75v188h-214zM101 96v70h456v-70h-456z" />
    <glyph glyph-name="multiply.tnum" 
d="M106 168l169 168l-159 159l51 50l158 -158l159 158l50 -50l-159 -159l169 -168l-50 -50l-169 168l-168 -168z" />
    <glyph glyph-name="divide.tnum" 
d="M254 566q0 30 20.5 51t49.5 21q31 0 51.5 -21t20.5 -51q0 -29 -20.5 -49.5t-51.5 -20.5q-29 0 -49.5 20.5t-20.5 49.5zM254 141q0 30 20.5 50.5t49.5 20.5q31 0 51.5 -20.5t20.5 -50.5t-20.5 -50.5t-51.5 -20.5q-29 0 -49.5 20.5t-20.5 50.5zM133 319v70h384v-70h-384z
" />
    <glyph glyph-name="equal.tnum" 
d="M93 249v70h463v-70h-463zM93 417v70h463v-70h-463z" />
    <glyph glyph-name="notequal.tnum" 
d="M93 417v70h266l68 121l49 -28l-52 -93h132v-70h-172l-55 -98h227v-70h-266l-69 -123l-48 28l53 95h-133v70h172l55 98h-227z" />
    <glyph glyph-name="approxequal.tnum" 
d="M133 408l-52 28q13 53 49.5 92.5t91.5 39.5q42 0 81 -22t72 -43.5t60 -21.5q19 0 33 7t24.5 25t13.5 25.5t11 31.5l52 -27q-14 -56 -46.5 -94.5t-87.5 -38.5q-42 0 -81.5 22t-72 43.5t-59.5 21.5q-61 0 -89 -89zM133 190l-52 27q13 53 49.5 93t91.5 40q42 0 81 -22
t72 -43.5t60 -21.5q19 0 33 7t24.5 25t13.5 25.5t11 31.5l52 -28q-14 -55 -47 -93.5t-87 -38.5q-42 0 -81.5 22t-72 43.5t-59.5 21.5q-61 0 -89 -89z" />
    <glyph glyph-name="less.tnum" 
d="M111 317l1 70l390 233l37 -60l-349 -208l349 -211l-38 -59z" />
    <glyph glyph-name="greater.tnum" 
d="M538 387l1 -70l-390 -235l-38 59l349 211l-349 208l37 60z" />
    <glyph glyph-name="lessequal.tnum" 
d="M108 0v70h433v-70h-433zM108 379l1 70l390 233l39 -62l-344 -206l343 -207l-39 -63z" />
    <glyph glyph-name="greaterequal.tnum" 
d="M541 70v-70h-433v70h433zM540 449l1 -70l-390 -235l-39 63l343 207l-344 206l39 62z" />
    </font>
</defs>
</svg>
